ISO-10303-21;
HEADER;
/* Generated by software containing ST-Developer
 * from STEP Tools, Inc. (www.steptools.com) 
 */

FILE_DESCRIPTION(
/* description */ (''),
/* implementation_level */ '2;1');

FILE_NAME(
/* name */ 'R9_G20_button_2_LEFT_USB.step',
/* time_stamp */ '2026-10-05T03:56:12+08:00',
/* author */ (''),
/* organization */ (''),
/* preprocessor_version */ 'ST-DEVELOPER v20.2',
/* originating_system */ 'Autodesk Translation Framework v15.15.0.0',
/* authorisation */ '');

FILE_SCHEMA (('AUTOMOTIVE_DESIGN { 1 0 10303 214 3 1 1 }'));
ENDSEC;

DATA;
#10=MECHANICAL_DESIGN_GEOMETRIC_PRESENTATION_REPRESENTATION('',(#13),#1842);
#11=SHAPE_REPRESENTATION_RELATIONSHIP('SRR','None',#1849,#12);
#12=ADVANCED_BREP_SHAPE_REPRESENTATION('',(#14),#1841);
#13=STYLED_ITEM('',(#1858),#14);
#14=MANIFOLD_SOLID_BREP('\X2\5B9E4F53\X0\1',#1164);
#15=FACE_BOUND('',#75,.T.);
#16=FACE_OUTER_BOUND('',#72,.T.);
#17=FACE_OUTER_BOUND('',#73,.T.);
#18=FACE_OUTER_BOUND('',#74,.T.);
#19=FACE_OUTER_BOUND('',#76,.T.);
#20=FACE_OUTER_BOUND('',#77,.T.);
#21=FACE_OUTER_BOUND('',#78,.T.);
#22=FACE_OUTER_BOUND('',#79,.T.);
#23=FACE_OUTER_BOUND('',#80,.T.);
#24=FACE_OUTER_BOUND('',#81,.T.);
#25=FACE_OUTER_BOUND('',#82,.T.);
#26=FACE_OUTER_BOUND('',#83,.T.);
#27=FACE_OUTER_BOUND('',#84,.T.);
#28=FACE_OUTER_BOUND('',#85,.T.);
#29=FACE_OUTER_BOUND('',#86,.T.);
#30=FACE_OUTER_BOUND('',#87,.T.);
#31=FACE_OUTER_BOUND('',#88,.T.);
#32=FACE_OUTER_BOUND('',#89,.T.);
#33=FACE_OUTER_BOUND('',#90,.T.);
#34=FACE_OUTER_BOUND('',#91,.T.);
#35=FACE_OUTER_BOUND('',#92,.T.);
#36=FACE_OUTER_BOUND('',#93,.T.);
#37=FACE_OUTER_BOUND('',#94,.T.);
#38=FACE_OUTER_BOUND('',#95,.T.);
#39=FACE_OUTER_BOUND('',#96,.T.);
#40=FACE_OUTER_BOUND('',#97,.T.);
#41=FACE_OUTER_BOUND('',#98,.T.);
#42=FACE_OUTER_BOUND('',#99,.T.);
#43=FACE_OUTER_BOUND('',#100,.T.);
#44=FACE_OUTER_BOUND('',#101,.T.);
#45=FACE_OUTER_BOUND('',#102,.T.);
#46=FACE_OUTER_BOUND('',#103,.T.);
#47=FACE_OUTER_BOUND('',#104,.T.);
#48=FACE_OUTER_BOUND('',#105,.T.);
#49=FACE_OUTER_BOUND('',#106,.T.);
#50=FACE_OUTER_BOUND('',#107,.T.);
#51=FACE_OUTER_BOUND('',#108,.T.);
#52=FACE_OUTER_BOUND('',#109,.T.);
#53=FACE_OUTER_BOUND('',#110,.T.);
#54=FACE_OUTER_BOUND('',#111,.T.);
#55=FACE_OUTER_BOUND('',#112,.T.);
#56=FACE_OUTER_BOUND('',#113,.T.);
#57=FACE_OUTER_BOUND('',#114,.T.);
#58=FACE_OUTER_BOUND('',#115,.T.);
#59=FACE_OUTER_BOUND('',#116,.T.);
#60=FACE_OUTER_BOUND('',#117,.T.);
#61=FACE_OUTER_BOUND('',#118,.T.);
#62=FACE_OUTER_BOUND('',#119,.T.);
#63=FACE_OUTER_BOUND('',#120,.T.);
#64=FACE_OUTER_BOUND('',#121,.T.);
#65=FACE_OUTER_BOUND('',#122,.T.);
#66=FACE_OUTER_BOUND('',#123,.T.);
#67=FACE_OUTER_BOUND('',#124,.T.);
#68=FACE_OUTER_BOUND('',#125,.T.);
#69=FACE_OUTER_BOUND('',#126,.T.);
#70=FACE_OUTER_BOUND('',#127,.T.);
#71=FACE_OUTER_BOUND('',#128,.T.);
#72=EDGE_LOOP('',(#726,#727,#728,#729));
#73=EDGE_LOOP('',(#730,#731,#732,#733,#734,#735,#736,#737,#738,#739,#740,
#741,#742));
#74=EDGE_LOOP('',(#743,#744,#745,#746,#747,#748,#749,#750,#751,#752));
#75=EDGE_LOOP('',(#753,#754,#755,#756));
#76=EDGE_LOOP('',(#757,#758,#759,#760,#761,#762,#763,#764));
#77=EDGE_LOOP('',(#765,#766,#767,#768,#769));
#78=EDGE_LOOP('',(#770,#771,#772,#773,#774,#775,#776,#777,#778,#779,#780,
#781,#782,#783,#784,#785,#786,#787,#788,#789,#790,#791));
#79=EDGE_LOOP('',(#792,#793,#794,#795,#796,#797,#798));
#80=EDGE_LOOP('',(#799,#800,#801,#802,#803,#804));
#81=EDGE_LOOP('',(#805,#806,#807,#808,#809,#810,#811));
#82=EDGE_LOOP('',(#812,#813,#814,#815));
#83=EDGE_LOOP('',(#816,#817,#818,#819));
#84=EDGE_LOOP('',(#820,#821,#822,#823,#824,#825));
#85=EDGE_LOOP('',(#826,#827,#828,#829,#830,#831,#832,#833));
#86=EDGE_LOOP('',(#834,#835,#836,#837,#838,#839));
#87=EDGE_LOOP('',(#840,#841,#842,#843));
#88=EDGE_LOOP('',(#844,#845,#846,#847,#848,#849));
#89=EDGE_LOOP('',(#850,#851,#852,#853));
#90=EDGE_LOOP('',(#854,#855,#856,#857,#858,#859,#860,#861));
#91=EDGE_LOOP('',(#862,#863,#864,#865));
#92=EDGE_LOOP('',(#866,#867,#868,#869,#870,#871,#872,#873,#874,#875,#876,
#877,#878));
#93=EDGE_LOOP('',(#879,#880,#881,#882,#883));
#94=EDGE_LOOP('',(#884,#885,#886,#887,#888,#889,#890,#891));
#95=EDGE_LOOP('',(#892,#893,#894,#895,#896,#897,#898,#899));
#96=EDGE_LOOP('',(#900,#901,#902,#903,#904));
#97=EDGE_LOOP('',(#905,#906,#907,#908,#909));
#98=EDGE_LOOP('',(#910,#911,#912,#913));
#99=EDGE_LOOP('',(#914,#915,#916,#917));
#100=EDGE_LOOP('',(#918,#919,#920,#921));
#101=EDGE_LOOP('',(#922,#923,#924,#925));
#102=EDGE_LOOP('',(#926,#927,#928,#929));
#103=EDGE_LOOP('',(#930,#931,#932,#933));
#104=EDGE_LOOP('',(#934,#935,#936,#937,#938));
#105=EDGE_LOOP('',(#939,#940,#941,#942));
#106=EDGE_LOOP('',(#943,#944,#945,#946));
#107=EDGE_LOOP('',(#947,#948,#949,#950));
#108=EDGE_LOOP('',(#951,#952,#953,#954,#955));
#109=EDGE_LOOP('',(#956,#957,#958,#959));
#110=EDGE_LOOP('',(#960,#961,#962,#963));
#111=EDGE_LOOP('',(#964,#965,#966,#967));
#112=EDGE_LOOP('',(#968,#969,#970,#971));
#113=EDGE_LOOP('',(#972,#973,#974,#975));
#114=EDGE_LOOP('',(#976,#977,#978,#979,#980,#981));
#115=EDGE_LOOP('',(#982,#983,#984,#985,#986,#987));
#116=EDGE_LOOP('',(#988,#989,#990,#991));
#117=EDGE_LOOP('',(#992,#993,#994,#995));
#118=EDGE_LOOP('',(#996,#997,#998,#999));
#119=EDGE_LOOP('',(#1000,#1001,#1002,#1003));
#120=EDGE_LOOP('',(#1004,#1005,#1006,#1007));
#121=EDGE_LOOP('',(#1008,#1009,#1010,#1011,#1012,#1013,#1014,#1015));
#122=EDGE_LOOP('',(#1016,#1017,#1018,#1019));
#123=EDGE_LOOP('',(#1020,#1021,#1022,#1023,#1024,#1025));
#124=EDGE_LOOP('',(#1026,#1027,#1028,#1029));
#125=EDGE_LOOP('',(#1030,#1031,#1032,#1033));
#126=EDGE_LOOP('',(#1034,#1035,#1036,#1037));
#127=EDGE_LOOP('',(#1038,#1039,#1040,#1041,#1042,#1043,#1044,#1045));
#128=EDGE_LOOP('',(#1046,#1047,#1048,#1049,#1050,#1051));
#129=LINE('',#1515,#292);
#130=LINE('',#1517,#293);
#131=LINE('',#1519,#294);
#132=LINE('',#1520,#295);
#133=LINE('',#1523,#296);
#134=LINE('',#1525,#297);
#135=LINE('',#1527,#298);
#136=LINE('',#1529,#299);
#137=LINE('',#1531,#300);
#138=LINE('',#1533,#301);
#139=LINE('',#1535,#302);
#140=LINE('',#1537,#303);
#141=LINE('',#1539,#304);
#142=LINE('',#1541,#305);
#143=LINE('',#1543,#306);
#144=LINE('',#1544,#307);
#145=LINE('',#1547,#308);
#146=LINE('',#1549,#309);
#147=LINE('',#1551,#310);
#148=LINE('',#1553,#311);
#149=LINE('',#1555,#312);
#150=LINE('',#1557,#313);
#151=LINE('',#1558,#314);
#152=LINE('',#1561,#315);
#153=LINE('',#1563,#316);
#154=LINE('',#1565,#317);
#155=LINE('',#1566,#318);
#156=LINE('',#1569,#319);
#157=LINE('',#1571,#320);
#158=LINE('',#1573,#321);
#159=LINE('',#1575,#322);
#160=LINE('',#1577,#323);
#161=LINE('',#1578,#324);
#162=LINE('',#1582,#325);
#163=LINE('',#1584,#326);
#164=LINE('',#1586,#327);
#165=LINE('',#1588,#328);
#166=LINE('',#1589,#329);
#167=LINE('',#1592,#330);
#168=LINE('',#1594,#331);
#169=LINE('',#1596,#332);
#170=LINE('',#1598,#333);
#171=LINE('',#1600,#334);
#172=LINE('',#1602,#335);
#173=LINE('',#1604,#336);
#174=LINE('',#1606,#337);
#175=LINE('',#1608,#338);
#176=LINE('',#1610,#339);
#177=LINE('',#1612,#340);
#178=LINE('',#1614,#341);
#179=LINE('',#1615,#342);
#180=LINE('',#1616,#343);
#181=LINE('',#1618,#344);
#182=LINE('',#1620,#345);
#183=LINE('',#1622,#346);
#184=LINE('',#1623,#347);
#185=LINE('',#1626,#348);
#186=LINE('',#1628,#349);
#187=LINE('',#1630,#350);
#188=LINE('',#1632,#351);
#189=LINE('',#1633,#352);
#190=LINE('',#1636,#353);
#191=LINE('',#1637,#354);
#192=LINE('',#1639,#355);
#193=LINE('',#1640,#356);
#194=LINE('',#1643,#357);
#195=LINE('',#1645,#358);
#196=LINE('',#1647,#359);
#197=LINE('',#1649,#360);
#198=LINE('',#1650,#361);
#199=LINE('',#1653,#362);
#200=LINE('',#1654,#363);
#201=LINE('',#1657,#364);
#202=LINE('',#1659,#365);
#203=LINE('',#1660,#366);
#204=LINE('',#1663,#367);
#205=LINE('',#1664,#368);
#206=LINE('',#1665,#369);
#207=LINE('',#1669,#370);
#208=LINE('',#1670,#371);
#209=LINE('',#1671,#372);
#210=LINE('',#1672,#373);
#211=LINE('',#1675,#374);
#212=LINE('',#1677,#375);
#213=LINE('',#1679,#376);
#214=LINE('',#1680,#377);
#215=LINE('',#1683,#378);
#216=LINE('',#1685,#379);
#217=LINE('',#1686,#380);
#218=LINE('',#1689,#381);
#219=LINE('',#1691,#382);
#220=LINE('',#1692,#383);
#221=LINE('',#1694,#384);
#222=LINE('',#1696,#385);
#223=LINE('',#1698,#386);
#224=LINE('',#1699,#387);
#225=LINE('',#1701,#388);
#226=LINE('',#1704,#389);
#227=LINE('',#1705,#390);
#228=LINE('',#1706,#391);
#229=LINE('',#1709,#392);
#230=LINE('',#1711,#393);
#231=LINE('',#1712,#394);
#232=LINE('',#1715,#395);
#233=LINE('',#1717,#396);
#234=LINE('',#1719,#397);
#235=LINE('',#1721,#398);
#236=LINE('',#1722,#399);
#237=LINE('',#1725,#400);
#238=LINE('',#1727,#401);
#239=LINE('',#1728,#402);
#240=LINE('',#1731,#403);
#241=LINE('',#1733,#404);
#242=LINE('',#1734,#405);
#243=LINE('',#1737,#406);
#244=LINE('',#1739,#407);
#245=LINE('',#1740,#408);
#246=LINE('',#1742,#409);
#247=LINE('',#1743,#410);
#248=LINE('',#1745,#411);
#249=LINE('',#1748,#412);
#250=LINE('',#1752,#413);
#251=LINE('',#1753,#414);
#252=LINE('',#1756,#415);
#253=LINE('',#1758,#416);
#254=LINE('',#1759,#417);
#255=LINE('',#1762,#418);
#256=LINE('',#1763,#419);
#257=LINE('',#1766,#420);
#258=LINE('',#1767,#421);
#259=LINE('',#1769,#422);
#260=LINE('',#1773,#423);
#261=LINE('',#1774,#424);
#262=LINE('',#1775,#425);
#263=LINE('',#1778,#426);
#264=LINE('',#1780,#427);
#265=LINE('',#1781,#428);
#266=LINE('',#1783,#429);
#267=LINE('',#1787,#430);
#268=LINE('',#1789,#431);
#269=LINE('',#1791,#432);
#270=LINE('',#1792,#433);
#271=LINE('',#1795,#434);
#272=LINE('',#1797,#435);
#273=LINE('',#1798,#436);
#274=LINE('',#1801,#437);
#275=LINE('',#1803,#438);
#276=LINE('',#1804,#439);
#277=LINE('',#1806,#440);
#278=LINE('',#1807,#441);
#279=LINE('',#1809,#442);
#280=LINE('',#1810,#443);
#281=LINE('',#1815,#444);
#282=LINE('',#1816,#445);
#283=LINE('',#1819,#446);
#284=LINE('',#1820,#447);
#285=LINE('',#1822,#448);
#286=LINE('',#1824,#449);
#287=LINE('',#1827,#450);
#288=LINE('',#1828,#451);
#289=LINE('',#1831,#452);
#290=LINE('',#1832,#453);
#291=LINE('',#1834,#454);
#292=VECTOR('',#1238,10.);
#293=VECTOR('',#1239,10.);
#294=VECTOR('',#1240,10.);
#295=VECTOR('',#1241,10.);
#296=VECTOR('',#1244,10.);
#297=VECTOR('',#1245,10.);
#298=VECTOR('',#1246,10.);
#299=VECTOR('',#1247,10.);
#300=VECTOR('',#1248,10.);
#301=VECTOR('',#1249,10.);
#302=VECTOR('',#1250,10.);
#303=VECTOR('',#1251,10.);
#304=VECTOR('',#1252,10.);
#305=VECTOR('',#1253,10.);
#306=VECTOR('',#1254,10.);
#307=VECTOR('',#1255,10.);
#308=VECTOR('',#1258,10.);
#309=VECTOR('',#1259,10.);
#310=VECTOR('',#1260,10.);
#311=VECTOR('',#1261,10.);
#312=VECTOR('',#1262,10.);
#313=VECTOR('',#1263,10.);
#314=VECTOR('',#1264,10.);
#315=VECTOR('',#1265,10.);
#316=VECTOR('',#1266,10.);
#317=VECTOR('',#1267,10.);
#318=VECTOR('',#1268,10.);
#319=VECTOR('',#1271,10.);
#320=VECTOR('',#1272,10.);
#321=VECTOR('',#1273,10.);
#322=VECTOR('',#1274,10.);
#323=VECTOR('',#1275,10.);
#324=VECTOR('',#1276,10.);
#325=VECTOR('',#1279,10.);
#326=VECTOR('',#1280,10.);
#327=VECTOR('',#1281,10.);
#328=VECTOR('',#1282,10.);
#329=VECTOR('',#1283,10.);
#330=VECTOR('',#1286,10.);
#331=VECTOR('',#1287,10.);
#332=VECTOR('',#1288,10.);
#333=VECTOR('',#1289,10.);
#334=VECTOR('',#1290,10.);
#335=VECTOR('',#1291,10.);
#336=VECTOR('',#1292,10.);
#337=VECTOR('',#1293,10.);
#338=VECTOR('',#1294,10.);
#339=VECTOR('',#1295,10.);
#340=VECTOR('',#1296,10.);
#341=VECTOR('',#1297,10.);
#342=VECTOR('',#1298,10.);
#343=VECTOR('',#1299,10.);
#344=VECTOR('',#1300,10.);
#345=VECTOR('',#1301,10.);
#346=VECTOR('',#1302,10.);
#347=VECTOR('',#1303,10.);
#348=VECTOR('',#1306,10.);
#349=VECTOR('',#1307,10.);
#350=VECTOR('',#1308,10.);
#351=VECTOR('',#1309,10.);
#352=VECTOR('',#1310,10.);
#353=VECTOR('',#1313,10.);
#354=VECTOR('',#1314,10.);
#355=VECTOR('',#1315,10.);
#356=VECTOR('',#1316,10.);
#357=VECTOR('',#1319,10.);
#358=VECTOR('',#1320,10.);
#359=VECTOR('',#1321,10.);
#360=VECTOR('',#1322,10.);
#361=VECTOR('',#1323,10.);
#362=VECTOR('',#1326,10.);
#363=VECTOR('',#1327,10.);
#364=VECTOR('',#1330,10.);
#365=VECTOR('',#1331,10.);
#366=VECTOR('',#1332,10.);
#367=VECTOR('',#1335,10.);
#368=VECTOR('',#1336,10.);
#369=VECTOR('',#1337,10.);
#370=VECTOR('',#1340,10.);
#371=VECTOR('',#1341,10.);
#372=VECTOR('',#1342,10.);
#373=VECTOR('',#1343,10.);
#374=VECTOR('',#1346,10.);
#375=VECTOR('',#1347,10.);
#376=VECTOR('',#1348,10.);
#377=VECTOR('',#1349,10.);
#378=VECTOR('',#1352,10.);
#379=VECTOR('',#1353,10.);
#380=VECTOR('',#1354,10.);
#381=VECTOR('',#1357,10.);
#382=VECTOR('',#1358,10.);
#383=VECTOR('',#1359,10.);
#384=VECTOR('',#1362,10.);
#385=VECTOR('',#1365,10.);
#386=VECTOR('',#1366,10.);
#387=VECTOR('',#1367,10.);
#388=VECTOR('',#1370,10.);
#389=VECTOR('',#1373,10.);
#390=VECTOR('',#1374,10.);
#391=VECTOR('',#1375,10.);
#392=VECTOR('',#1378,10.);
#393=VECTOR('',#1379,10.);
#394=VECTOR('',#1380,10.);
#395=VECTOR('',#1383,10.);
#396=VECTOR('',#1384,10.);
#397=VECTOR('',#1385,10.);
#398=VECTOR('',#1386,10.);
#399=VECTOR('',#1387,10.);
#400=VECTOR('',#1390,10.);
#401=VECTOR('',#1391,10.);
#402=VECTOR('',#1392,10.);
#403=VECTOR('',#1395,10.);
#404=VECTOR('',#1396,10.);
#405=VECTOR('',#1397,10.);
#406=VECTOR('',#1400,10.);
#407=VECTOR('',#1401,10.);
#408=VECTOR('',#1402,10.);
#409=VECTOR('',#1405,10.);
#410=VECTOR('',#1406,10.);
#411=VECTOR('',#1409,10.);
#412=VECTOR('',#1414,10.);
#413=VECTOR('',#1419,10.);
#414=VECTOR('',#1420,10.);
#415=VECTOR('',#1423,10.);
#416=VECTOR('',#1424,10.);
#417=VECTOR('',#1425,10.);
#418=VECTOR('',#1428,10.);
#419=VECTOR('',#1429,10.);
#420=VECTOR('',#1432,10.);
#421=VECTOR('',#1433,10.);
#422=VECTOR('',#1436,10.);
#423=VECTOR('',#1439,10.);
#424=VECTOR('',#1440,10.);
#425=VECTOR('',#1441,10.);
#426=VECTOR('',#1444,10.);
#427=VECTOR('',#1445,10.);
#428=VECTOR('',#1446,10.);
#429=VECTOR('',#1449,10.);
#430=VECTOR('',#1452,10.);
#431=VECTOR('',#1453,10.);
#432=VECTOR('',#1454,10.);
#433=VECTOR('',#1455,10.);
#434=VECTOR('',#1458,10.);
#435=VECTOR('',#1459,10.);
#436=VECTOR('',#1460,10.);
#437=VECTOR('',#1463,10.);
#438=VECTOR('',#1464,10.);
#439=VECTOR('',#1465,10.);
#440=VECTOR('',#1468,10.);
#441=VECTOR('',#1469,10.);
#442=VECTOR('',#1472,10.);
#443=VECTOR('',#1473,10.);
#444=VECTOR('',#1480,10.);
#445=VECTOR('',#1481,10.);
#446=VECTOR('',#1484,10.);
#447=VECTOR('',#1485,10.);
#448=VECTOR('',#1488,10.);
#449=VECTOR('',#1491,10.);
#450=VECTOR('',#1494,10.);
#451=VECTOR('',#1495,10.);
#452=VECTOR('',#1498,10.);
#453=VECTOR('',#1499,10.);
#454=VECTOR('',#1502,10.);
#455=VERTEX_POINT('',#1513);
#456=VERTEX_POINT('',#1514);
#457=VERTEX_POINT('',#1516);
#458=VERTEX_POINT('',#1518);
#459=VERTEX_POINT('',#1522);
#460=VERTEX_POINT('',#1524);
#461=VERTEX_POINT('',#1526);
#462=VERTEX_POINT('',#1528);
#463=VERTEX_POINT('',#1530);
#464=VERTEX_POINT('',#1532);
#465=VERTEX_POINT('',#1534);
#466=VERTEX_POINT('',#1536);
#467=VERTEX_POINT('',#1538);
#468=VERTEX_POINT('',#1540);
#469=VERTEX_POINT('',#1542);
#470=VERTEX_POINT('',#1546);
#471=VERTEX_POINT('',#1548);
#472=VERTEX_POINT('',#1550);
#473=VERTEX_POINT('',#1552);
#474=VERTEX_POINT('',#1554);
#475=VERTEX_POINT('',#1556);
#476=VERTEX_POINT('',#1559);
#477=VERTEX_POINT('',#1560);
#478=VERTEX_POINT('',#1562);
#479=VERTEX_POINT('',#1564);
#480=VERTEX_POINT('',#1568);
#481=VERTEX_POINT('',#1570);
#482=VERTEX_POINT('',#1572);
#483=VERTEX_POINT('',#1574);
#484=VERTEX_POINT('',#1576);
#485=VERTEX_POINT('',#1580);
#486=VERTEX_POINT('',#1581);
#487=VERTEX_POINT('',#1583);
#488=VERTEX_POINT('',#1585);
#489=VERTEX_POINT('',#1587);
#490=VERTEX_POINT('',#1591);
#491=VERTEX_POINT('',#1593);
#492=VERTEX_POINT('',#1595);
#493=VERTEX_POINT('',#1597);
#494=VERTEX_POINT('',#1599);
#495=VERTEX_POINT('',#1601);
#496=VERTEX_POINT('',#1603);
#497=VERTEX_POINT('',#1605);
#498=VERTEX_POINT('',#1607);
#499=VERTEX_POINT('',#1609);
#500=VERTEX_POINT('',#1611);
#501=VERTEX_POINT('',#1613);
#502=VERTEX_POINT('',#1617);
#503=VERTEX_POINT('',#1619);
#504=VERTEX_POINT('',#1621);
#505=VERTEX_POINT('',#1625);
#506=VERTEX_POINT('',#1627);
#507=VERTEX_POINT('',#1629);
#508=VERTEX_POINT('',#1631);
#509=VERTEX_POINT('',#1635);
#510=VERTEX_POINT('',#1638);
#511=VERTEX_POINT('',#1642);
#512=VERTEX_POINT('',#1644);
#513=VERTEX_POINT('',#1646);
#514=VERTEX_POINT('',#1648);
#515=VERTEX_POINT('',#1652);
#516=VERTEX_POINT('',#1656);
#517=VERTEX_POINT('',#1658);
#518=VERTEX_POINT('',#1662);
#519=VERTEX_POINT('',#1667);
#520=VERTEX_POINT('',#1668);
#521=VERTEX_POINT('',#1674);
#522=VERTEX_POINT('',#1676);
#523=VERTEX_POINT('',#1678);
#524=VERTEX_POINT('',#1682);
#525=VERTEX_POINT('',#1684);
#526=VERTEX_POINT('',#1688);
#527=VERTEX_POINT('',#1690);
#528=VERTEX_POINT('',#1697);
#529=VERTEX_POINT('',#1703);
#530=VERTEX_POINT('',#1708);
#531=VERTEX_POINT('',#1710);
#532=VERTEX_POINT('',#1714);
#533=VERTEX_POINT('',#1716);
#534=VERTEX_POINT('',#1718);
#535=VERTEX_POINT('',#1720);
#536=VERTEX_POINT('',#1724);
#537=VERTEX_POINT('',#1726);
#538=VERTEX_POINT('',#1730);
#539=VERTEX_POINT('',#1732);
#540=VERTEX_POINT('',#1736);
#541=VERTEX_POINT('',#1738);
#542=VERTEX_POINT('',#1751);
#543=VERTEX_POINT('',#1755);
#544=VERTEX_POINT('',#1757);
#545=VERTEX_POINT('',#1761);
#546=VERTEX_POINT('',#1765);
#547=VERTEX_POINT('',#1771);
#548=VERTEX_POINT('',#1772);
#549=VERTEX_POINT('',#1777);
#550=VERTEX_POINT('',#1779);
#551=VERTEX_POINT('',#1785);
#552=VERTEX_POINT('',#1786);
#553=VERTEX_POINT('',#1788);
#554=VERTEX_POINT('',#1790);
#555=VERTEX_POINT('',#1794);
#556=VERTEX_POINT('',#1796);
#557=VERTEX_POINT('',#1800);
#558=VERTEX_POINT('',#1802);
#559=VERTEX_POINT('',#1814);
#560=VERTEX_POINT('',#1818);
#561=VERTEX_POINT('',#1826);
#562=VERTEX_POINT('',#1830);
#563=EDGE_CURVE('',#455,#456,#129,.T.);
#564=EDGE_CURVE('',#455,#457,#130,.T.);
#565=EDGE_CURVE('',#458,#457,#131,.T.);
#566=EDGE_CURVE('',#456,#458,#132,.T.);
#567=EDGE_CURVE('',#459,#458,#133,.T.);
#568=EDGE_CURVE('',#459,#460,#134,.T.);
#569=EDGE_CURVE('',#461,#460,#135,.T.);
#570=EDGE_CURVE('',#462,#461,#136,.T.);
#571=EDGE_CURVE('',#463,#462,#137,.T.);
#572=EDGE_CURVE('',#464,#463,#138,.T.);
#573=EDGE_CURVE('',#465,#464,#139,.T.);
#574=EDGE_CURVE('',#466,#465,#140,.T.);
#575=EDGE_CURVE('',#466,#467,#141,.T.);
#576=EDGE_CURVE('',#467,#468,#142,.T.);
#577=EDGE_CURVE('',#468,#469,#143,.T.);
#578=EDGE_CURVE('',#469,#456,#144,.T.);
#579=EDGE_CURVE('',#470,#462,#145,.T.);
#580=EDGE_CURVE('',#471,#470,#146,.T.);
#581=EDGE_CURVE('',#471,#472,#147,.T.);
#582=EDGE_CURVE('',#472,#473,#148,.T.);
#583=EDGE_CURVE('',#473,#474,#149,.T.);
#584=EDGE_CURVE('',#474,#475,#150,.T.);
#585=EDGE_CURVE('',#475,#465,#151,.T.);
#586=EDGE_CURVE('',#476,#477,#152,.T.);
#587=EDGE_CURVE('',#477,#478,#153,.T.);
#588=EDGE_CURVE('',#478,#479,#154,.T.);
#589=EDGE_CURVE('',#479,#476,#155,.T.);
#590=EDGE_CURVE('',#457,#480,#156,.T.);
#591=EDGE_CURVE('',#481,#480,#157,.T.);
#592=EDGE_CURVE('',#482,#481,#158,.T.);
#593=EDGE_CURVE('',#482,#483,#159,.T.);
#594=EDGE_CURVE('',#484,#483,#160,.T.);
#595=EDGE_CURVE('',#459,#484,#161,.T.);
#596=EDGE_CURVE('',#485,#486,#162,.T.);
#597=EDGE_CURVE('',#487,#486,#163,.T.);
#598=EDGE_CURVE('',#488,#487,#164,.T.);
#599=EDGE_CURVE('',#488,#489,#165,.T.);
#600=EDGE_CURVE('',#489,#485,#166,.T.);
#601=EDGE_CURVE('',#484,#490,#167,.T.);
#602=EDGE_CURVE('',#491,#490,#168,.T.);
#603=EDGE_CURVE('',#491,#492,#169,.T.);
#604=EDGE_CURVE('',#493,#492,#170,.T.);
#605=EDGE_CURVE('',#493,#494,#171,.T.);
#606=EDGE_CURVE('',#494,#495,#172,.T.);
#607=EDGE_CURVE('',#495,#496,#173,.T.);
#608=EDGE_CURVE('',#496,#497,#174,.T.);
#609=EDGE_CURVE('',#497,#498,#175,.T.);
#610=EDGE_CURVE('',#499,#498,#176,.T.);
#611=EDGE_CURVE('',#499,#500,#177,.T.);
#612=EDGE_CURVE('',#501,#500,#178,.T.);
#613=EDGE_CURVE('',#501,#481,#179,.T.);
#614=EDGE_CURVE('',#480,#485,#180,.T.);
#615=EDGE_CURVE('',#489,#502,#181,.T.);
#616=EDGE_CURVE('',#502,#503,#182,.T.);
#617=EDGE_CURVE('',#503,#504,#183,.T.);
#618=EDGE_CURVE('',#460,#504,#184,.T.);
#619=EDGE_CURVE('',#483,#505,#185,.T.);
#620=EDGE_CURVE('',#505,#506,#186,.T.);
#621=EDGE_CURVE('',#507,#506,#187,.T.);
#622=EDGE_CURVE('',#508,#507,#188,.T.);
#623=EDGE_CURVE('',#490,#508,#189,.T.);
#624=EDGE_CURVE('',#509,#493,#190,.T.);
#625=EDGE_CURVE('',#508,#509,#191,.T.);
#626=EDGE_CURVE('',#510,#507,#192,.T.);
#627=EDGE_CURVE('',#494,#510,#193,.T.);
#628=EDGE_CURVE('',#511,#501,#194,.T.);
#629=EDGE_CURVE('',#511,#512,#195,.T.);
#630=EDGE_CURVE('',#513,#512,#196,.T.);
#631=EDGE_CURVE('',#514,#513,#197,.T.);
#632=EDGE_CURVE('',#514,#482,#198,.T.);
#633=EDGE_CURVE('',#515,#510,#199,.T.);
#634=EDGE_CURVE('',#495,#515,#200,.T.);
#635=EDGE_CURVE('',#496,#516,#201,.T.);
#636=EDGE_CURVE('',#517,#516,#202,.T.);
#637=EDGE_CURVE('',#497,#517,#203,.T.);
#638=EDGE_CURVE('',#498,#518,#204,.T.);
#639=EDGE_CURVE('',#512,#517,#205,.T.);
#640=EDGE_CURVE('',#518,#511,#206,.T.);
#641=EDGE_CURVE('',#519,#520,#207,.T.);
#642=EDGE_CURVE('',#519,#469,#208,.T.);
#643=EDGE_CURVE('',#505,#468,#209,.T.);
#644=EDGE_CURVE('',#520,#514,#210,.T.);
#645=EDGE_CURVE('',#492,#521,#211,.T.);
#646=EDGE_CURVE('',#521,#522,#212,.T.);
#647=EDGE_CURVE('',#522,#523,#213,.T.);
#648=EDGE_CURVE('',#523,#509,#214,.T.);
#649=EDGE_CURVE('',#524,#511,#215,.T.);
#650=EDGE_CURVE('',#524,#525,#216,.T.);
#651=EDGE_CURVE('',#518,#525,#217,.T.);
#652=EDGE_CURVE('',#500,#526,#218,.T.);
#653=EDGE_CURVE('',#526,#527,#219,.T.);
#654=EDGE_CURVE('',#527,#524,#220,.T.);
#655=EDGE_CURVE('',#455,#519,#221,.T.);
#656=EDGE_CURVE('',#506,#513,#222,.T.);
#657=EDGE_CURVE('',#528,#467,#223,.T.);
#658=EDGE_CURVE('',#520,#528,#224,.T.);
#659=EDGE_CURVE('',#516,#515,#225,.T.);
#660=EDGE_CURVE('',#529,#528,#226,.T.);
#661=EDGE_CURVE('',#473,#529,#227,.T.);
#662=EDGE_CURVE('',#486,#470,#228,.T.);
#663=EDGE_CURVE('',#530,#504,#229,.T.);
#664=EDGE_CURVE('',#531,#530,#230,.T.);
#665=EDGE_CURVE('',#461,#531,#231,.T.);
#666=EDGE_CURVE('',#466,#532,#232,.T.);
#667=EDGE_CURVE('',#533,#532,#233,.T.);
#668=EDGE_CURVE('',#534,#533,#234,.T.);
#669=EDGE_CURVE('',#535,#534,#235,.T.);
#670=EDGE_CURVE('',#535,#529,#236,.T.);
#671=EDGE_CURVE('',#531,#536,#237,.T.);
#672=EDGE_CURVE('',#536,#537,#238,.T.);
#673=EDGE_CURVE('',#537,#487,#239,.T.);
#674=EDGE_CURVE('',#538,#488,#240,.T.);
#675=EDGE_CURVE('',#537,#539,#241,.T.);
#676=EDGE_CURVE('',#539,#538,#242,.T.);
#677=EDGE_CURVE('',#540,#536,#243,.T.);
#678=EDGE_CURVE('',#530,#541,#244,.T.);
#679=EDGE_CURVE('',#540,#541,#245,.T.);
#680=EDGE_CURVE('',#541,#538,#246,.T.);
#681=EDGE_CURVE('',#539,#540,#247,.T.);
#682=EDGE_CURVE('',#503,#541,#248,.T.);
#683=EDGE_CURVE('',#502,#538,#249,.T.);
#684=EDGE_CURVE('',#542,#523,#250,.T.);
#685=EDGE_CURVE('',#542,#508,#251,.T.);
#686=EDGE_CURVE('',#543,#465,#252,.T.);
#687=EDGE_CURVE('',#544,#543,#253,.T.);
#688=EDGE_CURVE('',#532,#544,#254,.T.);
#689=EDGE_CURVE('',#545,#544,#255,.T.);
#690=EDGE_CURVE('',#545,#533,#256,.T.);
#691=EDGE_CURVE('',#543,#546,#257,.T.);
#692=EDGE_CURVE('',#546,#545,#258,.T.);
#693=EDGE_CURVE('',#546,#475,#259,.T.);
#694=EDGE_CURVE('',#547,#548,#260,.T.);
#695=EDGE_CURVE('',#473,#547,#261,.T.);
#696=EDGE_CURVE('',#548,#535,#262,.T.);
#697=EDGE_CURVE('',#549,#548,#263,.T.);
#698=EDGE_CURVE('',#550,#549,#264,.T.);
#699=EDGE_CURVE('',#547,#550,#265,.T.);
#700=EDGE_CURVE('',#549,#534,#266,.T.);
#701=EDGE_CURVE('',#551,#552,#267,.T.);
#702=EDGE_CURVE('',#553,#552,#268,.T.);
#703=EDGE_CURVE('',#554,#553,#269,.T.);
#704=EDGE_CURVE('',#551,#554,#270,.T.);
#705=EDGE_CURVE('',#555,#551,#271,.T.);
#706=EDGE_CURVE('',#556,#554,#272,.T.);
#707=EDGE_CURVE('',#555,#556,#273,.T.);
#708=EDGE_CURVE('',#479,#557,#274,.T.);
#709=EDGE_CURVE('',#557,#558,#275,.T.);
#710=EDGE_CURVE('',#558,#476,#276,.T.);
#711=EDGE_CURVE('',#478,#552,#277,.T.);
#712=EDGE_CURVE('',#555,#557,#278,.T.);
#713=EDGE_CURVE('',#556,#558,#279,.T.);
#714=EDGE_CURVE('',#553,#477,#280,.T.);
#715=EDGE_CURVE('',#491,#559,#281,.T.);
#716=EDGE_CURVE('',#559,#521,#282,.T.);
#717=EDGE_CURVE('',#560,#542,#283,.T.);
#718=EDGE_CURVE('',#560,#522,#284,.T.);
#719=EDGE_CURVE('',#559,#560,#285,.T.);
#720=EDGE_CURVE('',#550,#474,#286,.T.);
#721=EDGE_CURVE('',#561,#499,#287,.T.);
#722=EDGE_CURVE('',#526,#561,#288,.T.);
#723=EDGE_CURVE('',#525,#562,#289,.T.);
#724=EDGE_CURVE('',#562,#561,#290,.T.);
#725=EDGE_CURVE('',#527,#562,#291,.T.);
#726=ORIENTED_EDGE('',*,*,#563,.F.);
#727=ORIENTED_EDGE('',*,*,#564,.T.);
#728=ORIENTED_EDGE('',*,*,#565,.F.);
#729=ORIENTED_EDGE('',*,*,#566,.F.);
#730=ORIENTED_EDGE('',*,*,#566,.T.);
#731=ORIENTED_EDGE('',*,*,#567,.F.);
#732=ORIENTED_EDGE('',*,*,#568,.T.);
#733=ORIENTED_EDGE('',*,*,#569,.F.);
#734=ORIENTED_EDGE('',*,*,#570,.F.);
#735=ORIENTED_EDGE('',*,*,#571,.F.);
#736=ORIENTED_EDGE('',*,*,#572,.F.);
#737=ORIENTED_EDGE('',*,*,#573,.F.);
#738=ORIENTED_EDGE('',*,*,#574,.F.);
#739=ORIENTED_EDGE('',*,*,#575,.T.);
#740=ORIENTED_EDGE('',*,*,#576,.T.);
#741=ORIENTED_EDGE('',*,*,#577,.T.);
#742=ORIENTED_EDGE('',*,*,#578,.T.);
#743=ORIENTED_EDGE('',*,*,#572,.T.);
#744=ORIENTED_EDGE('',*,*,#571,.T.);
#745=ORIENTED_EDGE('',*,*,#579,.F.);
#746=ORIENTED_EDGE('',*,*,#580,.F.);
#747=ORIENTED_EDGE('',*,*,#581,.T.);
#748=ORIENTED_EDGE('',*,*,#582,.T.);
#749=ORIENTED_EDGE('',*,*,#583,.T.);
#750=ORIENTED_EDGE('',*,*,#584,.T.);
#751=ORIENTED_EDGE('',*,*,#585,.T.);
#752=ORIENTED_EDGE('',*,*,#573,.T.);
#753=ORIENTED_EDGE('',*,*,#586,.T.);
#754=ORIENTED_EDGE('',*,*,#587,.T.);
#755=ORIENTED_EDGE('',*,*,#588,.T.);
#756=ORIENTED_EDGE('',*,*,#589,.T.);
#757=ORIENTED_EDGE('',*,*,#567,.T.);
#758=ORIENTED_EDGE('',*,*,#565,.T.);
#759=ORIENTED_EDGE('',*,*,#590,.T.);
#760=ORIENTED_EDGE('',*,*,#591,.F.);
#761=ORIENTED_EDGE('',*,*,#592,.F.);
#762=ORIENTED_EDGE('',*,*,#593,.T.);
#763=ORIENTED_EDGE('',*,*,#594,.F.);
#764=ORIENTED_EDGE('',*,*,#595,.F.);
#765=ORIENTED_EDGE('',*,*,#596,.T.);
#766=ORIENTED_EDGE('',*,*,#597,.F.);
#767=ORIENTED_EDGE('',*,*,#598,.F.);
#768=ORIENTED_EDGE('',*,*,#599,.T.);
#769=ORIENTED_EDGE('',*,*,#600,.T.);
#770=ORIENTED_EDGE('',*,*,#568,.F.);
#771=ORIENTED_EDGE('',*,*,#595,.T.);
#772=ORIENTED_EDGE('',*,*,#601,.T.);
#773=ORIENTED_EDGE('',*,*,#602,.F.);
#774=ORIENTED_EDGE('',*,*,#603,.T.);
#775=ORIENTED_EDGE('',*,*,#604,.F.);
#776=ORIENTED_EDGE('',*,*,#605,.T.);
#777=ORIENTED_EDGE('',*,*,#606,.T.);
#778=ORIENTED_EDGE('',*,*,#607,.T.);
#779=ORIENTED_EDGE('',*,*,#608,.T.);
#780=ORIENTED_EDGE('',*,*,#609,.T.);
#781=ORIENTED_EDGE('',*,*,#610,.F.);
#782=ORIENTED_EDGE('',*,*,#611,.T.);
#783=ORIENTED_EDGE('',*,*,#612,.F.);
#784=ORIENTED_EDGE('',*,*,#613,.T.);
#785=ORIENTED_EDGE('',*,*,#591,.T.);
#786=ORIENTED_EDGE('',*,*,#614,.T.);
#787=ORIENTED_EDGE('',*,*,#600,.F.);
#788=ORIENTED_EDGE('',*,*,#615,.T.);
#789=ORIENTED_EDGE('',*,*,#616,.T.);
#790=ORIENTED_EDGE('',*,*,#617,.T.);
#791=ORIENTED_EDGE('',*,*,#618,.F.);
#792=ORIENTED_EDGE('',*,*,#594,.T.);
#793=ORIENTED_EDGE('',*,*,#619,.T.);
#794=ORIENTED_EDGE('',*,*,#620,.T.);
#795=ORIENTED_EDGE('',*,*,#621,.F.);
#796=ORIENTED_EDGE('',*,*,#622,.F.);
#797=ORIENTED_EDGE('',*,*,#623,.F.);
#798=ORIENTED_EDGE('',*,*,#601,.F.);
#799=ORIENTED_EDGE('',*,*,#624,.F.);
#800=ORIENTED_EDGE('',*,*,#625,.F.);
#801=ORIENTED_EDGE('',*,*,#622,.T.);
#802=ORIENTED_EDGE('',*,*,#626,.F.);
#803=ORIENTED_EDGE('',*,*,#627,.F.);
#804=ORIENTED_EDGE('',*,*,#605,.F.);
#805=ORIENTED_EDGE('',*,*,#592,.T.);
#806=ORIENTED_EDGE('',*,*,#613,.F.);
#807=ORIENTED_EDGE('',*,*,#628,.F.);
#808=ORIENTED_EDGE('',*,*,#629,.T.);
#809=ORIENTED_EDGE('',*,*,#630,.F.);
#810=ORIENTED_EDGE('',*,*,#631,.F.);
#811=ORIENTED_EDGE('',*,*,#632,.T.);
#812=ORIENTED_EDGE('',*,*,#606,.F.);
#813=ORIENTED_EDGE('',*,*,#627,.T.);
#814=ORIENTED_EDGE('',*,*,#633,.F.);
#815=ORIENTED_EDGE('',*,*,#634,.F.);
#816=ORIENTED_EDGE('',*,*,#608,.F.);
#817=ORIENTED_EDGE('',*,*,#635,.T.);
#818=ORIENTED_EDGE('',*,*,#636,.F.);
#819=ORIENTED_EDGE('',*,*,#637,.F.);
#820=ORIENTED_EDGE('',*,*,#638,.F.);
#821=ORIENTED_EDGE('',*,*,#609,.F.);
#822=ORIENTED_EDGE('',*,*,#637,.T.);
#823=ORIENTED_EDGE('',*,*,#639,.F.);
#824=ORIENTED_EDGE('',*,*,#629,.F.);
#825=ORIENTED_EDGE('',*,*,#640,.F.);
#826=ORIENTED_EDGE('',*,*,#641,.F.);
#827=ORIENTED_EDGE('',*,*,#642,.T.);
#828=ORIENTED_EDGE('',*,*,#577,.F.);
#829=ORIENTED_EDGE('',*,*,#643,.F.);
#830=ORIENTED_EDGE('',*,*,#619,.F.);
#831=ORIENTED_EDGE('',*,*,#593,.F.);
#832=ORIENTED_EDGE('',*,*,#632,.F.);
#833=ORIENTED_EDGE('',*,*,#644,.F.);
#834=ORIENTED_EDGE('',*,*,#624,.T.);
#835=ORIENTED_EDGE('',*,*,#604,.T.);
#836=ORIENTED_EDGE('',*,*,#645,.T.);
#837=ORIENTED_EDGE('',*,*,#646,.T.);
#838=ORIENTED_EDGE('',*,*,#647,.T.);
#839=ORIENTED_EDGE('',*,*,#648,.T.);
#840=ORIENTED_EDGE('',*,*,#640,.T.);
#841=ORIENTED_EDGE('',*,*,#649,.F.);
#842=ORIENTED_EDGE('',*,*,#650,.T.);
#843=ORIENTED_EDGE('',*,*,#651,.F.);
#844=ORIENTED_EDGE('',*,*,#628,.T.);
#845=ORIENTED_EDGE('',*,*,#612,.T.);
#846=ORIENTED_EDGE('',*,*,#652,.T.);
#847=ORIENTED_EDGE('',*,*,#653,.T.);
#848=ORIENTED_EDGE('',*,*,#654,.T.);
#849=ORIENTED_EDGE('',*,*,#649,.T.);
#850=ORIENTED_EDGE('',*,*,#563,.T.);
#851=ORIENTED_EDGE('',*,*,#578,.F.);
#852=ORIENTED_EDGE('',*,*,#642,.F.);
#853=ORIENTED_EDGE('',*,*,#655,.F.);
#854=ORIENTED_EDGE('',*,*,#644,.T.);
#855=ORIENTED_EDGE('',*,*,#631,.T.);
#856=ORIENTED_EDGE('',*,*,#656,.F.);
#857=ORIENTED_EDGE('',*,*,#620,.F.);
#858=ORIENTED_EDGE('',*,*,#643,.T.);
#859=ORIENTED_EDGE('',*,*,#576,.F.);
#860=ORIENTED_EDGE('',*,*,#657,.F.);
#861=ORIENTED_EDGE('',*,*,#658,.F.);
#862=ORIENTED_EDGE('',*,*,#607,.F.);
#863=ORIENTED_EDGE('',*,*,#634,.T.);
#864=ORIENTED_EDGE('',*,*,#659,.F.);
#865=ORIENTED_EDGE('',*,*,#635,.F.);
#866=ORIENTED_EDGE('',*,*,#655,.T.);
#867=ORIENTED_EDGE('',*,*,#641,.T.);
#868=ORIENTED_EDGE('',*,*,#658,.T.);
#869=ORIENTED_EDGE('',*,*,#660,.F.);
#870=ORIENTED_EDGE('',*,*,#661,.F.);
#871=ORIENTED_EDGE('',*,*,#582,.F.);
#872=ORIENTED_EDGE('',*,*,#581,.F.);
#873=ORIENTED_EDGE('',*,*,#580,.T.);
#874=ORIENTED_EDGE('',*,*,#662,.F.);
#875=ORIENTED_EDGE('',*,*,#596,.F.);
#876=ORIENTED_EDGE('',*,*,#614,.F.);
#877=ORIENTED_EDGE('',*,*,#590,.F.);
#878=ORIENTED_EDGE('',*,*,#564,.F.);
#879=ORIENTED_EDGE('',*,*,#569,.T.);
#880=ORIENTED_EDGE('',*,*,#618,.T.);
#881=ORIENTED_EDGE('',*,*,#663,.F.);
#882=ORIENTED_EDGE('',*,*,#664,.F.);
#883=ORIENTED_EDGE('',*,*,#665,.F.);
#884=ORIENTED_EDGE('',*,*,#657,.T.);
#885=ORIENTED_EDGE('',*,*,#575,.F.);
#886=ORIENTED_EDGE('',*,*,#666,.T.);
#887=ORIENTED_EDGE('',*,*,#667,.F.);
#888=ORIENTED_EDGE('',*,*,#668,.F.);
#889=ORIENTED_EDGE('',*,*,#669,.F.);
#890=ORIENTED_EDGE('',*,*,#670,.T.);
#891=ORIENTED_EDGE('',*,*,#660,.T.);
#892=ORIENTED_EDGE('',*,*,#570,.T.);
#893=ORIENTED_EDGE('',*,*,#665,.T.);
#894=ORIENTED_EDGE('',*,*,#671,.T.);
#895=ORIENTED_EDGE('',*,*,#672,.T.);
#896=ORIENTED_EDGE('',*,*,#673,.T.);
#897=ORIENTED_EDGE('',*,*,#597,.T.);
#898=ORIENTED_EDGE('',*,*,#662,.T.);
#899=ORIENTED_EDGE('',*,*,#579,.T.);
#900=ORIENTED_EDGE('',*,*,#674,.T.);
#901=ORIENTED_EDGE('',*,*,#598,.T.);
#902=ORIENTED_EDGE('',*,*,#673,.F.);
#903=ORIENTED_EDGE('',*,*,#675,.T.);
#904=ORIENTED_EDGE('',*,*,#676,.T.);
#905=ORIENTED_EDGE('',*,*,#677,.T.);
#906=ORIENTED_EDGE('',*,*,#671,.F.);
#907=ORIENTED_EDGE('',*,*,#664,.T.);
#908=ORIENTED_EDGE('',*,*,#678,.T.);
#909=ORIENTED_EDGE('',*,*,#679,.F.);
#910=ORIENTED_EDGE('',*,*,#680,.T.);
#911=ORIENTED_EDGE('',*,*,#676,.F.);
#912=ORIENTED_EDGE('',*,*,#681,.T.);
#913=ORIENTED_EDGE('',*,*,#679,.T.);
#914=ORIENTED_EDGE('',*,*,#678,.F.);
#915=ORIENTED_EDGE('',*,*,#663,.T.);
#916=ORIENTED_EDGE('',*,*,#617,.F.);
#917=ORIENTED_EDGE('',*,*,#682,.T.);
#918=ORIENTED_EDGE('',*,*,#672,.F.);
#919=ORIENTED_EDGE('',*,*,#677,.F.);
#920=ORIENTED_EDGE('',*,*,#681,.F.);
#921=ORIENTED_EDGE('',*,*,#675,.F.);
#922=ORIENTED_EDGE('',*,*,#680,.F.);
#923=ORIENTED_EDGE('',*,*,#682,.F.);
#924=ORIENTED_EDGE('',*,*,#616,.F.);
#925=ORIENTED_EDGE('',*,*,#683,.T.);
#926=ORIENTED_EDGE('',*,*,#674,.F.);
#927=ORIENTED_EDGE('',*,*,#683,.F.);
#928=ORIENTED_EDGE('',*,*,#615,.F.);
#929=ORIENTED_EDGE('',*,*,#599,.F.);
#930=ORIENTED_EDGE('',*,*,#625,.T.);
#931=ORIENTED_EDGE('',*,*,#648,.F.);
#932=ORIENTED_EDGE('',*,*,#684,.F.);
#933=ORIENTED_EDGE('',*,*,#685,.T.);
#934=ORIENTED_EDGE('',*,*,#666,.F.);
#935=ORIENTED_EDGE('',*,*,#574,.T.);
#936=ORIENTED_EDGE('',*,*,#686,.F.);
#937=ORIENTED_EDGE('',*,*,#687,.F.);
#938=ORIENTED_EDGE('',*,*,#688,.F.);
#939=ORIENTED_EDGE('',*,*,#688,.T.);
#940=ORIENTED_EDGE('',*,*,#689,.F.);
#941=ORIENTED_EDGE('',*,*,#690,.T.);
#942=ORIENTED_EDGE('',*,*,#667,.T.);
#943=ORIENTED_EDGE('',*,*,#687,.T.);
#944=ORIENTED_EDGE('',*,*,#691,.T.);
#945=ORIENTED_EDGE('',*,*,#692,.T.);
#946=ORIENTED_EDGE('',*,*,#689,.T.);
#947=ORIENTED_EDGE('',*,*,#686,.T.);
#948=ORIENTED_EDGE('',*,*,#585,.F.);
#949=ORIENTED_EDGE('',*,*,#693,.F.);
#950=ORIENTED_EDGE('',*,*,#691,.F.);
#951=ORIENTED_EDGE('',*,*,#694,.F.);
#952=ORIENTED_EDGE('',*,*,#695,.F.);
#953=ORIENTED_EDGE('',*,*,#661,.T.);
#954=ORIENTED_EDGE('',*,*,#670,.F.);
#955=ORIENTED_EDGE('',*,*,#696,.F.);
#956=ORIENTED_EDGE('',*,*,#694,.T.);
#957=ORIENTED_EDGE('',*,*,#697,.F.);
#958=ORIENTED_EDGE('',*,*,#698,.F.);
#959=ORIENTED_EDGE('',*,*,#699,.F.);
#960=ORIENTED_EDGE('',*,*,#696,.T.);
#961=ORIENTED_EDGE('',*,*,#669,.T.);
#962=ORIENTED_EDGE('',*,*,#700,.F.);
#963=ORIENTED_EDGE('',*,*,#697,.T.);
#964=ORIENTED_EDGE('',*,*,#701,.T.);
#965=ORIENTED_EDGE('',*,*,#702,.F.);
#966=ORIENTED_EDGE('',*,*,#703,.F.);
#967=ORIENTED_EDGE('',*,*,#704,.F.);
#968=ORIENTED_EDGE('',*,*,#705,.T.);
#969=ORIENTED_EDGE('',*,*,#704,.T.);
#970=ORIENTED_EDGE('',*,*,#706,.F.);
#971=ORIENTED_EDGE('',*,*,#707,.F.);
#972=ORIENTED_EDGE('',*,*,#589,.F.);
#973=ORIENTED_EDGE('',*,*,#708,.T.);
#974=ORIENTED_EDGE('',*,*,#709,.T.);
#975=ORIENTED_EDGE('',*,*,#710,.T.);
#976=ORIENTED_EDGE('',*,*,#588,.F.);
#977=ORIENTED_EDGE('',*,*,#711,.T.);
#978=ORIENTED_EDGE('',*,*,#701,.F.);
#979=ORIENTED_EDGE('',*,*,#705,.F.);
#980=ORIENTED_EDGE('',*,*,#712,.T.);
#981=ORIENTED_EDGE('',*,*,#708,.F.);
#982=ORIENTED_EDGE('',*,*,#586,.F.);
#983=ORIENTED_EDGE('',*,*,#710,.F.);
#984=ORIENTED_EDGE('',*,*,#713,.F.);
#985=ORIENTED_EDGE('',*,*,#706,.T.);
#986=ORIENTED_EDGE('',*,*,#703,.T.);
#987=ORIENTED_EDGE('',*,*,#714,.T.);
#988=ORIENTED_EDGE('',*,*,#713,.T.);
#989=ORIENTED_EDGE('',*,*,#709,.F.);
#990=ORIENTED_EDGE('',*,*,#712,.F.);
#991=ORIENTED_EDGE('',*,*,#707,.T.);
#992=ORIENTED_EDGE('',*,*,#702,.T.);
#993=ORIENTED_EDGE('',*,*,#711,.F.);
#994=ORIENTED_EDGE('',*,*,#587,.F.);
#995=ORIENTED_EDGE('',*,*,#714,.F.);
#996=ORIENTED_EDGE('',*,*,#603,.F.);
#997=ORIENTED_EDGE('',*,*,#715,.T.);
#998=ORIENTED_EDGE('',*,*,#716,.T.);
#999=ORIENTED_EDGE('',*,*,#645,.F.);
#1000=ORIENTED_EDGE('',*,*,#717,.T.);
#1001=ORIENTED_EDGE('',*,*,#684,.T.);
#1002=ORIENTED_EDGE('',*,*,#647,.F.);
#1003=ORIENTED_EDGE('',*,*,#718,.F.);
#1004=ORIENTED_EDGE('',*,*,#719,.T.);
#1005=ORIENTED_EDGE('',*,*,#718,.T.);
#1006=ORIENTED_EDGE('',*,*,#646,.F.);
#1007=ORIENTED_EDGE('',*,*,#716,.F.);
#1008=ORIENTED_EDGE('',*,*,#690,.F.);
#1009=ORIENTED_EDGE('',*,*,#692,.F.);
#1010=ORIENTED_EDGE('',*,*,#693,.T.);
#1011=ORIENTED_EDGE('',*,*,#584,.F.);
#1012=ORIENTED_EDGE('',*,*,#720,.F.);
#1013=ORIENTED_EDGE('',*,*,#698,.T.);
#1014=ORIENTED_EDGE('',*,*,#700,.T.);
#1015=ORIENTED_EDGE('',*,*,#668,.T.);
#1016=ORIENTED_EDGE('',*,*,#611,.F.);
#1017=ORIENTED_EDGE('',*,*,#721,.F.);
#1018=ORIENTED_EDGE('',*,*,#722,.F.);
#1019=ORIENTED_EDGE('',*,*,#652,.F.);
#1020=ORIENTED_EDGE('',*,*,#638,.T.);
#1021=ORIENTED_EDGE('',*,*,#651,.T.);
#1022=ORIENTED_EDGE('',*,*,#723,.T.);
#1023=ORIENTED_EDGE('',*,*,#724,.T.);
#1024=ORIENTED_EDGE('',*,*,#721,.T.);
#1025=ORIENTED_EDGE('',*,*,#610,.T.);
#1026=ORIENTED_EDGE('',*,*,#653,.F.);
#1027=ORIENTED_EDGE('',*,*,#722,.T.);
#1028=ORIENTED_EDGE('',*,*,#724,.F.);
#1029=ORIENTED_EDGE('',*,*,#725,.F.);
#1030=ORIENTED_EDGE('',*,*,#654,.F.);
#1031=ORIENTED_EDGE('',*,*,#725,.T.);
#1032=ORIENTED_EDGE('',*,*,#723,.F.);
#1033=ORIENTED_EDGE('',*,*,#650,.F.);
#1034=ORIENTED_EDGE('',*,*,#695,.T.);
#1035=ORIENTED_EDGE('',*,*,#699,.T.);
#1036=ORIENTED_EDGE('',*,*,#720,.T.);
#1037=ORIENTED_EDGE('',*,*,#583,.F.);
#1038=ORIENTED_EDGE('',*,*,#656,.T.);
#1039=ORIENTED_EDGE('',*,*,#630,.T.);
#1040=ORIENTED_EDGE('',*,*,#639,.T.);
#1041=ORIENTED_EDGE('',*,*,#636,.T.);
#1042=ORIENTED_EDGE('',*,*,#659,.T.);
#1043=ORIENTED_EDGE('',*,*,#633,.T.);
#1044=ORIENTED_EDGE('',*,*,#626,.T.);
#1045=ORIENTED_EDGE('',*,*,#621,.T.);
#1046=ORIENTED_EDGE('',*,*,#623,.T.);
#1047=ORIENTED_EDGE('',*,*,#685,.F.);
#1048=ORIENTED_EDGE('',*,*,#717,.F.);
#1049=ORIENTED_EDGE('',*,*,#719,.F.);
#1050=ORIENTED_EDGE('',*,*,#715,.F.);
#1051=ORIENTED_EDGE('',*,*,#602,.T.);
#1052=PLANE('',#1178);
#1053=PLANE('',#1179);
#1054=PLANE('',#1180);
#1055=PLANE('',#1181);
#1056=PLANE('',#1182);
#1057=PLANE('',#1183);
#1058=PLANE('',#1184);
#1059=PLANE('',#1185);
#1060=PLANE('',#1186);
#1061=PLANE('',#1187);
#1062=PLANE('',#1188);
#1063=PLANE('',#1189);
#1064=PLANE('',#1190);
#1065=PLANE('',#1191);
#1066=PLANE('',#1192);
#1067=PLANE('',#1193);
#1068=PLANE('',#1194);
#1069=PLANE('',#1195);
#1070=PLANE('',#1196);
#1071=PLANE('',#1197);
#1072=PLANE('',#1198);
#1073=PLANE('',#1199);
#1074=PLANE('',#1200);
#1075=PLANE('',#1201);
#1076=PLANE('',#1202);
#1077=PLANE('',#1203);
#1078=PLANE('',#1204);
#1079=PLANE('',#1205);
#1080=PLANE('',#1206);
#1081=PLANE('',#1207);
#1082=PLANE('',#1208);
#1083=PLANE('',#1209);
#1084=PLANE('',#1210);
#1085=PLANE('',#1211);
#1086=PLANE('',#1212);
#1087=PLANE('',#1213);
#1088=PLANE('',#1214);
#1089=PLANE('',#1215);
#1090=PLANE('',#1216);
#1091=PLANE('',#1217);
#1092=PLANE('',#1218);
#1093=PLANE('',#1219);
#1094=PLANE('',#1220);
#1095=PLANE('',#1221);
#1096=PLANE('',#1222);
#1097=PLANE('',#1223);
#1098=PLANE('',#1224);
#1099=PLANE('',#1225);
#1100=PLANE('',#1226);
#1101=PLANE('',#1227);
#1102=PLANE('',#1228);
#1103=PLANE('',#1229);
#1104=PLANE('',#1230);
#1105=PLANE('',#1231);
#1106=PLANE('',#1232);
#1107=PLANE('',#1233);
#1108=ADVANCED_FACE('',(#16),#1052,.T.);
#1109=ADVANCED_FACE('',(#17),#1053,.T.);
#1110=ADVANCED_FACE('',(#18,#15),#1054,.F.);
#1111=ADVANCED_FACE('',(#19),#1055,.F.);
#1112=ADVANCED_FACE('',(#20),#1056,.T.);
#1113=ADVANCED_FACE('',(#21),#1057,.F.);
#1114=ADVANCED_FACE('',(#22),#1058,.T.);
#1115=ADVANCED_FACE('',(#23),#1059,.T.);
#1116=ADVANCED_FACE('',(#24),#1060,.T.);
#1117=ADVANCED_FACE('',(#25),#1061,.T.);
#1118=ADVANCED_FACE('',(#26),#1062,.T.);
#1119=ADVANCED_FACE('',(#27),#1063,.T.);
#1120=ADVANCED_FACE('',(#28),#1064,.F.);
#1121=ADVANCED_FACE('',(#29),#1065,.T.);
#1122=ADVANCED_FACE('',(#30),#1066,.T.);
#1123=ADVANCED_FACE('',(#31),#1067,.T.);
#1124=ADVANCED_FACE('',(#32),#1068,.F.);
#1125=ADVANCED_FACE('',(#33),#1069,.T.);
#1126=ADVANCED_FACE('',(#34),#1070,.T.);
#1127=ADVANCED_FACE('',(#35),#1071,.T.);
#1128=ADVANCED_FACE('',(#36),#1072,.T.);
#1129=ADVANCED_FACE('',(#37),#1073,.F.);
#1130=ADVANCED_FACE('',(#38),#1074,.T.);
#1131=ADVANCED_FACE('',(#39),#1075,.T.);
#1132=ADVANCED_FACE('',(#40),#1076,.T.);
#1133=ADVANCED_FACE('',(#41),#1077,.T.);
#1134=ADVANCED_FACE('',(#42),#1078,.T.);
#1135=ADVANCED_FACE('',(#43),#1079,.T.);
#1136=ADVANCED_FACE('',(#44),#1080,.T.);
#1137=ADVANCED_FACE('',(#45),#1081,.F.);
#1138=ADVANCED_FACE('',(#46),#1082,.T.);
#1139=ADVANCED_FACE('',(#47),#1083,.T.);
#1140=ADVANCED_FACE('',(#48),#1084,.T.);
#1141=ADVANCED_FACE('',(#49),#1085,.F.);
#1142=ADVANCED_FACE('',(#50),#1086,.T.);
#1143=ADVANCED_FACE('',(#51),#1087,.T.);
#1144=ADVANCED_FACE('',(#52),#1088,.F.);
#1145=ADVANCED_FACE('',(#53),#1089,.T.);
#1146=ADVANCED_FACE('',(#54),#1090,.T.);
#1147=ADVANCED_FACE('',(#55),#1091,.T.);
#1148=ADVANCED_FACE('',(#56),#1092,.T.);
#1149=ADVANCED_FACE('',(#57),#1093,.T.);
#1150=ADVANCED_FACE('',(#58),#1094,.T.);
#1151=ADVANCED_FACE('',(#59),#1095,.T.);
#1152=ADVANCED_FACE('',(#60),#1096,.F.);
#1153=ADVANCED_FACE('',(#61),#1097,.T.);
#1154=ADVANCED_FACE('',(#62),#1098,.T.);
#1155=ADVANCED_FACE('',(#63),#1099,.T.);
#1156=ADVANCED_FACE('',(#64),#1100,.T.);
#1157=ADVANCED_FACE('',(#65),#1101,.T.);
#1158=ADVANCED_FACE('',(#66),#1102,.T.);
#1159=ADVANCED_FACE('',(#67),#1103,.T.);
#1160=ADVANCED_FACE('',(#68),#1104,.T.);
#1161=ADVANCED_FACE('',(#69),#1105,.T.);
#1162=ADVANCED_FACE('',(#70),#1106,.T.);
#1163=ADVANCED_FACE('',(#71),#1107,.T.);
#1164=CLOSED_SHELL('',(#1108,#1109,#1110,#1111,#1112,#1113,#1114,#1115,
#1116,#1117,#1118,#1119,#1120,#1121,#1122,#1123,#1124,#1125,#1126,#1127,
#1128,#1129,#1130,#1131,#1132,#1133,#1134,#1135,#1136,#1137,#1138,#1139,
#1140,#1141,#1142,#1143,#1144,#1145,#1146,#1147,#1148,#1149,#1150,#1151,
#1152,#1153,#1154,#1155,#1156,#1157,#1158,#1159,#1160,#1161,#1162,#1163));
#1165=DERIVED_UNIT_ELEMENT(#1167,1.);
#1166=DERIVED_UNIT_ELEMENT(#1844,-3.);
#1167=(
MASS_UNIT()
NAMED_UNIT(*)
SI_UNIT(.KILO.,.GRAM.)
);
#1168=DERIVED_UNIT((#1165,#1166));
#1169=MEASURE_REPRESENTATION_ITEM('density measure',
POSITIVE_RATIO_MEASURE(7850.),#1168);
#1170=PROPERTY_DEFINITION_REPRESENTATION(#1175,#1172);
#1171=PROPERTY_DEFINITION_REPRESENTATION(#1176,#1173);
#1172=REPRESENTATION('material name',(#1174),#1841);
#1173=REPRESENTATION('density',(#1169),#1841);
#1174=DESCRIPTIVE_REPRESENTATION_ITEM('\X2\94A2\X0\','\X2\94A2\X0\');
#1175=PROPERTY_DEFINITION('material property','material name',#1851);
#1176=PROPERTY_DEFINITION('material property','density of part',#1851);
#1177=AXIS2_PLACEMENT_3D('',#1511,#1234,#1235);
#1178=AXIS2_PLACEMENT_3D('',#1512,#1236,#1237);
#1179=AXIS2_PLACEMENT_3D('',#1521,#1242,#1243);
#1180=AXIS2_PLACEMENT_3D('',#1545,#1256,#1257);
#1181=AXIS2_PLACEMENT_3D('',#1567,#1269,#1270);
#1182=AXIS2_PLACEMENT_3D('',#1579,#1277,#1278);
#1183=AXIS2_PLACEMENT_3D('',#1590,#1284,#1285);
#1184=AXIS2_PLACEMENT_3D('',#1624,#1304,#1305);
#1185=AXIS2_PLACEMENT_3D('',#1634,#1311,#1312);
#1186=AXIS2_PLACEMENT_3D('',#1641,#1317,#1318);
#1187=AXIS2_PLACEMENT_3D('',#1651,#1324,#1325);
#1188=AXIS2_PLACEMENT_3D('',#1655,#1328,#1329);
#1189=AXIS2_PLACEMENT_3D('',#1661,#1333,#1334);
#1190=AXIS2_PLACEMENT_3D('',#1666,#1338,#1339);
#1191=AXIS2_PLACEMENT_3D('',#1673,#1344,#1345);
#1192=AXIS2_PLACEMENT_3D('',#1681,#1350,#1351);
#1193=AXIS2_PLACEMENT_3D('',#1687,#1355,#1356);
#1194=AXIS2_PLACEMENT_3D('',#1693,#1360,#1361);
#1195=AXIS2_PLACEMENT_3D('',#1695,#1363,#1364);
#1196=AXIS2_PLACEMENT_3D('',#1700,#1368,#1369);
#1197=AXIS2_PLACEMENT_3D('',#1702,#1371,#1372);
#1198=AXIS2_PLACEMENT_3D('',#1707,#1376,#1377);
#1199=AXIS2_PLACEMENT_3D('',#1713,#1381,#1382);
#1200=AXIS2_PLACEMENT_3D('',#1723,#1388,#1389);
#1201=AXIS2_PLACEMENT_3D('',#1729,#1393,#1394);
#1202=AXIS2_PLACEMENT_3D('',#1735,#1398,#1399);
#1203=AXIS2_PLACEMENT_3D('',#1741,#1403,#1404);
#1204=AXIS2_PLACEMENT_3D('',#1744,#1407,#1408);
#1205=AXIS2_PLACEMENT_3D('',#1746,#1410,#1411);
#1206=AXIS2_PLACEMENT_3D('',#1747,#1412,#1413);
#1207=AXIS2_PLACEMENT_3D('',#1749,#1415,#1416);
#1208=AXIS2_PLACEMENT_3D('',#1750,#1417,#1418);
#1209=AXIS2_PLACEMENT_3D('',#1754,#1421,#1422);
#1210=AXIS2_PLACEMENT_3D('',#1760,#1426,#1427);
#1211=AXIS2_PLACEMENT_3D('',#1764,#1430,#1431);
#1212=AXIS2_PLACEMENT_3D('',#1768,#1434,#1435);
#1213=AXIS2_PLACEMENT_3D('',#1770,#1437,#1438);
#1214=AXIS2_PLACEMENT_3D('',#1776,#1442,#1443);
#1215=AXIS2_PLACEMENT_3D('',#1782,#1447,#1448);
#1216=AXIS2_PLACEMENT_3D('',#1784,#1450,#1451);
#1217=AXIS2_PLACEMENT_3D('',#1793,#1456,#1457);
#1218=AXIS2_PLACEMENT_3D('',#1799,#1461,#1462);
#1219=AXIS2_PLACEMENT_3D('',#1805,#1466,#1467);
#1220=AXIS2_PLACEMENT_3D('',#1808,#1470,#1471);
#1221=AXIS2_PLACEMENT_3D('',#1811,#1474,#1475);
#1222=AXIS2_PLACEMENT_3D('',#1812,#1476,#1477);
#1223=AXIS2_PLACEMENT_3D('',#1813,#1478,#1479);
#1224=AXIS2_PLACEMENT_3D('',#1817,#1482,#1483);
#1225=AXIS2_PLACEMENT_3D('',#1821,#1486,#1487);
#1226=AXIS2_PLACEMENT_3D('',#1823,#1489,#1490);
#1227=AXIS2_PLACEMENT_3D('',#1825,#1492,#1493);
#1228=AXIS2_PLACEMENT_3D('',#1829,#1496,#1497);
#1229=AXIS2_PLACEMENT_3D('',#1833,#1500,#1501);
#1230=AXIS2_PLACEMENT_3D('',#1835,#1503,#1504);
#1231=AXIS2_PLACEMENT_3D('',#1836,#1505,#1506);
#1232=AXIS2_PLACEMENT_3D('',#1837,#1507,#1508);
#1233=AXIS2_PLACEMENT_3D('',#1838,#1509,#1510);
#1234=DIRECTION('axis',(0.,0.,1.));
#1235=DIRECTION('refdir',(1.,0.,0.));
#1236=DIRECTION('center_axis',(0.,1.,0.));
#1237=DIRECTION('ref_axis',(-1.,0.,0.));
#1238=DIRECTION('',(1.,0.,0.));
#1239=DIRECTION('',(0.,0.,1.));
#1240=DIRECTION('',(-1.,0.,0.));
#1241=DIRECTION('',(0.,0.,1.));
#1242=DIRECTION('center_axis',(1.,0.,0.));
#1243=DIRECTION('ref_axis',(0.,0.,-1.));
#1244=DIRECTION('',(0.,1.,0.));
#1245=DIRECTION('',(0.,0.,1.));
#1246=DIRECTION('',(0.,0.897066561644614,-0.441895444623624));
#1247=DIRECTION('',(0.,0.528253989751318,-0.849086404502989));
#1248=DIRECTION('',(0.,0.,1.));
#1249=DIRECTION('',(0.,0.,1.));
#1250=DIRECTION('',(0.,0.,1.));
#1251=DIRECTION('',(0.,-1.,0.));
#1252=DIRECTION('',(0.,0.705508805869378,0.708701153407248));
#1253=DIRECTION('',(0.,-1.,0.));
#1254=DIRECTION('',(0.,0.707106781186549,-0.707106781186546));
#1255=DIRECTION('',(0.,-1.,0.));
#1256=DIRECTION('center_axis',(0.,1.,0.));
#1257=DIRECTION('ref_axis',(1.,0.,0.));
#1258=DIRECTION('',(1.,0.,0.));
#1259=DIRECTION('',(0.,0.,1.));
#1260=DIRECTION('',(0.,0.,-1.));
#1261=DIRECTION('',(0.,0.,-1.));
#1262=DIRECTION('',(0.,0.,-1.));
#1263=DIRECTION('',(1.,0.,0.));
#1264=DIRECTION('',(0.,0.,1.));
#1265=DIRECTION('',(0.,0.,-1.));
#1266=DIRECTION('',(-1.,0.,0.));
#1267=DIRECTION('',(0.,0.,1.));
#1268=DIRECTION('',(1.,0.,0.));
#1269=DIRECTION('center_axis',(0.,0.,1.));
#1270=DIRECTION('ref_axis',(0.,-1.,0.));
#1271=DIRECTION('',(0.,-1.,0.));
#1272=DIRECTION('',(1.,0.,0.));
#1273=DIRECTION('',(0.,-1.,0.));
#1274=DIRECTION('',(1.,0.,0.));
#1275=DIRECTION('',(0.,1.,0.));
#1276=DIRECTION('',(1.,0.,0.));
#1277=DIRECTION('center_axis',(0.,-0.441895444623625,-0.897066561644614));
#1278=DIRECTION('ref_axis',(0.,0.897066561644614,-0.441895444623624));
#1279=DIRECTION('',(0.,-0.897066561644614,0.441895444623624));
#1280=DIRECTION('',(1.,0.,0.));
#1281=DIRECTION('',(0.667757447346891,-0.667757447346905,0.328937658265984));
#1282=DIRECTION('',(0.,0.897066561644614,-0.441895444623624));
#1283=DIRECTION('',(1.,0.,0.));
#1284=DIRECTION('center_axis',(0.,1.,0.));
#1285=DIRECTION('ref_axis',(1.,0.,0.));
#1286=DIRECTION('',(0.707106781186548,0.,0.707106781186548));
#1287=DIRECTION('',(1.,0.,0.));
#1288=DIRECTION('',(0.,0.,1.));
#1289=DIRECTION('',(-1.,0.,0.));
#1290=DIRECTION('',(0.,0.,1.));
#1291=DIRECTION('',(-0.707106781186548,0.,0.707106781186547));
#1292=DIRECTION('',(-1.,0.,0.));
#1293=DIRECTION('',(-0.707106781186547,0.,-0.707106781186547));
#1294=DIRECTION('',(0.,0.,-1.));
#1295=DIRECTION('',(-1.,0.,0.));
#1296=DIRECTION('',(0.,0.,-1.));
#1297=DIRECTION('',(1.,0.,0.));
#1298=DIRECTION('',(0.707106781186547,0.,-0.707106781186548));
#1299=DIRECTION('',(0.,0.,1.));
#1300=DIRECTION('',(0.,0.,1.));
#1301=DIRECTION('',(1.,0.,0.));
#1302=DIRECTION('',(0.,0.,-1.));
#1303=DIRECTION('',(1.,0.,0.));
#1304=DIRECTION('center_axis',(0.707106781186548,0.,-0.707106781186548));
#1305=DIRECTION('ref_axis',(-0.707106781186548,0.,-0.707106781186548));
#1306=DIRECTION('',(-0.577350269189625,0.577350269189627,-0.577350269189625));
#1307=DIRECTION('',(0.,1.,0.));
#1308=DIRECTION('',(-0.707106781186547,0.,-0.707106781186547));
#1309=DIRECTION('',(0.,1.,0.));
#1310=DIRECTION('',(0.,1.,0.));
#1311=DIRECTION('center_axis',(1.,0.,0.));
#1312=DIRECTION('ref_axis',(0.,0.,-1.));
#1313=DIRECTION('',(0.,-1.,0.));
#1314=DIRECTION('',(0.,0.,1.));
#1315=DIRECTION('',(0.,0.,-1.));
#1316=DIRECTION('',(0.,1.,0.));
#1317=DIRECTION('center_axis',(-0.707106781186548,0.,-0.707106781186547));
#1318=DIRECTION('ref_axis',(-0.707106781186547,0.,0.707106781186548));
#1319=DIRECTION('',(0.,-1.,0.));
#1320=DIRECTION('',(0.,1.,0.));
#1321=DIRECTION('',(-0.707106781186547,0.,0.707106781186548));
#1322=DIRECTION('',(0.,1.,0.));
#1323=DIRECTION('',(-0.577350269189625,-0.577350269189627,0.577350269189625));
#1324=DIRECTION('center_axis',(0.707106781186547,0.,0.707106781186548));
#1325=DIRECTION('ref_axis',(0.707106781186548,0.,-0.707106781186547));
#1326=DIRECTION('',(0.707106781186548,0.,-0.707106781186547));
#1327=DIRECTION('',(0.,1.,0.));
#1328=DIRECTION('center_axis',(-0.707106781186548,0.,0.707106781186548));
#1329=DIRECTION('ref_axis',(0.707106781186548,0.,0.707106781186548));
#1330=DIRECTION('',(0.,1.,0.));
#1331=DIRECTION('',(0.707106781186547,0.,0.707106781186547));
#1332=DIRECTION('',(0.,1.,0.));
#1333=DIRECTION('center_axis',(-1.,0.,0.));
#1334=DIRECTION('ref_axis',(0.,0.,1.));
#1335=DIRECTION('',(0.,1.,0.));
#1336=DIRECTION('',(0.,0.,1.));
#1337=DIRECTION('',(0.,0.,-1.));
#1338=DIRECTION('center_axis',(0.,0.707106781186546,0.707106781186549));
#1339=DIRECTION('ref_axis',(0.,-0.707106781186549,0.707106781186546));
#1340=DIRECTION('',(0.,-0.707106781186549,0.707106781186546));
#1341=DIRECTION('',(1.,0.,0.));
#1342=DIRECTION('',(-1.,0.,0.));
#1343=DIRECTION('',(-1.,0.,0.));
#1344=DIRECTION('center_axis',(0.,0.,1.));
#1345=DIRECTION('ref_axis',(1.,0.,0.));
#1346=DIRECTION('',(0.,-1.,0.));
#1347=DIRECTION('',(1.,0.,0.));
#1348=DIRECTION('',(0.,1.,0.));
#1349=DIRECTION('',(-0.707106781186545,0.70710678118655,0.));
#1350=DIRECTION('center_axis',(-0.70710678118655,0.707106781186545,0.));
#1351=DIRECTION('ref_axis',(-0.707106781186545,-0.70710678118655,0.));
#1352=DIRECTION('',(0.707106781186545,0.70710678118655,0.));
#1353=DIRECTION('',(0.,0.,1.));
#1354=DIRECTION('',(-0.707106781186545,-0.70710678118655,0.));
#1355=DIRECTION('center_axis',(0.,0.,-1.));
#1356=DIRECTION('ref_axis',(-1.,0.,0.));
#1357=DIRECTION('',(0.,-1.,0.));
#1358=DIRECTION('',(-1.,0.,0.));
#1359=DIRECTION('',(0.,1.,0.));
#1360=DIRECTION('center_axis',(0.,0.,-1.));
#1361=DIRECTION('ref_axis',(0.,1.,0.));
#1362=DIRECTION('',(0.,1.,0.));
#1363=DIRECTION('center_axis',(0.,0.,-1.));
#1364=DIRECTION('ref_axis',(-1.,0.,0.));
#1365=DIRECTION('',(-1.,0.,0.));
#1366=DIRECTION('',(1.,0.,0.));
#1367=DIRECTION('',(0.,1.,0.));
#1368=DIRECTION('center_axis',(0.,0.,1.));
#1369=DIRECTION('ref_axis',(1.,0.,0.));
#1370=DIRECTION('',(1.,0.,0.));
#1371=DIRECTION('center_axis',(-1.,0.,0.));
#1372=DIRECTION('ref_axis',(0.,0.,1.));
#1373=DIRECTION('',(0.,0.705508805869378,0.708701153407248));
#1374=DIRECTION('',(0.,1.,0.));
#1375=DIRECTION('',(0.,-0.528253989751319,0.849086404502989));
#1376=DIRECTION('center_axis',(0.,-0.441895444623625,-0.897066561644614));
#1377=DIRECTION('ref_axis',(0.,0.897066561644614,-0.441895444623624));
#1378=DIRECTION('',(0.,0.897066561644614,-0.441895444623624));
#1379=DIRECTION('',(0.667757447346899,0.667757447346899,-0.328937658265981));
#1380=DIRECTION('',(1.,0.,0.));
#1381=DIRECTION('center_axis',(0.,-0.708701153407248,0.705508805869378));
#1382=DIRECTION('ref_axis',(0.,-0.705508805869378,-0.708701153407248));
#1383=DIRECTION('',(1.,0.,0.));
#1384=DIRECTION('',(-0.451644182449559,0.629453648873394,0.632301855429382));
#1385=DIRECTION('',(1.,0.,0.));
#1386=DIRECTION('',(-0.451644182449559,-0.629453648873394,-0.632301855429382));
#1387=DIRECTION('',(1.,0.,0.));
#1388=DIRECTION('center_axis',(0.,-0.849086404502989,-0.528253989751319));
#1389=DIRECTION('ref_axis',(-1.,0.,0.));
#1390=DIRECTION('',(-0.46708792277727,-0.467087922777267,0.750771433121447));
#1391=DIRECTION('',(-1.,0.,0.));
#1392=DIRECTION('',(-0.46708792277726,0.46708792277727,-0.750771433121452));
#1393=DIRECTION('center_axis',(-0.707106781186555,-0.70710678118654,0.));
#1394=DIRECTION('ref_axis',(0.,0.,1.));
#1395=DIRECTION('',(0.,0.,-1.));
#1396=DIRECTION('',(0.,0.,1.));
#1397=DIRECTION('',(-0.577350269189626,0.577350269189626,0.577350269189626));
#1398=DIRECTION('center_axis',(0.707106781186548,-0.707106781186548,0.));
#1399=DIRECTION('ref_axis',(0.,0.,-1.));
#1400=DIRECTION('',(0.,0.,-1.));
#1401=DIRECTION('',(0.,0.,1.));
#1402=DIRECTION('',(0.577350269189626,0.577350269189626,0.577350269189626));
#1403=DIRECTION('center_axis',(0.,-0.707106781186548,0.707106781186548));
#1404=DIRECTION('ref_axis',(1.,0.,0.));
#1405=DIRECTION('',(-1.,0.,0.));
#1406=DIRECTION('',(1.,0.,0.));
#1407=DIRECTION('center_axis',(1.,0.,0.));
#1408=DIRECTION('ref_axis',(0.,0.,-1.));
#1409=DIRECTION('',(0.,-1.,0.));
#1410=DIRECTION('center_axis',(0.,-1.,0.));
#1411=DIRECTION('ref_axis',(0.,0.,-1.));
#1412=DIRECTION('center_axis',(0.,0.,1.));
#1413=DIRECTION('ref_axis',(0.,-1.,0.));
#1414=DIRECTION('',(0.,-1.,0.));
#1415=DIRECTION('center_axis',(1.,0.,0.));
#1416=DIRECTION('ref_axis',(0.,0.,-1.));
#1417=DIRECTION('center_axis',(0.70710678118655,0.707106781186545,0.));
#1418=DIRECTION('ref_axis',(-0.707106781186545,0.70710678118655,0.));
#1419=DIRECTION('',(0.,0.,1.));
#1420=DIRECTION('',(-0.707106781186545,0.70710678118655,0.));
#1421=DIRECTION('center_axis',(0.,0.,1.));
#1422=DIRECTION('ref_axis',(1.,0.,0.));
#1423=DIRECTION('',(0.,1.,0.));
#1424=DIRECTION('',(-1.,0.,0.));
#1425=DIRECTION('',(0.,-1.,0.));
#1426=DIRECTION('center_axis',(0.813733471206735,0.,0.581238193719096));
#1427=DIRECTION('ref_axis',(0.581238193719096,0.,-0.813733471206735));
#1428=DIRECTION('',(-0.581238193719096,0.,0.813733471206735));
#1429=DIRECTION('',(0.,1.,0.));
#1430=DIRECTION('center_axis',(0.,1.,0.));
#1431=DIRECTION('ref_axis',(1.,0.,0.));
#1432=DIRECTION('',(0.,0.,-1.));
#1433=DIRECTION('',(1.,0.,0.));
#1434=DIRECTION('center_axis',(-1.,0.,0.));
#1435=DIRECTION('ref_axis',(0.,0.,1.));
#1436=DIRECTION('',(0.,1.,0.));
#1437=DIRECTION('center_axis',(0.,0.,1.));
#1438=DIRECTION('ref_axis',(1.,0.,0.));
#1439=DIRECTION('',(-1.,0.,0.));
#1440=DIRECTION('',(0.,-1.,0.));
#1441=DIRECTION('',(0.,1.,0.));
#1442=DIRECTION('center_axis',(0.,1.,0.));
#1443=DIRECTION('ref_axis',(1.,0.,0.));
#1444=DIRECTION('',(0.581238193719096,0.,0.813733471206735));
#1445=DIRECTION('',(-1.,0.,0.));
#1446=DIRECTION('',(0.,0.,-1.));
#1447=DIRECTION('center_axis',(-0.813733471206735,0.,0.581238193719096));
#1448=DIRECTION('ref_axis',(0.581238193719096,0.,0.813733471206735));
#1449=DIRECTION('',(0.,1.,0.));
#1450=DIRECTION('center_axis',(0.,0.707106781186548,-0.707106781186548));
#1451=DIRECTION('ref_axis',(0.,0.707106781186548,0.707106781186548));
#1452=DIRECTION('',(0.,0.707106781186547,0.707106781186547));
#1453=DIRECTION('',(-1.,0.,0.));
#1454=DIRECTION('',(0.,0.707106781186547,0.707106781186547));
#1455=DIRECTION('',(1.,0.,0.));
#1456=DIRECTION('center_axis',(0.,0.,-1.));
#1457=DIRECTION('ref_axis',(0.,1.,0.));
#1458=DIRECTION('',(0.,1.,0.));
#1459=DIRECTION('',(0.,1.,0.));
#1460=DIRECTION('',(1.,0.,0.));
#1461=DIRECTION('center_axis',(0.,0.,1.));
#1462=DIRECTION('ref_axis',(1.,0.,0.));
#1463=DIRECTION('',(0.,-1.,0.));
#1464=DIRECTION('',(1.,0.,0.));
#1465=DIRECTION('',(0.,1.,0.));
#1466=DIRECTION('center_axis',(-1.,0.,0.));
#1467=DIRECTION('ref_axis',(0.,-1.,0.));
#1468=DIRECTION('',(0.,-1.,0.));
#1469=DIRECTION('',(0.,0.,1.));
#1470=DIRECTION('center_axis',(1.,0.,0.));
#1471=DIRECTION('ref_axis',(0.,1.,0.));
#1472=DIRECTION('',(0.,0.,1.));
#1473=DIRECTION('',(0.,1.,0.));
#1474=DIRECTION('center_axis',(0.,-1.,0.));
#1475=DIRECTION('ref_axis',(1.,0.,0.));
#1476=DIRECTION('center_axis',(0.,0.,1.));
#1477=DIRECTION('ref_axis',(1.,0.,0.));
#1478=DIRECTION('center_axis',(-1.,0.,0.));
#1479=DIRECTION('ref_axis',(0.,-1.,0.));
#1480=DIRECTION('',(0.,-1.,0.));
#1481=DIRECTION('',(0.,0.,1.));
#1482=DIRECTION('center_axis',(1.,0.,0.));
#1483=DIRECTION('ref_axis',(0.,1.,0.));
#1484=DIRECTION('',(0.,1.,0.));
#1485=DIRECTION('',(0.,0.,1.));
#1486=DIRECTION('center_axis',(0.,-1.,0.));
#1487=DIRECTION('ref_axis',(1.,0.,0.));
#1488=DIRECTION('',(1.,0.,0.));
#1489=DIRECTION('center_axis',(0.,0.,-1.));
#1490=DIRECTION('ref_axis',(-1.,0.,0.));
#1491=DIRECTION('',(0.,1.,0.));
#1492=DIRECTION('center_axis',(1.,0.,0.));
#1493=DIRECTION('ref_axis',(0.,1.,0.));
#1494=DIRECTION('',(0.,1.,0.));
#1495=DIRECTION('',(0.,0.,1.));
#1496=DIRECTION('center_axis',(0.,0.,1.));
#1497=DIRECTION('ref_axis',(1.,0.,0.));
#1498=DIRECTION('',(0.,-1.,0.));
#1499=DIRECTION('',(1.,0.,0.));
#1500=DIRECTION('center_axis',(0.,-1.,0.));
#1501=DIRECTION('ref_axis',(1.,0.,0.));
#1502=DIRECTION('',(0.,0.,1.));
#1503=DIRECTION('center_axis',(-1.,0.,0.));
#1504=DIRECTION('ref_axis',(0.,-1.,0.));
#1505=DIRECTION('center_axis',(1.,0.,0.));
#1506=DIRECTION('ref_axis',(0.,0.,-1.));
#1507=DIRECTION('center_axis',(0.,1.,0.));
#1508=DIRECTION('ref_axis',(0.,0.,1.));
#1509=DIRECTION('center_axis',(0.,0.,-1.));
#1510=DIRECTION('ref_axis',(-1.,0.,0.));
#1511=CARTESIAN_POINT('',(0.,0.,0.));
#1512=CARTESIAN_POINT('Origin',(6.0205410986,33.5,-8.1));
#1513=CARTESIAN_POINT('',(3.4205410986,33.5,-7.71));
#1514=CARTESIAN_POINT('',(6.0205410986,33.5,-7.71));
#1515=CARTESIAN_POINT('',(3.6205410986,33.5,-7.71));
#1516=CARTESIAN_POINT('',(3.4205410986,33.5,-7.4));
#1517=CARTESIAN_POINT('',(3.4205410986,33.5,-8.1));
#1518=CARTESIAN_POINT('',(6.0205410986,33.5,-7.4));
#1519=CARTESIAN_POINT('',(3.6205410986,33.5,-7.4));
#1520=CARTESIAN_POINT('',(6.0205410986,33.5,-8.1));
#1521=CARTESIAN_POINT('Origin',(6.020549,31.9,-7.25));
#1522=CARTESIAN_POINT('',(6.020549,32.4,-7.4));
#1523=CARTESIAN_POINT('',(6.0205410986,32.795,-7.4));
#1524=CARTESIAN_POINT('',(6.0205410986,32.4,-6.75813944040581));
#1525=CARTESIAN_POINT('',(6.020549,32.4,-6.25));
#1526=CARTESIAN_POINT('',(6.0205410986,32.0553792607289,-6.58837908892473));
#1527=CARTESIAN_POINT('',(6.0205410986,32.2027640922293,-6.6609809318997));
#1528=CARTESIAN_POINT('',(6.0205410986,31.9,-6.33863101245727));
#1529=CARTESIAN_POINT('',(6.0205410986,32.3278526076428,-7.02633775831961));
#1530=CARTESIAN_POINT('',(6.020549,31.9,-7.5));
#1531=CARTESIAN_POINT('',(6.0205410986,31.9,-8.1));
#1532=CARTESIAN_POINT('',(6.0205410986,31.9,-8.1));
#1533=CARTESIAN_POINT('',(6.020549,31.9,-8.1));
#1534=CARTESIAN_POINT('',(6.020549,31.9,-8.2));
#1535=CARTESIAN_POINT('',(6.020549,31.9,-8.1));
#1536=CARTESIAN_POINT('',(6.020549,33.7040990990991,-8.2));
#1537=CARTESIAN_POINT('',(6.020549,34.39,-8.2));
#1538=CARTESIAN_POINT('',(6.020549,34.2018468468468,-7.7));
#1539=CARTESIAN_POINT('',(6.020549,33.9455585732484,-7.95744794904459));
#1540=CARTESIAN_POINT('',(6.020549,33.99,-7.7));
#1541=CARTESIAN_POINT('',(6.020549,32.15,-7.7));
#1542=CARTESIAN_POINT('',(6.020549,34.,-7.71));
#1543=CARTESIAN_POINT('',(6.020549,33.36,-7.07));
#1544=CARTESIAN_POINT('',(6.020549,32.145,-7.71));
#1545=CARTESIAN_POINT('Origin',(4.720549,31.9,-8.375));
#1546=CARTESIAN_POINT('',(3.4205410986,31.9,-6.33863101245727));
#1547=CARTESIAN_POINT('',(3.0705410986,31.9,-6.33863101245726));
#1548=CARTESIAN_POINT('',(3.420549,31.9,-7.5));
#1549=CARTESIAN_POINT('',(3.4205410986,31.9,-8.1));
#1550=CARTESIAN_POINT('',(3.4205410986,31.9,-8.1));
#1551=CARTESIAN_POINT('',(3.420549,31.9,-7.25));
#1552=CARTESIAN_POINT('',(3.420549,31.9,-8.2));
#1553=CARTESIAN_POINT('',(3.420549,31.9,-7.25));
#1554=CARTESIAN_POINT('',(3.420549,31.9,-9.5));
#1555=CARTESIAN_POINT('',(3.420549,31.9,-8.2375));
#1556=CARTESIAN_POINT('',(6.020549,31.9,-9.5));
#1557=CARTESIAN_POINT('',(1.920549,31.9,-9.5));
#1558=CARTESIAN_POINT('',(6.020549,31.9,-8.9375));
#1559=CARTESIAN_POINT('',(5.570549,31.9,-8.1));
#1560=CARTESIAN_POINT('',(5.570549,31.9,-9.1));
#1561=CARTESIAN_POINT('',(5.570549,31.9,-8.7375));
#1562=CARTESIAN_POINT('',(3.870549,31.9,-9.1));
#1563=CARTESIAN_POINT('',(4.720549,31.9,-9.1));
#1564=CARTESIAN_POINT('',(3.870549,31.9,-8.1));
#1565=CARTESIAN_POINT('',(3.870549,31.9,-8.7375));
#1566=CARTESIAN_POINT('',(4.720549,31.9,-8.1));
#1567=CARTESIAN_POINT('Origin',(1.2205410986,33.69,-7.4));
#1568=CARTESIAN_POINT('',(3.420549,32.4,-7.4));
#1569=CARTESIAN_POINT('',(3.4205410986,33.595,-7.4));
#1570=CARTESIAN_POINT('',(1.3205410986,32.4,-7.4));
#1571=CARTESIAN_POINT('',(2.9205450493,32.4,-7.4));
#1572=CARTESIAN_POINT('',(1.3205410986,33.69,-7.4));
#1573=CARTESIAN_POINT('',(1.3205410986,33.045,-7.4));
#1574=CARTESIAN_POINT('',(8.1205410986,33.69,-7.4));
#1575=CARTESIAN_POINT('',(1.1205410986,33.69,-7.4));
#1576=CARTESIAN_POINT('',(8.1205410986,32.4,-7.4));
#1577=CARTESIAN_POINT('',(8.1205410986,33.045,-7.4));
#1578=CARTESIAN_POINT('',(2.9205450493,32.4,-7.4));
#1579=CARTESIAN_POINT('Origin',(2.7205410986,31.8759659484,-6.5));
#1580=CARTESIAN_POINT('',(3.4205410986,32.4,-6.75813944040581));
#1581=CARTESIAN_POINT('',(3.4205410986,32.0553792607289,-6.58837908892473));
#1582=CARTESIAN_POINT('',(3.4205410986,32.846546825046,-6.97810863359165));
#1583=CARTESIAN_POINT('',(2.74112778627108,32.0553792607289,-6.58837908892473));
#1584=CARTESIAN_POINT('',(2.7205410986,32.0553792607289,-6.58837908892473));
#1585=CARTESIAN_POINT('',(2.7205410986,32.0759659484,-6.5985201017444));
#1586=CARTESIAN_POINT('',(2.97413396806552,31.8223730789345,-6.47360012523741));
#1587=CARTESIAN_POINT('',(2.7205410986,32.4,-6.75813944040581));
#1588=CARTESIAN_POINT('',(2.7205410986,31.8759659484,-6.5));
#1589=CARTESIAN_POINT('',(3.7205410986,32.4,-6.75813944040581));
#1590=CARTESIAN_POINT('Origin',(4.720549,32.4,-5.25));
#1591=CARTESIAN_POINT('',(8.2205410986,32.4,-7.3));
#1592=CARTESIAN_POINT('',(7.8205410986,32.4,-7.7));
#1593=CARTESIAN_POINT('',(7.320549,32.4,-7.3));
#1594=CARTESIAN_POINT('',(6.0705450493,32.4,-7.3));
#1595=CARTESIAN_POINT('',(7.320549,32.4,-6.3));
#1596=CARTESIAN_POINT('',(7.320549,32.4,-6.275));
#1597=CARTESIAN_POINT('',(8.2205410986,32.4,-6.3));
#1598=CARTESIAN_POINT('',(6.3455450493,32.4,-6.3));
#1599=CARTESIAN_POINT('',(8.2205410986,32.4,-3.2));
#1600=CARTESIAN_POINT('',(8.2205410986,32.4,-7.3));
#1601=CARTESIAN_POINT('',(7.8205410986,32.4,-2.8));
#1602=CARTESIAN_POINT('',(8.2205410986,32.4,-3.2));
#1603=CARTESIAN_POINT('',(1.6205410986,32.4,-2.8));
#1604=CARTESIAN_POINT('',(7.8205410986,32.4,-2.8));
#1605=CARTESIAN_POINT('',(1.2205410986,32.4,-3.2));
#1606=CARTESIAN_POINT('',(1.6205410986,32.4,-2.8));
#1607=CARTESIAN_POINT('',(1.2205410986,32.4,-6.3));
#1608=CARTESIAN_POINT('',(1.2205410986,32.4,-3.2));
#1609=CARTESIAN_POINT('',(2.120549,32.4,-6.3));
#1610=CARTESIAN_POINT('',(3.0955450493,32.4,-6.3));
#1611=CARTESIAN_POINT('',(2.120549,32.4,-7.3));
#1612=CARTESIAN_POINT('',(2.120549,32.4,-6.275));
#1613=CARTESIAN_POINT('',(1.2205410986,32.4,-7.3));
#1614=CARTESIAN_POINT('',(6.0705450493,32.4,-7.3));
#1615=CARTESIAN_POINT('',(1.2205410986,32.4,-7.3));
#1616=CARTESIAN_POINT('',(3.4205410986,32.4,-6.675));
#1617=CARTESIAN_POINT('',(2.7205410986,32.4,-4.5));
#1618=CARTESIAN_POINT('',(2.7205410986,32.4,-5.575));
#1619=CARTESIAN_POINT('',(6.7205410986,32.4,-4.5));
#1620=CARTESIAN_POINT('',(3.7205450493,32.4,-4.5));
#1621=CARTESIAN_POINT('',(6.7205410986,32.4,-6.75813944040581));
#1622=CARTESIAN_POINT('',(6.7205410986,32.4,-5.575));
#1623=CARTESIAN_POINT('',(3.7205410986,32.4,-6.75813944040581));
#1624=CARTESIAN_POINT('Origin',(8.2205410986,32.4,-7.3));
#1625=CARTESIAN_POINT('',(7.8205410986,33.99,-7.7));
#1626=CARTESIAN_POINT('',(7.09887443193334,34.7116666666667,-8.42166666666667));
#1627=CARTESIAN_POINT('',(7.8205410986,34.6,-7.7));
#1628=CARTESIAN_POINT('',(7.8205410986,32.4,-7.7));
#1629=CARTESIAN_POINT('',(8.2205410986,34.6,-7.3));
#1630=CARTESIAN_POINT('',(7.8205410986,34.6,-7.7));
#1631=CARTESIAN_POINT('',(8.2205410986,32.7000079014,-7.3));
#1632=CARTESIAN_POINT('',(8.2205410986,32.4,-7.3));
#1633=CARTESIAN_POINT('',(8.2205410986,32.4,-7.3));
#1634=CARTESIAN_POINT('Origin',(8.2205410986,32.4,-3.2));
#1635=CARTESIAN_POINT('',(8.2205410986,32.7000079014,-6.3));
#1636=CARTESIAN_POINT('',(8.2205410986,32.375,-6.3));
#1637=CARTESIAN_POINT('',(8.2205410986,32.7000079014,-5.25));
#1638=CARTESIAN_POINT('',(8.2205410986,34.6,-3.2));
#1639=CARTESIAN_POINT('',(8.2205410986,34.6,-7.3));
#1640=CARTESIAN_POINT('',(8.2205410986,32.4,-3.2));
#1641=CARTESIAN_POINT('Origin',(1.6205410986,32.4,-7.7));
#1642=CARTESIAN_POINT('',(1.2205410986,32.6999920986,-7.3));
#1643=CARTESIAN_POINT('',(1.2205410986,32.4,-7.3));
#1644=CARTESIAN_POINT('',(1.2205410986,34.6,-7.3));
#1645=CARTESIAN_POINT('',(1.2205410986,32.4,-7.3));
#1646=CARTESIAN_POINT('',(1.6205410986,34.6,-7.7));
#1647=CARTESIAN_POINT('',(1.2205410986,34.6,-7.3));
#1648=CARTESIAN_POINT('',(1.6205410986,33.99,-7.7));
#1649=CARTESIAN_POINT('',(1.6205410986,32.4,-7.7));
#1650=CARTESIAN_POINT('',(1.2755410986,33.645,-7.355));
#1651=CARTESIAN_POINT('Origin',(7.8205410986,32.4,-2.8));
#1652=CARTESIAN_POINT('',(7.8205410986,34.6,-2.8));
#1653=CARTESIAN_POINT('',(8.2205410986,34.6,-3.2));
#1654=CARTESIAN_POINT('',(7.8205410986,32.4,-2.8));
#1655=CARTESIAN_POINT('Origin',(1.2205410986,32.4,-3.2));
#1656=CARTESIAN_POINT('',(1.6205410986,34.6,-2.8));
#1657=CARTESIAN_POINT('',(1.6205410986,32.4,-2.8));
#1658=CARTESIAN_POINT('',(1.2205410986,34.6,-3.2));
#1659=CARTESIAN_POINT('',(1.6205410986,34.6,-2.8));
#1660=CARTESIAN_POINT('',(1.2205410986,32.4,-3.2));
#1661=CARTESIAN_POINT('Origin',(1.2205410986,32.4,-7.3));
#1662=CARTESIAN_POINT('',(1.2205410986,32.6999920986,-6.3));
#1663=CARTESIAN_POINT('',(1.2205410986,32.375,-6.3));
#1664=CARTESIAN_POINT('',(1.2205410986,34.6,-3.2));
#1665=CARTESIAN_POINT('',(1.2205410986,32.6999920986,-7.3));
#1666=CARTESIAN_POINT('Origin',(1.2205410986,34.,-7.71));
#1667=CARTESIAN_POINT('',(3.420549,34.,-7.71));
#1668=CARTESIAN_POINT('',(3.420549,33.99,-7.7));
#1669=CARTESIAN_POINT('',(3.420549,33.5725,-7.2825));
#1670=CARTESIAN_POINT('',(1.2205410986,34.,-7.71));
#1671=CARTESIAN_POINT('',(4.4205410986,33.99,-7.7));
#1672=CARTESIAN_POINT('',(4.4205410986,33.99,-7.7));
#1673=CARTESIAN_POINT('Origin',(7.970549,32.35,-6.3));
#1674=CARTESIAN_POINT('',(7.320549,31.5,-6.3));
#1675=CARTESIAN_POINT('',(7.320549,33.2,-6.3));
#1676=CARTESIAN_POINT('',(8.620549,31.5,-6.3));
#1677=CARTESIAN_POINT('',(7.320549,31.5,-6.3));
#1678=CARTESIAN_POINT('',(8.620549,32.3,-6.3));
#1679=CARTESIAN_POINT('',(8.620549,31.5,-6.3));
#1680=CARTESIAN_POINT('',(8.620549,32.3,-6.3));
#1681=CARTESIAN_POINT('Origin',(1.720549,33.2,-7.3));
#1682=CARTESIAN_POINT('',(0.820549,32.3,-7.3));
#1683=CARTESIAN_POINT('',(0.820549,32.3,-7.3));
#1684=CARTESIAN_POINT('',(0.820549,32.3,-6.3));
#1685=CARTESIAN_POINT('',(0.820549,32.3,-7.3));
#1686=CARTESIAN_POINT('',(0.820549,32.3,-6.3));
#1687=CARTESIAN_POINT('Origin',(7.420549,32.4,-7.3));
#1688=CARTESIAN_POINT('',(2.120549,31.5,-7.3));
#1689=CARTESIAN_POINT('',(2.120549,33.2,-7.3));
#1690=CARTESIAN_POINT('',(0.820549,31.5,-7.3));
#1691=CARTESIAN_POINT('',(2.120549,31.5,-7.3));
#1692=CARTESIAN_POINT('',(0.820549,31.5,-7.3));
#1693=CARTESIAN_POINT('Origin',(1.2205410986,32.39,-7.71));
#1694=CARTESIAN_POINT('',(3.420549,32.145,-7.71));
#1695=CARTESIAN_POINT('Origin',(7.7205410986,32.4,-7.7));
#1696=CARTESIAN_POINT('',(1.6205410986,34.6,-7.7));
#1697=CARTESIAN_POINT('',(3.420549,34.2018468468468,-7.7));
#1698=CARTESIAN_POINT('',(4.6705450493,34.2018468468468,-7.7));
#1699=CARTESIAN_POINT('',(3.420549,32.15,-7.7));
#1700=CARTESIAN_POINT('Origin',(1.7205410986,32.4,-2.8));
#1701=CARTESIAN_POINT('',(7.8205410986,34.6,-2.8));
#1702=CARTESIAN_POINT('Origin',(3.420549,31.9,-8.1));
#1703=CARTESIAN_POINT('',(3.420549,33.7040990990991,-8.2));
#1704=CARTESIAN_POINT('',(3.420549,32.1874571210191,-9.72350461146497));
#1705=CARTESIAN_POINT('',(3.420549,25.79,-8.2));
#1706=CARTESIAN_POINT('',(3.4205410986,32.5510944297934,-7.38516438297746));
#1707=CARTESIAN_POINT('Origin',(2.7205410986,31.8759659484,-6.5));
#1708=CARTESIAN_POINT('',(6.7205410986,32.0759659484,-6.5985201017444));
#1709=CARTESIAN_POINT('',(6.7205410986,31.8759659484,-6.5));
#1710=CARTESIAN_POINT('',(6.69995441092892,32.0553792607289,-6.58837908892473));
#1711=CARTESIAN_POINT('',(5.57514821215999,30.93057306196,-6.03429898319749));
#1712=CARTESIAN_POINT('',(2.7205410986,32.0553792607289,-6.58837908892473));
#1713=CARTESIAN_POINT('Origin',(1.620549,34.61,-7.29));
#1714=CARTESIAN_POINT('',(6.59197757142857,33.7040990990991,-8.2));
#1715=CARTESIAN_POINT('',(4.248049,33.7040990990991,-8.2));
#1716=CARTESIAN_POINT('',(7.520549,32.409954954955,-9.5));
#1717=CARTESIAN_POINT('',(6.06110871424906,34.4439676775286,-7.45678359994868));
#1718=CARTESIAN_POINT('',(1.920549,32.409954954955,-9.5));
#1719=CARTESIAN_POINT('',(4.570549,32.409954954955,-9.5));
#1720=CARTESIAN_POINT('',(2.84912042857143,33.7040990990991,-8.2));
#1721=CARTESIAN_POINT('',(2.44574958441532,33.1419236973788,-8.76471918181856));
#1722=CARTESIAN_POINT('',(2.093049,33.7040990990991,-8.2));
#1723=CARTESIAN_POINT('Origin',(2.7205410986,31.9656726045645,-6.44418954446236));
#1724=CARTESIAN_POINT('',(6.5205410986,31.8759659484,-6.3));
#1725=CARTESIAN_POINT('',(6.69995441092892,32.0553792607289,-6.58837908892473));
#1726=CARTESIAN_POINT('',(2.9205410986,31.8759659484,-6.3));
#1727=CARTESIAN_POINT('',(2.7205410986,31.8759659484,-6.3));
#1728=CARTESIAN_POINT('',(2.9205410986,31.8759659484,-6.3));
#1729=CARTESIAN_POINT('Origin',(2.8205410986,31.9759659484,-5.2));
#1730=CARTESIAN_POINT('',(2.7205410986,32.0759659484,-4.5));
#1731=CARTESIAN_POINT('',(2.7205410986,32.0759659484,-5.2));
#1732=CARTESIAN_POINT('',(2.9205410986,31.8759659484,-4.7));
#1733=CARTESIAN_POINT('',(2.9205410986,31.8759659484,-5.2));
#1734=CARTESIAN_POINT('',(2.9205410986,31.8759659484,-4.7));
#1735=CARTESIAN_POINT('Origin',(6.6205410986,31.9759659484,-5.2));
#1736=CARTESIAN_POINT('',(6.5205410986,31.8759659484,-4.7));
#1737=CARTESIAN_POINT('',(6.5205410986,31.8759659484,-5.2));
#1738=CARTESIAN_POINT('',(6.7205410986,32.0759659484,-4.5));
#1739=CARTESIAN_POINT('',(6.7205410986,32.0759659484,-5.2));
#1740=CARTESIAN_POINT('',(6.5205410986,31.8759659484,-4.7));
#1741=CARTESIAN_POINT('Origin',(2.7205410986,31.9759659484,-4.6));
#1742=CARTESIAN_POINT('',(2.7205410986,32.0759659484,-4.5));
#1743=CARTESIAN_POINT('',(2.7205410986,31.8759659484,-4.7));
#1744=CARTESIAN_POINT('Origin',(6.7205410986,32.6879829742,-5.9));
#1745=CARTESIAN_POINT('',(6.7205410986,33.5,-4.5));
#1746=CARTESIAN_POINT('Origin',(2.7205410986,31.8759659484,-4.5));
#1747=CARTESIAN_POINT('Origin',(2.7205410986,33.5,-4.5));
#1748=CARTESIAN_POINT('',(2.7205410986,33.5,-4.5));
#1749=CARTESIAN_POINT('Origin',(2.7205410986,32.6879829742,-5.9));
#1750=CARTESIAN_POINT('Origin',(8.620549,32.3,-7.3));
#1751=CARTESIAN_POINT('',(8.620549,32.3,-7.3));
#1752=CARTESIAN_POINT('',(8.620549,32.3,-7.3));
#1753=CARTESIAN_POINT('',(8.620549,32.3,-7.3));
#1754=CARTESIAN_POINT('Origin',(6.875549,30.09,-8.2));
#1755=CARTESIAN_POINT('',(6.020549,25.8,-8.2));
#1756=CARTESIAN_POINT('',(6.020549,27.945,-8.2));
#1757=CARTESIAN_POINT('',(6.59197757142857,25.8,-8.2));
#1758=CARTESIAN_POINT('',(6.823049,25.8,-8.2));
#1759=CARTESIAN_POINT('',(6.59197757142857,30.995,-8.2));
#1760=CARTESIAN_POINT('Origin',(6.520549,31.9,-8.1));
#1761=CARTESIAN_POINT('',(7.520549,25.8,-9.5));
#1762=CARTESIAN_POINT('',(7.520549,25.8,-9.5));
#1763=CARTESIAN_POINT('',(7.520549,31.9,-9.5));
#1764=CARTESIAN_POINT('Origin',(6.770549,25.8,-8.8));
#1765=CARTESIAN_POINT('',(6.020549,25.8,-9.5));
#1766=CARTESIAN_POINT('',(6.020549,25.8,-8.1));
#1767=CARTESIAN_POINT('',(6.020549,25.8,-9.5));
#1768=CARTESIAN_POINT('Origin',(6.020549,25.8,-9.5));
#1769=CARTESIAN_POINT('',(6.020549,25.8,-9.5));
#1770=CARTESIAN_POINT('Origin',(2.565549,30.09,-8.2));
#1771=CARTESIAN_POINT('',(3.420549,25.8,-8.2));
#1772=CARTESIAN_POINT('',(2.84912042857143,25.8,-8.2));
#1773=CARTESIAN_POINT('',(2.618049,25.8,-8.2));
#1774=CARTESIAN_POINT('',(3.420549,27.945,-8.2));
#1775=CARTESIAN_POINT('',(2.84912042857143,30.995,-8.2));
#1776=CARTESIAN_POINT('Origin',(2.670549,25.8,-8.8));
#1777=CARTESIAN_POINT('',(1.920549,25.8,-9.5));
#1778=CARTESIAN_POINT('',(1.920549,25.8,-9.5));
#1779=CARTESIAN_POINT('',(3.420549,25.8,-9.5));
#1780=CARTESIAN_POINT('',(3.420549,25.8,-9.5));
#1781=CARTESIAN_POINT('',(3.420549,25.8,-8.1));
#1782=CARTESIAN_POINT('Origin',(1.920549,31.9,-9.5));
#1783=CARTESIAN_POINT('',(1.920549,31.9,-9.5));
#1784=CARTESIAN_POINT('Origin',(3.870549,26.4,-10.1));
#1785=CARTESIAN_POINT('',(3.870549,26.4,-10.1));
#1786=CARTESIAN_POINT('',(3.870549,27.4,-9.1));
#1787=CARTESIAN_POINT('',(3.870549,26.4,-10.1));
#1788=CARTESIAN_POINT('',(5.570549,27.4,-9.1));
#1789=CARTESIAN_POINT('',(4.295549,27.4,-9.1));
#1790=CARTESIAN_POINT('',(5.570549,26.4,-10.1));
#1791=CARTESIAN_POINT('',(5.570549,26.4,-10.1));
#1792=CARTESIAN_POINT('',(3.870549,26.4,-10.1));
#1793=CARTESIAN_POINT('Origin',(3.870549,25.8,-10.1));
#1794=CARTESIAN_POINT('',(3.870549,25.8,-10.1));
#1795=CARTESIAN_POINT('',(3.870549,25.8,-10.1));
#1796=CARTESIAN_POINT('',(5.570549,25.8,-10.1));
#1797=CARTESIAN_POINT('',(5.570549,25.8,-10.1));
#1798=CARTESIAN_POINT('',(3.870549,25.8,-10.1));
#1799=CARTESIAN_POINT('Origin',(4.720549,28.925,-8.1));
#1800=CARTESIAN_POINT('',(3.870549,25.8,-8.1));
#1801=CARTESIAN_POINT('',(3.870549,32.05,-8.1));
#1802=CARTESIAN_POINT('',(5.570549,25.8,-8.1));
#1803=CARTESIAN_POINT('',(3.870549,25.8,-8.1));
#1804=CARTESIAN_POINT('',(5.570549,25.8,-8.1));
#1805=CARTESIAN_POINT('Origin',(3.870549,32.05,-9.1));
#1806=CARTESIAN_POINT('',(3.870549,32.05,-9.1));
#1807=CARTESIAN_POINT('',(3.870549,25.8,-9.1));
#1808=CARTESIAN_POINT('Origin',(5.570549,25.8,-9.1));
#1809=CARTESIAN_POINT('',(5.570549,25.8,-9.1));
#1810=CARTESIAN_POINT('',(5.570549,25.8,-9.1));
#1811=CARTESIAN_POINT('Origin',(3.870549,25.8,-9.1));
#1812=CARTESIAN_POINT('Origin',(4.720549,28.925,-9.1));
#1813=CARTESIAN_POINT('Origin',(7.320549,33.2,-7.3));
#1814=CARTESIAN_POINT('',(7.320549,31.5,-7.3));
#1815=CARTESIAN_POINT('',(7.320549,33.2,-7.3));
#1816=CARTESIAN_POINT('',(7.320549,31.5,-7.3));
#1817=CARTESIAN_POINT('Origin',(8.620549,31.5,-7.3));
#1818=CARTESIAN_POINT('',(8.620549,31.5,-7.3));
#1819=CARTESIAN_POINT('',(8.620549,31.5,-7.3));
#1820=CARTESIAN_POINT('',(8.620549,31.5,-7.3));
#1821=CARTESIAN_POINT('Origin',(7.320549,31.5,-7.3));
#1822=CARTESIAN_POINT('',(7.320549,31.5,-7.3));
#1823=CARTESIAN_POINT('Origin',(7.520549,31.9,-9.5));
#1824=CARTESIAN_POINT('',(3.420549,25.8,-9.5));
#1825=CARTESIAN_POINT('Origin',(2.120549,31.5,-7.3));
#1826=CARTESIAN_POINT('',(2.120549,31.5,-6.3));
#1827=CARTESIAN_POINT('',(2.120549,33.2,-6.3));
#1828=CARTESIAN_POINT('',(2.120549,31.5,-7.3));
#1829=CARTESIAN_POINT('Origin',(1.470549,32.35,-6.3));
#1830=CARTESIAN_POINT('',(0.820549,31.5,-6.3));
#1831=CARTESIAN_POINT('',(0.820549,31.5,-6.3));
#1832=CARTESIAN_POINT('',(2.120549,31.5,-6.3));
#1833=CARTESIAN_POINT('Origin',(0.820549,31.5,-7.3));
#1834=CARTESIAN_POINT('',(0.820549,31.5,-7.3));
#1835=CARTESIAN_POINT('Origin',(0.820549,32.3,-7.3));
#1836=CARTESIAN_POINT('Origin',(3.420549,25.8,-8.1));
#1837=CARTESIAN_POINT('Origin',(4.720549,34.6,-5.25));
#1838=CARTESIAN_POINT('Origin',(7.420549,32.4,-7.3));
#1839=UNCERTAINTY_MEASURE_WITH_UNIT(LENGTH_MEASURE(0.01),#1843,
'DISTANCE_ACCURACY_VALUE',
'Maximum model space distance between geometric entities at asserted c
onnectivities');
#1840=UNCERTAINTY_MEASURE_WITH_UNIT(LENGTH_MEASURE(0.01),#1843,
'DISTANCE_ACCURACY_VALUE',
'Maximum model space distance between geometric entities at asserted c
onnectivities');
#1841=(
GEOMETRIC_REPRESENTATION_CONTEXT(3)
GLOBAL_UNCERTAINTY_ASSIGNED_CONTEXT((#1839))
GLOBAL_UNIT_ASSIGNED_CONTEXT((#1843,#1845,#1846))
REPRESENTATION_CONTEXT('','3D')
);
#1842=(
GEOMETRIC_REPRESENTATION_CONTEXT(3)
GLOBAL_UNCERTAINTY_ASSIGNED_CONTEXT((#1840))
GLOBAL_UNIT_ASSIGNED_CONTEXT((#1843,#1845,#1846))
REPRESENTATION_CONTEXT('','3D')
);
#1843=(
LENGTH_UNIT()
NAMED_UNIT(*)
SI_UNIT(.MILLI.,.METRE.)
);
#1844=(
LENGTH_UNIT()
NAMED_UNIT(*)
SI_UNIT($,.METRE.)
);
#1845=(
NAMED_UNIT(*)
PLANE_ANGLE_UNIT()
SI_UNIT($,.RADIAN.)
);
#1846=(
NAMED_UNIT(*)
SI_UNIT($,.STERADIAN.)
SOLID_ANGLE_UNIT()
);
#1847=SHAPE_DEFINITION_REPRESENTATION(#1848,#1849);
#1848=PRODUCT_DEFINITION_SHAPE('',$,#1851);
#1849=SHAPE_REPRESENTATION('',(#1177),#1841);
#1850=PRODUCT_DEFINITION_CONTEXT('part definition',#1855,'design');
#1851=PRODUCT_DEFINITION('2026-10-05-03-56-12-932','R9 G20 button 2',#1852,
#1850);
#1852=PRODUCT_DEFINITION_FORMATION('',$,#1857);
#1853=PRODUCT_RELATED_PRODUCT_CATEGORY('R9 G20 button 2',
'R9 G20 button 2',(#1857));
#1854=APPLICATION_PROTOCOL_DEFINITION('international standard',
'automotive_design',2009,#1855);
#1855=APPLICATION_CONTEXT(
'Core Data for Automotive Mechanical Design Process');
#1856=PRODUCT_CONTEXT('part definition',#1855,'mechanical');
#1857=PRODUCT('2026-10-05-03-56-12-932','R9 G20 button 2',$,(#1856));
#1858=PRESENTATION_STYLE_ASSIGNMENT((#1859));
#1859=SURFACE_STYLE_USAGE(.BOTH.,#1860);
#1860=SURFACE_SIDE_STYLE('',(#1861));
#1861=SURFACE_STYLE_FILL_AREA(#1862);
#1862=FILL_AREA_STYLE('\X2\94A2\X0\ - \X2\7F0E5149\X0\',(#1863));
#1863=FILL_AREA_STYLE_COLOUR('\X2\94A2\X0\ - \X2\7F0E5149\X0\',#1864);
#1864=COLOUR_RGB('\X2\94A2\X0\ - \X2\7F0E5149\X0\',0.627450980392157,0.627450980392157,
0.627450980392157);
ENDSEC;
END-ISO-10303-21;
