ISO-10303-21;
HEADER;
/* Generated by software containing ST-Developer
 * from STEP Tools, Inc. (www.steptools.com) 
 */

FILE_DESCRIPTION(
/* description */ (''),
/* implementation_level */ '2;1');

FILE_NAME(
/* name */ 'R9_G20_button_1_RIGHT_TF.step',
/* time_stamp */ '2026-10-05T03:56:06+08:00',
/* author */ (''),
/* organization */ (''),
/* preprocessor_version */ 'ST-DEVELOPER v20.2',
/* originating_system */ 'Autodesk Translation Framework v15.15.0.0',
/* authorisation */ '');

FILE_SCHEMA (('AUTOMOTIVE_DESIGN { 1 0 10303 214 3 1 1 }'));
ENDSEC;

DATA;
#10=MECHANICAL_DESIGN_GEOMETRIC_PRESENTATION_REPRESENTATION('',(#13),#2118);
#11=SHAPE_REPRESENTATION_RELATIONSHIP('SRR','None',#2125,#12);
#12=ADVANCED_BREP_SHAPE_REPRESENTATION('',(#14),#2117);
#13=STYLED_ITEM('',(#2134),#14);
#14=MANIFOLD_SOLID_BREP('\X2\5B9E4F53\X0\1',#1338);
#15=FACE_BOUND('',#90,.T.);
#16=FACE_OUTER_BOUND('',#82,.T.);
#17=FACE_OUTER_BOUND('',#83,.T.);
#18=FACE_OUTER_BOUND('',#84,.T.);
#19=FACE_OUTER_BOUND('',#85,.T.);
#20=FACE_OUTER_BOUND('',#86,.T.);
#21=FACE_OUTER_BOUND('',#87,.T.);
#22=FACE_OUTER_BOUND('',#88,.T.);
#23=FACE_OUTER_BOUND('',#89,.T.);
#24=FACE_OUTER_BOUND('',#91,.T.);
#25=FACE_OUTER_BOUND('',#92,.T.);
#26=FACE_OUTER_BOUND('',#93,.T.);
#27=FACE_OUTER_BOUND('',#94,.T.);
#28=FACE_OUTER_BOUND('',#95,.T.);
#29=FACE_OUTER_BOUND('',#96,.T.);
#30=FACE_OUTER_BOUND('',#97,.T.);
#31=FACE_OUTER_BOUND('',#98,.T.);
#32=FACE_OUTER_BOUND('',#99,.T.);
#33=FACE_OUTER_BOUND('',#100,.T.);
#34=FACE_OUTER_BOUND('',#101,.T.);
#35=FACE_OUTER_BOUND('',#102,.T.);
#36=FACE_OUTER_BOUND('',#103,.T.);
#37=FACE_OUTER_BOUND('',#104,.T.);
#38=FACE_OUTER_BOUND('',#105,.T.);
#39=FACE_OUTER_BOUND('',#106,.T.);
#40=FACE_OUTER_BOUND('',#107,.T.);
#41=FACE_OUTER_BOUND('',#108,.T.);
#42=FACE_OUTER_BOUND('',#109,.T.);
#43=FACE_OUTER_BOUND('',#110,.T.);
#44=FACE_OUTER_BOUND('',#111,.T.);
#45=FACE_OUTER_BOUND('',#112,.T.);
#46=FACE_OUTER_BOUND('',#113,.T.);
#47=FACE_OUTER_BOUND('',#114,.T.);
#48=FACE_OUTER_BOUND('',#115,.T.);
#49=FACE_OUTER_BOUND('',#116,.T.);
#50=FACE_OUTER_BOUND('',#117,.T.);
#51=FACE_OUTER_BOUND('',#118,.T.);
#52=FACE_OUTER_BOUND('',#119,.T.);
#53=FACE_OUTER_BOUND('',#120,.T.);
#54=FACE_OUTER_BOUND('',#121,.T.);
#55=FACE_OUTER_BOUND('',#122,.T.);
#56=FACE_OUTER_BOUND('',#123,.T.);
#57=FACE_OUTER_BOUND('',#124,.T.);
#58=FACE_OUTER_BOUND('',#125,.T.);
#59=FACE_OUTER_BOUND('',#126,.T.);
#60=FACE_OUTER_BOUND('',#127,.T.);
#61=FACE_OUTER_BOUND('',#128,.T.);
#62=FACE_OUTER_BOUND('',#129,.T.);
#63=FACE_OUTER_BOUND('',#130,.T.);
#64=FACE_OUTER_BOUND('',#131,.T.);
#65=FACE_OUTER_BOUND('',#132,.T.);
#66=FACE_OUTER_BOUND('',#133,.T.);
#67=FACE_OUTER_BOUND('',#134,.T.);
#68=FACE_OUTER_BOUND('',#135,.T.);
#69=FACE_OUTER_BOUND('',#136,.T.);
#70=FACE_OUTER_BOUND('',#137,.T.);
#71=FACE_OUTER_BOUND('',#138,.T.);
#72=FACE_OUTER_BOUND('',#139,.T.);
#73=FACE_OUTER_BOUND('',#140,.T.);
#74=FACE_OUTER_BOUND('',#141,.T.);
#75=FACE_OUTER_BOUND('',#142,.T.);
#76=FACE_OUTER_BOUND('',#143,.T.);
#77=FACE_OUTER_BOUND('',#144,.T.);
#78=FACE_OUTER_BOUND('',#145,.T.);
#79=FACE_OUTER_BOUND('',#146,.T.);
#80=FACE_OUTER_BOUND('',#147,.T.);
#81=FACE_OUTER_BOUND('',#148,.T.);
#82=EDGE_LOOP('',(#832,#833,#834,#835));
#83=EDGE_LOOP('',(#836,#837,#838,#839));
#84=EDGE_LOOP('',(#840,#841,#842,#843,#844,#845,#846,#847));
#85=EDGE_LOOP('',(#848,#849,#850,#851,#852,#853));
#86=EDGE_LOOP('',(#854,#855,#856,#857,#858,#859,#860,#861,#862,#863,#864,
#865));
#87=EDGE_LOOP('',(#866,#867,#868,#869));
#88=EDGE_LOOP('',(#870,#871,#872,#873));
#89=EDGE_LOOP('',(#874,#875,#876,#877,#878,#879,#880,#881,#882,#883));
#90=EDGE_LOOP('',(#884,#885,#886,#887));
#91=EDGE_LOOP('',(#888,#889,#890,#891));
#92=EDGE_LOOP('',(#892,#893,#894,#895));
#93=EDGE_LOOP('',(#896,#897,#898,#899,#900,#901,#902,#903,#904,#905));
#94=EDGE_LOOP('',(#906,#907,#908,#909));
#95=EDGE_LOOP('',(#910,#911,#912,#913,#914));
#96=EDGE_LOOP('',(#915,#916,#917,#918,#919,#920,#921,#922,#923,#924,#925,
#926,#927,#928,#929,#930,#931,#932,#933,#934,#935,#936,#937,#938));
#97=EDGE_LOOP('',(#939,#940,#941,#942,#943,#944,#945));
#98=EDGE_LOOP('',(#946,#947,#948,#949,#950,#951));
#99=EDGE_LOOP('',(#952,#953,#954,#955,#956,#957,#958));
#100=EDGE_LOOP('',(#959,#960,#961,#962));
#101=EDGE_LOOP('',(#963,#964,#965,#966));
#102=EDGE_LOOP('',(#967,#968,#969,#970,#971,#972));
#103=EDGE_LOOP('',(#973,#974,#975,#976,#977,#978,#979,#980));
#104=EDGE_LOOP('',(#981,#982,#983,#984,#985,#986));
#105=EDGE_LOOP('',(#987,#988,#989,#990));
#106=EDGE_LOOP('',(#991,#992,#993,#994,#995,#996));
#107=EDGE_LOOP('',(#997,#998,#999,#1000,#1001,#1002));
#108=EDGE_LOOP('',(#1003,#1004,#1005,#1006,#1007,#1008,#1009,#1010));
#109=EDGE_LOOP('',(#1011,#1012,#1013,#1014));
#110=EDGE_LOOP('',(#1015,#1016,#1017,#1018,#1019,#1020,#1021,#1022));
#111=EDGE_LOOP('',(#1023,#1024,#1025,#1026));
#112=EDGE_LOOP('',(#1027,#1028,#1029,#1030,#1031,#1032,#1033,#1034));
#113=EDGE_LOOP('',(#1035,#1036,#1037,#1038,#1039));
#114=EDGE_LOOP('',(#1040,#1041,#1042,#1043,#1044,#1045,#1046,#1047));
#115=EDGE_LOOP('',(#1048,#1049,#1050,#1051));
#116=EDGE_LOOP('',(#1052,#1053,#1054,#1055,#1056));
#117=EDGE_LOOP('',(#1057,#1058,#1059,#1060,#1061));
#118=EDGE_LOOP('',(#1062,#1063,#1064,#1065));
#119=EDGE_LOOP('',(#1066,#1067,#1068,#1069));
#120=EDGE_LOOP('',(#1070,#1071,#1072,#1073,#1074,#1075));
#121=EDGE_LOOP('',(#1076,#1077,#1078,#1079));
#122=EDGE_LOOP('',(#1080,#1081,#1082,#1083));
#123=EDGE_LOOP('',(#1084,#1085,#1086,#1087));
#124=EDGE_LOOP('',(#1088,#1089,#1090,#1091,#1092));
#125=EDGE_LOOP('',(#1093,#1094,#1095,#1096));
#126=EDGE_LOOP('',(#1097,#1098,#1099,#1100));
#127=EDGE_LOOP('',(#1101,#1102,#1103,#1104));
#128=EDGE_LOOP('',(#1105,#1106,#1107,#1108,#1109));
#129=EDGE_LOOP('',(#1110,#1111,#1112,#1113));
#130=EDGE_LOOP('',(#1114,#1115,#1116,#1117));
#131=EDGE_LOOP('',(#1118,#1119,#1120,#1121));
#132=EDGE_LOOP('',(#1122,#1123,#1124,#1125));
#133=EDGE_LOOP('',(#1126,#1127,#1128,#1129));
#134=EDGE_LOOP('',(#1130,#1131,#1132,#1133,#1134,#1135));
#135=EDGE_LOOP('',(#1136,#1137,#1138,#1139,#1140,#1141));
#136=EDGE_LOOP('',(#1142,#1143,#1144,#1145));
#137=EDGE_LOOP('',(#1146,#1147,#1148,#1149));
#138=EDGE_LOOP('',(#1150,#1151,#1152,#1153));
#139=EDGE_LOOP('',(#1154,#1155,#1156,#1157));
#140=EDGE_LOOP('',(#1158,#1159,#1160,#1161));
#141=EDGE_LOOP('',(#1162,#1163,#1164,#1165,#1166,#1167,#1168,#1169));
#142=EDGE_LOOP('',(#1170,#1171,#1172,#1173));
#143=EDGE_LOOP('',(#1174,#1175,#1176,#1177,#1178,#1179));
#144=EDGE_LOOP('',(#1180,#1181,#1182,#1183));
#145=EDGE_LOOP('',(#1184,#1185,#1186,#1187));
#146=EDGE_LOOP('',(#1188,#1189,#1190,#1191));
#147=EDGE_LOOP('',(#1192,#1193,#1194,#1195,#1196,#1197,#1198,#1199));
#148=EDGE_LOOP('',(#1200,#1201,#1202,#1203,#1204,#1205));
#149=LINE('',#1743,#336);
#150=LINE('',#1745,#337);
#151=LINE('',#1747,#338);
#152=LINE('',#1748,#339);
#153=LINE('',#1752,#340);
#154=LINE('',#1754,#341);
#155=LINE('',#1756,#342);
#156=LINE('',#1757,#343);
#157=LINE('',#1760,#344);
#158=LINE('',#1762,#345);
#159=LINE('',#1764,#346);
#160=LINE('',#1766,#347);
#161=LINE('',#1767,#348);
#162=LINE('',#1768,#349);
#163=LINE('',#1772,#350);
#164=LINE('',#1773,#351);
#165=LINE('',#1775,#352);
#166=LINE('',#1776,#353);
#167=LINE('',#1779,#354);
#168=LINE('',#1781,#355);
#169=LINE('',#1783,#356);
#170=LINE('',#1785,#357);
#171=LINE('',#1787,#358);
#172=LINE('',#1789,#359);
#173=LINE('',#1790,#360);
#174=LINE('',#1792,#361);
#175=LINE('',#1794,#362);
#176=LINE('',#1795,#363);
#177=LINE('',#1798,#364);
#178=LINE('',#1800,#365);
#179=LINE('',#1801,#366);
#180=LINE('',#1804,#367);
#181=LINE('',#1805,#368);
#182=LINE('',#1808,#369);
#183=LINE('',#1810,#370);
#184=LINE('',#1812,#371);
#185=LINE('',#1814,#372);
#186=LINE('',#1815,#373);
#187=LINE('',#1818,#374);
#188=LINE('',#1820,#375);
#189=LINE('',#1822,#376);
#190=LINE('',#1823,#377);
#191=LINE('',#1826,#378);
#192=LINE('',#1828,#379);
#193=LINE('',#1829,#380);
#194=LINE('',#1832,#381);
#195=LINE('',#1833,#382);
#196=LINE('',#1836,#383);
#197=LINE('',#1838,#384);
#198=LINE('',#1840,#385);
#199=LINE('',#1842,#386);
#200=LINE('',#1844,#387);
#201=LINE('',#1845,#388);
#202=LINE('',#1848,#389);
#203=LINE('',#1850,#390);
#204=LINE('',#1851,#391);
#205=LINE('',#1854,#392);
#206=LINE('',#1856,#393);
#207=LINE('',#1857,#394);
#208=LINE('',#1859,#395);
#209=LINE('',#1861,#396);
#210=LINE('',#1863,#397);
#211=LINE('',#1865,#398);
#212=LINE('',#1867,#399);
#213=LINE('',#1869,#400);
#214=LINE('',#1871,#401);
#215=LINE('',#1873,#402);
#216=LINE('',#1875,#403);
#217=LINE('',#1877,#404);
#218=LINE('',#1879,#405);
#219=LINE('',#1881,#406);
#220=LINE('',#1883,#407);
#221=LINE('',#1884,#408);
#222=LINE('',#1886,#409);
#223=LINE('',#1888,#410);
#224=LINE('',#1890,#411);
#225=LINE('',#1891,#412);
#226=LINE('',#1894,#413);
#227=LINE('',#1896,#414);
#228=LINE('',#1898,#415);
#229=LINE('',#1900,#416);
#230=LINE('',#1901,#417);
#231=LINE('',#1904,#418);
#232=LINE('',#1905,#419);
#233=LINE('',#1907,#420);
#234=LINE('',#1908,#421);
#235=LINE('',#1911,#422);
#236=LINE('',#1913,#423);
#237=LINE('',#1915,#424);
#238=LINE('',#1917,#425);
#239=LINE('',#1918,#426);
#240=LINE('',#1921,#427);
#241=LINE('',#1922,#428);
#242=LINE('',#1925,#429);
#243=LINE('',#1927,#430);
#244=LINE('',#1928,#431);
#245=LINE('',#1931,#432);
#246=LINE('',#1932,#433);
#247=LINE('',#1933,#434);
#248=LINE('',#1937,#435);
#249=LINE('',#1939,#436);
#250=LINE('',#1941,#437);
#251=LINE('',#1942,#438);
#252=LINE('',#1943,#439);
#253=LINE('',#1946,#440);
#254=LINE('',#1948,#441);
#255=LINE('',#1950,#442);
#256=LINE('',#1951,#443);
#257=LINE('',#1954,#444);
#258=LINE('',#1956,#445);
#259=LINE('',#1957,#446);
#260=LINE('',#1960,#447);
#261=LINE('',#1962,#448);
#262=LINE('',#1963,#449);
#263=LINE('',#1965,#450);
#264=LINE('',#1966,#451);
#265=LINE('',#1969,#452);
#266=LINE('',#1971,#453);
#267=LINE('',#1972,#454);
#268=LINE('',#1975,#455);
#269=LINE('',#1977,#456);
#270=LINE('',#1978,#457);
#271=LINE('',#1980,#458);
#272=LINE('',#1983,#459);
#273=LINE('',#1984,#460);
#274=LINE('',#1987,#461);
#275=LINE('',#1989,#462);
#276=LINE('',#1990,#463);
#277=LINE('',#1993,#464);
#278=LINE('',#1995,#465);
#279=LINE('',#1997,#466);
#280=LINE('',#1999,#467);
#281=LINE('',#2000,#468);
#282=LINE('',#2003,#469);
#283=LINE('',#2004,#470);
#284=LINE('',#2007,#471);
#285=LINE('',#2009,#472);
#286=LINE('',#2010,#473);
#287=LINE('',#2013,#474);
#288=LINE('',#2015,#475);
#289=LINE('',#2016,#476);
#290=LINE('',#2018,#477);
#291=LINE('',#2019,#478);
#292=LINE('',#2021,#479);
#293=LINE('',#2024,#480);
#294=LINE('',#2028,#481);
#295=LINE('',#2029,#482);
#296=LINE('',#2032,#483);
#297=LINE('',#2034,#484);
#298=LINE('',#2035,#485);
#299=LINE('',#2038,#486);
#300=LINE('',#2039,#487);
#301=LINE('',#2042,#488);
#302=LINE('',#2043,#489);
#303=LINE('',#2045,#490);
#304=LINE('',#2049,#491);
#305=LINE('',#2050,#492);
#306=LINE('',#2051,#493);
#307=LINE('',#2054,#494);
#308=LINE('',#2056,#495);
#309=LINE('',#2057,#496);
#310=LINE('',#2059,#497);
#311=LINE('',#2063,#498);
#312=LINE('',#2065,#499);
#313=LINE('',#2067,#500);
#314=LINE('',#2068,#501);
#315=LINE('',#2071,#502);
#316=LINE('',#2073,#503);
#317=LINE('',#2074,#504);
#318=LINE('',#2077,#505);
#319=LINE('',#2079,#506);
#320=LINE('',#2080,#507);
#321=LINE('',#2082,#508);
#322=LINE('',#2083,#509);
#323=LINE('',#2085,#510);
#324=LINE('',#2086,#511);
#325=LINE('',#2091,#512);
#326=LINE('',#2092,#513);
#327=LINE('',#2095,#514);
#328=LINE('',#2096,#515);
#329=LINE('',#2098,#516);
#330=LINE('',#2100,#517);
#331=LINE('',#2103,#518);
#332=LINE('',#2104,#519);
#333=LINE('',#2107,#520);
#334=LINE('',#2108,#521);
#335=LINE('',#2110,#522);
#336=VECTOR('',#1422,10.);
#337=VECTOR('',#1423,10.);
#338=VECTOR('',#1424,10.);
#339=VECTOR('',#1425,10.);
#340=VECTOR('',#1428,10.);
#341=VECTOR('',#1429,10.);
#342=VECTOR('',#1430,10.);
#343=VECTOR('',#1431,10.);
#344=VECTOR('',#1434,10.);
#345=VECTOR('',#1435,10.);
#346=VECTOR('',#1436,10.);
#347=VECTOR('',#1437,10.);
#348=VECTOR('',#1438,10.);
#349=VECTOR('',#1439,10.);
#350=VECTOR('',#1442,10.);
#351=VECTOR('',#1443,10.);
#352=VECTOR('',#1444,10.);
#353=VECTOR('',#1445,10.);
#354=VECTOR('',#1448,10.);
#355=VECTOR('',#1449,10.);
#356=VECTOR('',#1450,10.);
#357=VECTOR('',#1451,10.);
#358=VECTOR('',#1452,10.);
#359=VECTOR('',#1453,10.);
#360=VECTOR('',#1454,10.);
#361=VECTOR('',#1455,10.);
#362=VECTOR('',#1456,10.);
#363=VECTOR('',#1457,10.);
#364=VECTOR('',#1460,10.);
#365=VECTOR('',#1461,10.);
#366=VECTOR('',#1462,10.);
#367=VECTOR('',#1465,10.);
#368=VECTOR('',#1466,10.);
#369=VECTOR('',#1469,10.);
#370=VECTOR('',#1470,10.);
#371=VECTOR('',#1471,10.);
#372=VECTOR('',#1472,10.);
#373=VECTOR('',#1473,10.);
#374=VECTOR('',#1474,10.);
#375=VECTOR('',#1475,10.);
#376=VECTOR('',#1476,10.);
#377=VECTOR('',#1477,10.);
#378=VECTOR('',#1480,10.);
#379=VECTOR('',#1481,10.);
#380=VECTOR('',#1482,10.);
#381=VECTOR('',#1485,10.);
#382=VECTOR('',#1486,10.);
#383=VECTOR('',#1489,10.);
#384=VECTOR('',#1490,10.);
#385=VECTOR('',#1491,10.);
#386=VECTOR('',#1492,10.);
#387=VECTOR('',#1493,10.);
#388=VECTOR('',#1494,10.);
#389=VECTOR('',#1497,10.);
#390=VECTOR('',#1498,10.);
#391=VECTOR('',#1499,10.);
#392=VECTOR('',#1502,10.);
#393=VECTOR('',#1503,10.);
#394=VECTOR('',#1504,10.);
#395=VECTOR('',#1507,10.);
#396=VECTOR('',#1508,10.);
#397=VECTOR('',#1509,10.);
#398=VECTOR('',#1510,10.);
#399=VECTOR('',#1511,10.);
#400=VECTOR('',#1512,10.);
#401=VECTOR('',#1513,10.);
#402=VECTOR('',#1514,10.);
#403=VECTOR('',#1515,10.);
#404=VECTOR('',#1516,10.);
#405=VECTOR('',#1517,10.);
#406=VECTOR('',#1518,10.);
#407=VECTOR('',#1519,10.);
#408=VECTOR('',#1520,10.);
#409=VECTOR('',#1521,10.);
#410=VECTOR('',#1522,10.);
#411=VECTOR('',#1523,10.);
#412=VECTOR('',#1524,10.);
#413=VECTOR('',#1527,10.);
#414=VECTOR('',#1528,10.);
#415=VECTOR('',#1529,10.);
#416=VECTOR('',#1530,10.);
#417=VECTOR('',#1531,10.);
#418=VECTOR('',#1534,10.);
#419=VECTOR('',#1535,10.);
#420=VECTOR('',#1536,10.);
#421=VECTOR('',#1537,10.);
#422=VECTOR('',#1540,10.);
#423=VECTOR('',#1541,10.);
#424=VECTOR('',#1542,10.);
#425=VECTOR('',#1543,10.);
#426=VECTOR('',#1544,10.);
#427=VECTOR('',#1547,10.);
#428=VECTOR('',#1548,10.);
#429=VECTOR('',#1551,10.);
#430=VECTOR('',#1552,10.);
#431=VECTOR('',#1553,10.);
#432=VECTOR('',#1556,10.);
#433=VECTOR('',#1557,10.);
#434=VECTOR('',#1558,10.);
#435=VECTOR('',#1561,10.);
#436=VECTOR('',#1562,10.);
#437=VECTOR('',#1563,10.);
#438=VECTOR('',#1564,10.);
#439=VECTOR('',#1565,10.);
#440=VECTOR('',#1568,10.);
#441=VECTOR('',#1569,10.);
#442=VECTOR('',#1570,10.);
#443=VECTOR('',#1571,10.);
#444=VECTOR('',#1574,10.);
#445=VECTOR('',#1575,10.);
#446=VECTOR('',#1576,10.);
#447=VECTOR('',#1579,10.);
#448=VECTOR('',#1580,10.);
#449=VECTOR('',#1581,10.);
#450=VECTOR('',#1584,10.);
#451=VECTOR('',#1585,10.);
#452=VECTOR('',#1588,10.);
#453=VECTOR('',#1589,10.);
#454=VECTOR('',#1590,10.);
#455=VECTOR('',#1595,10.);
#456=VECTOR('',#1596,10.);
#457=VECTOR('',#1597,10.);
#458=VECTOR('',#1600,10.);
#459=VECTOR('',#1603,10.);
#460=VECTOR('',#1604,10.);
#461=VECTOR('',#1607,10.);
#462=VECTOR('',#1608,10.);
#463=VECTOR('',#1609,10.);
#464=VECTOR('',#1612,10.);
#465=VECTOR('',#1613,10.);
#466=VECTOR('',#1614,10.);
#467=VECTOR('',#1615,10.);
#468=VECTOR('',#1616,10.);
#469=VECTOR('',#1619,10.);
#470=VECTOR('',#1620,10.);
#471=VECTOR('',#1623,10.);
#472=VECTOR('',#1624,10.);
#473=VECTOR('',#1625,10.);
#474=VECTOR('',#1628,10.);
#475=VECTOR('',#1629,10.);
#476=VECTOR('',#1630,10.);
#477=VECTOR('',#1633,10.);
#478=VECTOR('',#1634,10.);
#479=VECTOR('',#1637,10.);
#480=VECTOR('',#1642,10.);
#481=VECTOR('',#1647,10.);
#482=VECTOR('',#1648,10.);
#483=VECTOR('',#1651,10.);
#484=VECTOR('',#1652,10.);
#485=VECTOR('',#1653,10.);
#486=VECTOR('',#1656,10.);
#487=VECTOR('',#1657,10.);
#488=VECTOR('',#1660,10.);
#489=VECTOR('',#1661,10.);
#490=VECTOR('',#1664,10.);
#491=VECTOR('',#1667,10.);
#492=VECTOR('',#1668,10.);
#493=VECTOR('',#1669,10.);
#494=VECTOR('',#1672,10.);
#495=VECTOR('',#1673,10.);
#496=VECTOR('',#1674,10.);
#497=VECTOR('',#1677,10.);
#498=VECTOR('',#1680,10.);
#499=VECTOR('',#1681,10.);
#500=VECTOR('',#1682,10.);
#501=VECTOR('',#1683,10.);
#502=VECTOR('',#1686,10.);
#503=VECTOR('',#1687,10.);
#504=VECTOR('',#1688,10.);
#505=VECTOR('',#1691,10.);
#506=VECTOR('',#1692,10.);
#507=VECTOR('',#1693,10.);
#508=VECTOR('',#1696,10.);
#509=VECTOR('',#1697,10.);
#510=VECTOR('',#1700,10.);
#511=VECTOR('',#1701,10.);
#512=VECTOR('',#1708,10.);
#513=VECTOR('',#1709,10.);
#514=VECTOR('',#1712,10.);
#515=VECTOR('',#1713,10.);
#516=VECTOR('',#1716,10.);
#517=VECTOR('',#1719,10.);
#518=VECTOR('',#1722,10.);
#519=VECTOR('',#1723,10.);
#520=VECTOR('',#1726,10.);
#521=VECTOR('',#1727,10.);
#522=VECTOR('',#1730,10.);
#523=VERTEX_POINT('',#1741);
#524=VERTEX_POINT('',#1742);
#525=VERTEX_POINT('',#1744);
#526=VERTEX_POINT('',#1746);
#527=VERTEX_POINT('',#1750);
#528=VERTEX_POINT('',#1751);
#529=VERTEX_POINT('',#1753);
#530=VERTEX_POINT('',#1755);
#531=VERTEX_POINT('',#1759);
#532=VERTEX_POINT('',#1761);
#533=VERTEX_POINT('',#1763);
#534=VERTEX_POINT('',#1765);
#535=VERTEX_POINT('',#1770);
#536=VERTEX_POINT('',#1771);
#537=VERTEX_POINT('',#1774);
#538=VERTEX_POINT('',#1778);
#539=VERTEX_POINT('',#1780);
#540=VERTEX_POINT('',#1782);
#541=VERTEX_POINT('',#1784);
#542=VERTEX_POINT('',#1786);
#543=VERTEX_POINT('',#1788);
#544=VERTEX_POINT('',#1791);
#545=VERTEX_POINT('',#1793);
#546=VERTEX_POINT('',#1797);
#547=VERTEX_POINT('',#1799);
#548=VERTEX_POINT('',#1803);
#549=VERTEX_POINT('',#1807);
#550=VERTEX_POINT('',#1809);
#551=VERTEX_POINT('',#1811);
#552=VERTEX_POINT('',#1813);
#553=VERTEX_POINT('',#1816);
#554=VERTEX_POINT('',#1817);
#555=VERTEX_POINT('',#1819);
#556=VERTEX_POINT('',#1821);
#557=VERTEX_POINT('',#1825);
#558=VERTEX_POINT('',#1827);
#559=VERTEX_POINT('',#1831);
#560=VERTEX_POINT('',#1835);
#561=VERTEX_POINT('',#1837);
#562=VERTEX_POINT('',#1839);
#563=VERTEX_POINT('',#1841);
#564=VERTEX_POINT('',#1843);
#565=VERTEX_POINT('',#1847);
#566=VERTEX_POINT('',#1849);
#567=VERTEX_POINT('',#1853);
#568=VERTEX_POINT('',#1855);
#569=VERTEX_POINT('',#1860);
#570=VERTEX_POINT('',#1862);
#571=VERTEX_POINT('',#1864);
#572=VERTEX_POINT('',#1866);
#573=VERTEX_POINT('',#1868);
#574=VERTEX_POINT('',#1870);
#575=VERTEX_POINT('',#1872);
#576=VERTEX_POINT('',#1874);
#577=VERTEX_POINT('',#1876);
#578=VERTEX_POINT('',#1878);
#579=VERTEX_POINT('',#1880);
#580=VERTEX_POINT('',#1882);
#581=VERTEX_POINT('',#1885);
#582=VERTEX_POINT('',#1887);
#583=VERTEX_POINT('',#1889);
#584=VERTEX_POINT('',#1893);
#585=VERTEX_POINT('',#1895);
#586=VERTEX_POINT('',#1897);
#587=VERTEX_POINT('',#1899);
#588=VERTEX_POINT('',#1903);
#589=VERTEX_POINT('',#1906);
#590=VERTEX_POINT('',#1910);
#591=VERTEX_POINT('',#1912);
#592=VERTEX_POINT('',#1914);
#593=VERTEX_POINT('',#1916);
#594=VERTEX_POINT('',#1920);
#595=VERTEX_POINT('',#1924);
#596=VERTEX_POINT('',#1926);
#597=VERTEX_POINT('',#1930);
#598=VERTEX_POINT('',#1935);
#599=VERTEX_POINT('',#1936);
#600=VERTEX_POINT('',#1938);
#601=VERTEX_POINT('',#1940);
#602=VERTEX_POINT('',#1945);
#603=VERTEX_POINT('',#1947);
#604=VERTEX_POINT('',#1949);
#605=VERTEX_POINT('',#1953);
#606=VERTEX_POINT('',#1955);
#607=VERTEX_POINT('',#1959);
#608=VERTEX_POINT('',#1961);
#609=VERTEX_POINT('',#1968);
#610=VERTEX_POINT('',#1970);
#611=VERTEX_POINT('',#1976);
#612=VERTEX_POINT('',#1982);
#613=VERTEX_POINT('',#1986);
#614=VERTEX_POINT('',#1988);
#615=VERTEX_POINT('',#1992);
#616=VERTEX_POINT('',#1994);
#617=VERTEX_POINT('',#1996);
#618=VERTEX_POINT('',#1998);
#619=VERTEX_POINT('',#2002);
#620=VERTEX_POINT('',#2006);
#621=VERTEX_POINT('',#2008);
#622=VERTEX_POINT('',#2012);
#623=VERTEX_POINT('',#2014);
#624=VERTEX_POINT('',#2027);
#625=VERTEX_POINT('',#2031);
#626=VERTEX_POINT('',#2033);
#627=VERTEX_POINT('',#2037);
#628=VERTEX_POINT('',#2041);
#629=VERTEX_POINT('',#2047);
#630=VERTEX_POINT('',#2048);
#631=VERTEX_POINT('',#2053);
#632=VERTEX_POINT('',#2055);
#633=VERTEX_POINT('',#2061);
#634=VERTEX_POINT('',#2062);
#635=VERTEX_POINT('',#2064);
#636=VERTEX_POINT('',#2066);
#637=VERTEX_POINT('',#2070);
#638=VERTEX_POINT('',#2072);
#639=VERTEX_POINT('',#2076);
#640=VERTEX_POINT('',#2078);
#641=VERTEX_POINT('',#2090);
#642=VERTEX_POINT('',#2094);
#643=VERTEX_POINT('',#2102);
#644=VERTEX_POINT('',#2106);
#645=EDGE_CURVE('',#523,#524,#149,.T.);
#646=EDGE_CURVE('',#525,#523,#150,.T.);
#647=EDGE_CURVE('',#526,#525,#151,.T.);
#648=EDGE_CURVE('',#524,#526,#152,.T.);
#649=EDGE_CURVE('',#527,#528,#153,.T.);
#650=EDGE_CURVE('',#528,#529,#154,.T.);
#651=EDGE_CURVE('',#529,#530,#155,.T.);
#652=EDGE_CURVE('',#530,#527,#156,.T.);
#653=EDGE_CURVE('',#531,#528,#157,.T.);
#654=EDGE_CURVE('',#532,#531,#158,.T.);
#655=EDGE_CURVE('',#533,#532,#159,.T.);
#656=EDGE_CURVE('',#534,#533,#160,.T.);
#657=EDGE_CURVE('',#526,#534,#161,.T.);
#658=EDGE_CURVE('',#525,#529,#162,.T.);
#659=EDGE_CURVE('',#535,#536,#163,.T.);
#660=EDGE_CURVE('',#524,#535,#164,.T.);
#661=EDGE_CURVE('',#537,#534,#165,.T.);
#662=EDGE_CURVE('',#536,#537,#166,.T.);
#663=EDGE_CURVE('',#536,#538,#167,.T.);
#664=EDGE_CURVE('',#539,#537,#168,.T.);
#665=EDGE_CURVE('',#540,#539,#169,.T.);
#666=EDGE_CURVE('',#541,#540,#170,.T.);
#667=EDGE_CURVE('',#542,#541,#171,.T.);
#668=EDGE_CURVE('',#543,#542,#172,.T.);
#669=EDGE_CURVE('',#527,#543,#173,.T.);
#670=EDGE_CURVE('',#544,#530,#174,.T.);
#671=EDGE_CURVE('',#545,#544,#175,.T.);
#672=EDGE_CURVE('',#538,#545,#176,.T.);
#673=EDGE_CURVE('',#546,#545,#177,.T.);
#674=EDGE_CURVE('',#547,#546,#178,.T.);
#675=EDGE_CURVE('',#538,#547,#179,.T.);
#676=EDGE_CURVE('',#548,#544,#180,.T.);
#677=EDGE_CURVE('',#546,#548,#181,.T.);
#678=EDGE_CURVE('',#523,#549,#182,.T.);
#679=EDGE_CURVE('',#549,#550,#183,.T.);
#680=EDGE_CURVE('',#550,#551,#184,.T.);
#681=EDGE_CURVE('',#551,#552,#185,.T.);
#682=EDGE_CURVE('',#552,#548,#186,.T.);
#683=EDGE_CURVE('',#553,#554,#187,.T.);
#684=EDGE_CURVE('',#554,#555,#188,.T.);
#685=EDGE_CURVE('',#555,#556,#189,.T.);
#686=EDGE_CURVE('',#556,#553,#190,.T.);
#687=EDGE_CURVE('',#540,#557,#191,.T.);
#688=EDGE_CURVE('',#557,#558,#192,.T.);
#689=EDGE_CURVE('',#541,#558,#193,.T.);
#690=EDGE_CURVE('',#539,#559,#194,.T.);
#691=EDGE_CURVE('',#557,#559,#195,.T.);
#692=EDGE_CURVE('',#560,#533,#196,.T.);
#693=EDGE_CURVE('',#561,#560,#197,.T.);
#694=EDGE_CURVE('',#561,#562,#198,.T.);
#695=EDGE_CURVE('',#563,#562,#199,.T.);
#696=EDGE_CURVE('',#564,#563,#200,.T.);
#697=EDGE_CURVE('',#559,#564,#201,.T.);
#698=EDGE_CURVE('',#528,#565,#202,.T.);
#699=EDGE_CURVE('',#565,#566,#203,.T.);
#700=EDGE_CURVE('',#566,#531,#204,.T.);
#701=EDGE_CURVE('',#567,#566,#205,.T.);
#702=EDGE_CURVE('',#567,#568,#206,.T.);
#703=EDGE_CURVE('',#568,#532,#207,.T.);
#704=EDGE_CURVE('',#564,#558,#208,.T.);
#705=EDGE_CURVE('',#563,#569,#209,.T.);
#706=EDGE_CURVE('',#570,#569,#210,.T.);
#707=EDGE_CURVE('',#570,#571,#211,.T.);
#708=EDGE_CURVE('',#572,#571,#212,.T.);
#709=EDGE_CURVE('',#572,#573,#213,.T.);
#710=EDGE_CURVE('',#573,#574,#214,.T.);
#711=EDGE_CURVE('',#574,#575,#215,.T.);
#712=EDGE_CURVE('',#575,#576,#216,.T.);
#713=EDGE_CURVE('',#576,#577,#217,.T.);
#714=EDGE_CURVE('',#578,#577,#218,.T.);
#715=EDGE_CURVE('',#578,#579,#219,.T.);
#716=EDGE_CURVE('',#580,#579,#220,.T.);
#717=EDGE_CURVE('',#580,#560,#221,.T.);
#718=EDGE_CURVE('',#568,#581,#222,.T.);
#719=EDGE_CURVE('',#581,#582,#223,.T.);
#720=EDGE_CURVE('',#582,#583,#224,.T.);
#721=EDGE_CURVE('',#542,#583,#225,.T.);
#722=EDGE_CURVE('',#562,#584,#226,.T.);
#723=EDGE_CURVE('',#584,#585,#227,.T.);
#724=EDGE_CURVE('',#586,#585,#228,.T.);
#725=EDGE_CURVE('',#587,#586,#229,.T.);
#726=EDGE_CURVE('',#569,#587,#230,.T.);
#727=EDGE_CURVE('',#588,#572,#231,.T.);
#728=EDGE_CURVE('',#587,#588,#232,.T.);
#729=EDGE_CURVE('',#589,#586,#233,.T.);
#730=EDGE_CURVE('',#573,#589,#234,.T.);
#731=EDGE_CURVE('',#590,#580,#235,.T.);
#732=EDGE_CURVE('',#590,#591,#236,.T.);
#733=EDGE_CURVE('',#592,#591,#237,.T.);
#734=EDGE_CURVE('',#593,#592,#238,.T.);
#735=EDGE_CURVE('',#593,#561,#239,.T.);
#736=EDGE_CURVE('',#594,#589,#240,.T.);
#737=EDGE_CURVE('',#574,#594,#241,.T.);
#738=EDGE_CURVE('',#575,#595,#242,.T.);
#739=EDGE_CURVE('',#596,#595,#243,.T.);
#740=EDGE_CURVE('',#576,#596,#244,.T.);
#741=EDGE_CURVE('',#577,#597,#245,.T.);
#742=EDGE_CURVE('',#591,#596,#246,.T.);
#743=EDGE_CURVE('',#597,#590,#247,.T.);
#744=EDGE_CURVE('',#598,#599,#248,.T.);
#745=EDGE_CURVE('',#598,#600,#249,.T.);
#746=EDGE_CURVE('',#601,#600,#250,.T.);
#747=EDGE_CURVE('',#584,#601,#251,.T.);
#748=EDGE_CURVE('',#599,#593,#252,.T.);
#749=EDGE_CURVE('',#571,#602,#253,.T.);
#750=EDGE_CURVE('',#602,#603,#254,.T.);
#751=EDGE_CURVE('',#603,#604,#255,.T.);
#752=EDGE_CURVE('',#604,#588,#256,.T.);
#753=EDGE_CURVE('',#605,#590,#257,.T.);
#754=EDGE_CURVE('',#605,#606,#258,.T.);
#755=EDGE_CURVE('',#597,#606,#259,.T.);
#756=EDGE_CURVE('',#579,#607,#260,.T.);
#757=EDGE_CURVE('',#607,#608,#261,.T.);
#758=EDGE_CURVE('',#608,#605,#262,.T.);
#759=EDGE_CURVE('',#600,#547,#263,.T.);
#760=EDGE_CURVE('',#535,#598,#264,.T.);
#761=EDGE_CURVE('',#609,#552,#265,.T.);
#762=EDGE_CURVE('',#609,#610,#266,.T.);
#763=EDGE_CURVE('',#610,#601,#267,.T.);
#764=EDGE_CURVE('',#585,#592,#268,.T.);
#765=EDGE_CURVE('',#611,#610,#269,.T.);
#766=EDGE_CURVE('',#599,#611,#270,.T.);
#767=EDGE_CURVE('',#595,#594,#271,.T.);
#768=EDGE_CURVE('',#612,#611,#272,.T.);
#769=EDGE_CURVE('',#549,#612,#273,.T.);
#770=EDGE_CURVE('',#613,#583,#274,.T.);
#771=EDGE_CURVE('',#614,#613,#275,.T.);
#772=EDGE_CURVE('',#543,#614,#276,.T.);
#773=EDGE_CURVE('',#609,#615,#277,.T.);
#774=EDGE_CURVE('',#616,#615,#278,.T.);
#775=EDGE_CURVE('',#617,#616,#279,.T.);
#776=EDGE_CURVE('',#618,#617,#280,.T.);
#777=EDGE_CURVE('',#618,#612,#281,.T.);
#778=EDGE_CURVE('',#614,#619,#282,.T.);
#779=EDGE_CURVE('',#619,#527,#283,.T.);
#780=EDGE_CURVE('',#620,#567,#284,.T.);
#781=EDGE_CURVE('',#565,#621,#285,.T.);
#782=EDGE_CURVE('',#621,#620,#286,.T.);
#783=EDGE_CURVE('',#622,#619,#287,.T.);
#784=EDGE_CURVE('',#613,#623,#288,.T.);
#785=EDGE_CURVE('',#622,#623,#289,.T.);
#786=EDGE_CURVE('',#623,#620,#290,.T.);
#787=EDGE_CURVE('',#621,#622,#291,.T.);
#788=EDGE_CURVE('',#582,#623,#292,.T.);
#789=EDGE_CURVE('',#581,#620,#293,.T.);
#790=EDGE_CURVE('',#624,#604,#294,.T.);
#791=EDGE_CURVE('',#624,#587,#295,.T.);
#792=EDGE_CURVE('',#625,#552,#296,.T.);
#793=EDGE_CURVE('',#626,#625,#297,.T.);
#794=EDGE_CURVE('',#615,#626,#298,.T.);
#795=EDGE_CURVE('',#627,#626,#299,.T.);
#796=EDGE_CURVE('',#627,#616,#300,.T.);
#797=EDGE_CURVE('',#625,#628,#301,.T.);
#798=EDGE_CURVE('',#628,#627,#302,.T.);
#799=EDGE_CURVE('',#628,#551,#303,.T.);
#800=EDGE_CURVE('',#629,#630,#304,.T.);
#801=EDGE_CURVE('',#549,#629,#305,.T.);
#802=EDGE_CURVE('',#630,#618,#306,.T.);
#803=EDGE_CURVE('',#631,#630,#307,.T.);
#804=EDGE_CURVE('',#632,#631,#308,.T.);
#805=EDGE_CURVE('',#629,#632,#309,.T.);
#806=EDGE_CURVE('',#631,#617,#310,.T.);
#807=EDGE_CURVE('',#633,#634,#311,.T.);
#808=EDGE_CURVE('',#635,#634,#312,.T.);
#809=EDGE_CURVE('',#636,#635,#313,.T.);
#810=EDGE_CURVE('',#633,#636,#314,.T.);
#811=EDGE_CURVE('',#637,#633,#315,.T.);
#812=EDGE_CURVE('',#638,#636,#316,.T.);
#813=EDGE_CURVE('',#637,#638,#317,.T.);
#814=EDGE_CURVE('',#556,#639,#318,.T.);
#815=EDGE_CURVE('',#639,#640,#319,.T.);
#816=EDGE_CURVE('',#640,#553,#320,.T.);
#817=EDGE_CURVE('',#555,#634,#321,.T.);
#818=EDGE_CURVE('',#637,#639,#322,.T.);
#819=EDGE_CURVE('',#638,#640,#323,.T.);
#820=EDGE_CURVE('',#635,#554,#324,.T.);
#821=EDGE_CURVE('',#570,#641,#325,.T.);
#822=EDGE_CURVE('',#641,#602,#326,.T.);
#823=EDGE_CURVE('',#642,#624,#327,.T.);
#824=EDGE_CURVE('',#642,#603,#328,.T.);
#825=EDGE_CURVE('',#641,#642,#329,.T.);
#826=EDGE_CURVE('',#632,#550,#330,.T.);
#827=EDGE_CURVE('',#643,#578,#331,.T.);
#828=EDGE_CURVE('',#607,#643,#332,.T.);
#829=EDGE_CURVE('',#606,#644,#333,.T.);
#830=EDGE_CURVE('',#644,#643,#334,.T.);
#831=EDGE_CURVE('',#608,#644,#335,.T.);
#832=ORIENTED_EDGE('',*,*,#645,.F.);
#833=ORIENTED_EDGE('',*,*,#646,.F.);
#834=ORIENTED_EDGE('',*,*,#647,.F.);
#835=ORIENTED_EDGE('',*,*,#648,.F.);
#836=ORIENTED_EDGE('',*,*,#649,.T.);
#837=ORIENTED_EDGE('',*,*,#650,.T.);
#838=ORIENTED_EDGE('',*,*,#651,.T.);
#839=ORIENTED_EDGE('',*,*,#652,.T.);
#840=ORIENTED_EDGE('',*,*,#653,.F.);
#841=ORIENTED_EDGE('',*,*,#654,.F.);
#842=ORIENTED_EDGE('',*,*,#655,.F.);
#843=ORIENTED_EDGE('',*,*,#656,.F.);
#844=ORIENTED_EDGE('',*,*,#657,.F.);
#845=ORIENTED_EDGE('',*,*,#647,.T.);
#846=ORIENTED_EDGE('',*,*,#658,.T.);
#847=ORIENTED_EDGE('',*,*,#650,.F.);
#848=ORIENTED_EDGE('',*,*,#659,.F.);
#849=ORIENTED_EDGE('',*,*,#660,.F.);
#850=ORIENTED_EDGE('',*,*,#648,.T.);
#851=ORIENTED_EDGE('',*,*,#657,.T.);
#852=ORIENTED_EDGE('',*,*,#661,.F.);
#853=ORIENTED_EDGE('',*,*,#662,.F.);
#854=ORIENTED_EDGE('',*,*,#663,.F.);
#855=ORIENTED_EDGE('',*,*,#662,.T.);
#856=ORIENTED_EDGE('',*,*,#664,.F.);
#857=ORIENTED_EDGE('',*,*,#665,.F.);
#858=ORIENTED_EDGE('',*,*,#666,.F.);
#859=ORIENTED_EDGE('',*,*,#667,.F.);
#860=ORIENTED_EDGE('',*,*,#668,.F.);
#861=ORIENTED_EDGE('',*,*,#669,.F.);
#862=ORIENTED_EDGE('',*,*,#652,.F.);
#863=ORIENTED_EDGE('',*,*,#670,.F.);
#864=ORIENTED_EDGE('',*,*,#671,.F.);
#865=ORIENTED_EDGE('',*,*,#672,.F.);
#866=ORIENTED_EDGE('',*,*,#672,.T.);
#867=ORIENTED_EDGE('',*,*,#673,.F.);
#868=ORIENTED_EDGE('',*,*,#674,.F.);
#869=ORIENTED_EDGE('',*,*,#675,.F.);
#870=ORIENTED_EDGE('',*,*,#671,.T.);
#871=ORIENTED_EDGE('',*,*,#676,.F.);
#872=ORIENTED_EDGE('',*,*,#677,.F.);
#873=ORIENTED_EDGE('',*,*,#673,.T.);
#874=ORIENTED_EDGE('',*,*,#670,.T.);
#875=ORIENTED_EDGE('',*,*,#651,.F.);
#876=ORIENTED_EDGE('',*,*,#658,.F.);
#877=ORIENTED_EDGE('',*,*,#646,.T.);
#878=ORIENTED_EDGE('',*,*,#678,.T.);
#879=ORIENTED_EDGE('',*,*,#679,.T.);
#880=ORIENTED_EDGE('',*,*,#680,.T.);
#881=ORIENTED_EDGE('',*,*,#681,.T.);
#882=ORIENTED_EDGE('',*,*,#682,.T.);
#883=ORIENTED_EDGE('',*,*,#676,.T.);
#884=ORIENTED_EDGE('',*,*,#683,.T.);
#885=ORIENTED_EDGE('',*,*,#684,.T.);
#886=ORIENTED_EDGE('',*,*,#685,.T.);
#887=ORIENTED_EDGE('',*,*,#686,.T.);
#888=ORIENTED_EDGE('',*,*,#666,.T.);
#889=ORIENTED_EDGE('',*,*,#687,.T.);
#890=ORIENTED_EDGE('',*,*,#688,.T.);
#891=ORIENTED_EDGE('',*,*,#689,.F.);
#892=ORIENTED_EDGE('',*,*,#665,.T.);
#893=ORIENTED_EDGE('',*,*,#690,.T.);
#894=ORIENTED_EDGE('',*,*,#691,.F.);
#895=ORIENTED_EDGE('',*,*,#687,.F.);
#896=ORIENTED_EDGE('',*,*,#664,.T.);
#897=ORIENTED_EDGE('',*,*,#661,.T.);
#898=ORIENTED_EDGE('',*,*,#656,.T.);
#899=ORIENTED_EDGE('',*,*,#692,.F.);
#900=ORIENTED_EDGE('',*,*,#693,.F.);
#901=ORIENTED_EDGE('',*,*,#694,.T.);
#902=ORIENTED_EDGE('',*,*,#695,.F.);
#903=ORIENTED_EDGE('',*,*,#696,.F.);
#904=ORIENTED_EDGE('',*,*,#697,.F.);
#905=ORIENTED_EDGE('',*,*,#690,.F.);
#906=ORIENTED_EDGE('',*,*,#653,.T.);
#907=ORIENTED_EDGE('',*,*,#698,.T.);
#908=ORIENTED_EDGE('',*,*,#699,.T.);
#909=ORIENTED_EDGE('',*,*,#700,.T.);
#910=ORIENTED_EDGE('',*,*,#654,.T.);
#911=ORIENTED_EDGE('',*,*,#700,.F.);
#912=ORIENTED_EDGE('',*,*,#701,.F.);
#913=ORIENTED_EDGE('',*,*,#702,.T.);
#914=ORIENTED_EDGE('',*,*,#703,.T.);
#915=ORIENTED_EDGE('',*,*,#667,.T.);
#916=ORIENTED_EDGE('',*,*,#689,.T.);
#917=ORIENTED_EDGE('',*,*,#704,.F.);
#918=ORIENTED_EDGE('',*,*,#696,.T.);
#919=ORIENTED_EDGE('',*,*,#705,.T.);
#920=ORIENTED_EDGE('',*,*,#706,.F.);
#921=ORIENTED_EDGE('',*,*,#707,.T.);
#922=ORIENTED_EDGE('',*,*,#708,.F.);
#923=ORIENTED_EDGE('',*,*,#709,.T.);
#924=ORIENTED_EDGE('',*,*,#710,.T.);
#925=ORIENTED_EDGE('',*,*,#711,.T.);
#926=ORIENTED_EDGE('',*,*,#712,.T.);
#927=ORIENTED_EDGE('',*,*,#713,.T.);
#928=ORIENTED_EDGE('',*,*,#714,.F.);
#929=ORIENTED_EDGE('',*,*,#715,.T.);
#930=ORIENTED_EDGE('',*,*,#716,.F.);
#931=ORIENTED_EDGE('',*,*,#717,.T.);
#932=ORIENTED_EDGE('',*,*,#692,.T.);
#933=ORIENTED_EDGE('',*,*,#655,.T.);
#934=ORIENTED_EDGE('',*,*,#703,.F.);
#935=ORIENTED_EDGE('',*,*,#718,.T.);
#936=ORIENTED_EDGE('',*,*,#719,.T.);
#937=ORIENTED_EDGE('',*,*,#720,.T.);
#938=ORIENTED_EDGE('',*,*,#721,.F.);
#939=ORIENTED_EDGE('',*,*,#695,.T.);
#940=ORIENTED_EDGE('',*,*,#722,.T.);
#941=ORIENTED_EDGE('',*,*,#723,.T.);
#942=ORIENTED_EDGE('',*,*,#724,.F.);
#943=ORIENTED_EDGE('',*,*,#725,.F.);
#944=ORIENTED_EDGE('',*,*,#726,.F.);
#945=ORIENTED_EDGE('',*,*,#705,.F.);
#946=ORIENTED_EDGE('',*,*,#727,.F.);
#947=ORIENTED_EDGE('',*,*,#728,.F.);
#948=ORIENTED_EDGE('',*,*,#725,.T.);
#949=ORIENTED_EDGE('',*,*,#729,.F.);
#950=ORIENTED_EDGE('',*,*,#730,.F.);
#951=ORIENTED_EDGE('',*,*,#709,.F.);
#952=ORIENTED_EDGE('',*,*,#693,.T.);
#953=ORIENTED_EDGE('',*,*,#717,.F.);
#954=ORIENTED_EDGE('',*,*,#731,.F.);
#955=ORIENTED_EDGE('',*,*,#732,.T.);
#956=ORIENTED_EDGE('',*,*,#733,.F.);
#957=ORIENTED_EDGE('',*,*,#734,.F.);
#958=ORIENTED_EDGE('',*,*,#735,.T.);
#959=ORIENTED_EDGE('',*,*,#710,.F.);
#960=ORIENTED_EDGE('',*,*,#730,.T.);
#961=ORIENTED_EDGE('',*,*,#736,.F.);
#962=ORIENTED_EDGE('',*,*,#737,.F.);
#963=ORIENTED_EDGE('',*,*,#712,.F.);
#964=ORIENTED_EDGE('',*,*,#738,.T.);
#965=ORIENTED_EDGE('',*,*,#739,.F.);
#966=ORIENTED_EDGE('',*,*,#740,.F.);
#967=ORIENTED_EDGE('',*,*,#741,.F.);
#968=ORIENTED_EDGE('',*,*,#713,.F.);
#969=ORIENTED_EDGE('',*,*,#740,.T.);
#970=ORIENTED_EDGE('',*,*,#742,.F.);
#971=ORIENTED_EDGE('',*,*,#732,.F.);
#972=ORIENTED_EDGE('',*,*,#743,.F.);
#973=ORIENTED_EDGE('',*,*,#744,.F.);
#974=ORIENTED_EDGE('',*,*,#745,.T.);
#975=ORIENTED_EDGE('',*,*,#746,.F.);
#976=ORIENTED_EDGE('',*,*,#747,.F.);
#977=ORIENTED_EDGE('',*,*,#722,.F.);
#978=ORIENTED_EDGE('',*,*,#694,.F.);
#979=ORIENTED_EDGE('',*,*,#735,.F.);
#980=ORIENTED_EDGE('',*,*,#748,.F.);
#981=ORIENTED_EDGE('',*,*,#727,.T.);
#982=ORIENTED_EDGE('',*,*,#708,.T.);
#983=ORIENTED_EDGE('',*,*,#749,.T.);
#984=ORIENTED_EDGE('',*,*,#750,.T.);
#985=ORIENTED_EDGE('',*,*,#751,.T.);
#986=ORIENTED_EDGE('',*,*,#752,.T.);
#987=ORIENTED_EDGE('',*,*,#743,.T.);
#988=ORIENTED_EDGE('',*,*,#753,.F.);
#989=ORIENTED_EDGE('',*,*,#754,.T.);
#990=ORIENTED_EDGE('',*,*,#755,.F.);
#991=ORIENTED_EDGE('',*,*,#731,.T.);
#992=ORIENTED_EDGE('',*,*,#716,.T.);
#993=ORIENTED_EDGE('',*,*,#756,.T.);
#994=ORIENTED_EDGE('',*,*,#757,.T.);
#995=ORIENTED_EDGE('',*,*,#758,.T.);
#996=ORIENTED_EDGE('',*,*,#753,.T.);
#997=ORIENTED_EDGE('',*,*,#663,.T.);
#998=ORIENTED_EDGE('',*,*,#675,.T.);
#999=ORIENTED_EDGE('',*,*,#759,.F.);
#1000=ORIENTED_EDGE('',*,*,#745,.F.);
#1001=ORIENTED_EDGE('',*,*,#760,.F.);
#1002=ORIENTED_EDGE('',*,*,#659,.T.);
#1003=ORIENTED_EDGE('',*,*,#674,.T.);
#1004=ORIENTED_EDGE('',*,*,#677,.T.);
#1005=ORIENTED_EDGE('',*,*,#682,.F.);
#1006=ORIENTED_EDGE('',*,*,#761,.F.);
#1007=ORIENTED_EDGE('',*,*,#762,.T.);
#1008=ORIENTED_EDGE('',*,*,#763,.T.);
#1009=ORIENTED_EDGE('',*,*,#746,.T.);
#1010=ORIENTED_EDGE('',*,*,#759,.T.);
#1011=ORIENTED_EDGE('',*,*,#697,.T.);
#1012=ORIENTED_EDGE('',*,*,#704,.T.);
#1013=ORIENTED_EDGE('',*,*,#688,.F.);
#1014=ORIENTED_EDGE('',*,*,#691,.T.);
#1015=ORIENTED_EDGE('',*,*,#748,.T.);
#1016=ORIENTED_EDGE('',*,*,#734,.T.);
#1017=ORIENTED_EDGE('',*,*,#764,.F.);
#1018=ORIENTED_EDGE('',*,*,#723,.F.);
#1019=ORIENTED_EDGE('',*,*,#747,.T.);
#1020=ORIENTED_EDGE('',*,*,#763,.F.);
#1021=ORIENTED_EDGE('',*,*,#765,.F.);
#1022=ORIENTED_EDGE('',*,*,#766,.F.);
#1023=ORIENTED_EDGE('',*,*,#711,.F.);
#1024=ORIENTED_EDGE('',*,*,#737,.T.);
#1025=ORIENTED_EDGE('',*,*,#767,.F.);
#1026=ORIENTED_EDGE('',*,*,#738,.F.);
#1027=ORIENTED_EDGE('',*,*,#660,.T.);
#1028=ORIENTED_EDGE('',*,*,#760,.T.);
#1029=ORIENTED_EDGE('',*,*,#744,.T.);
#1030=ORIENTED_EDGE('',*,*,#766,.T.);
#1031=ORIENTED_EDGE('',*,*,#768,.F.);
#1032=ORIENTED_EDGE('',*,*,#769,.F.);
#1033=ORIENTED_EDGE('',*,*,#678,.F.);
#1034=ORIENTED_EDGE('',*,*,#645,.T.);
#1035=ORIENTED_EDGE('',*,*,#668,.T.);
#1036=ORIENTED_EDGE('',*,*,#721,.T.);
#1037=ORIENTED_EDGE('',*,*,#770,.F.);
#1038=ORIENTED_EDGE('',*,*,#771,.F.);
#1039=ORIENTED_EDGE('',*,*,#772,.F.);
#1040=ORIENTED_EDGE('',*,*,#765,.T.);
#1041=ORIENTED_EDGE('',*,*,#762,.F.);
#1042=ORIENTED_EDGE('',*,*,#773,.T.);
#1043=ORIENTED_EDGE('',*,*,#774,.F.);
#1044=ORIENTED_EDGE('',*,*,#775,.F.);
#1045=ORIENTED_EDGE('',*,*,#776,.F.);
#1046=ORIENTED_EDGE('',*,*,#777,.T.);
#1047=ORIENTED_EDGE('',*,*,#768,.T.);
#1048=ORIENTED_EDGE('',*,*,#669,.T.);
#1049=ORIENTED_EDGE('',*,*,#772,.T.);
#1050=ORIENTED_EDGE('',*,*,#778,.T.);
#1051=ORIENTED_EDGE('',*,*,#779,.T.);
#1052=ORIENTED_EDGE('',*,*,#780,.T.);
#1053=ORIENTED_EDGE('',*,*,#701,.T.);
#1054=ORIENTED_EDGE('',*,*,#699,.F.);
#1055=ORIENTED_EDGE('',*,*,#781,.T.);
#1056=ORIENTED_EDGE('',*,*,#782,.T.);
#1057=ORIENTED_EDGE('',*,*,#783,.T.);
#1058=ORIENTED_EDGE('',*,*,#778,.F.);
#1059=ORIENTED_EDGE('',*,*,#771,.T.);
#1060=ORIENTED_EDGE('',*,*,#784,.T.);
#1061=ORIENTED_EDGE('',*,*,#785,.F.);
#1062=ORIENTED_EDGE('',*,*,#786,.T.);
#1063=ORIENTED_EDGE('',*,*,#782,.F.);
#1064=ORIENTED_EDGE('',*,*,#787,.T.);
#1065=ORIENTED_EDGE('',*,*,#785,.T.);
#1066=ORIENTED_EDGE('',*,*,#784,.F.);
#1067=ORIENTED_EDGE('',*,*,#770,.T.);
#1068=ORIENTED_EDGE('',*,*,#720,.F.);
#1069=ORIENTED_EDGE('',*,*,#788,.T.);
#1070=ORIENTED_EDGE('',*,*,#779,.F.);
#1071=ORIENTED_EDGE('',*,*,#783,.F.);
#1072=ORIENTED_EDGE('',*,*,#787,.F.);
#1073=ORIENTED_EDGE('',*,*,#781,.F.);
#1074=ORIENTED_EDGE('',*,*,#698,.F.);
#1075=ORIENTED_EDGE('',*,*,#649,.F.);
#1076=ORIENTED_EDGE('',*,*,#786,.F.);
#1077=ORIENTED_EDGE('',*,*,#788,.F.);
#1078=ORIENTED_EDGE('',*,*,#719,.F.);
#1079=ORIENTED_EDGE('',*,*,#789,.T.);
#1080=ORIENTED_EDGE('',*,*,#780,.F.);
#1081=ORIENTED_EDGE('',*,*,#789,.F.);
#1082=ORIENTED_EDGE('',*,*,#718,.F.);
#1083=ORIENTED_EDGE('',*,*,#702,.F.);
#1084=ORIENTED_EDGE('',*,*,#728,.T.);
#1085=ORIENTED_EDGE('',*,*,#752,.F.);
#1086=ORIENTED_EDGE('',*,*,#790,.F.);
#1087=ORIENTED_EDGE('',*,*,#791,.T.);
#1088=ORIENTED_EDGE('',*,*,#773,.F.);
#1089=ORIENTED_EDGE('',*,*,#761,.T.);
#1090=ORIENTED_EDGE('',*,*,#792,.F.);
#1091=ORIENTED_EDGE('',*,*,#793,.F.);
#1092=ORIENTED_EDGE('',*,*,#794,.F.);
#1093=ORIENTED_EDGE('',*,*,#794,.T.);
#1094=ORIENTED_EDGE('',*,*,#795,.F.);
#1095=ORIENTED_EDGE('',*,*,#796,.T.);
#1096=ORIENTED_EDGE('',*,*,#774,.T.);
#1097=ORIENTED_EDGE('',*,*,#793,.T.);
#1098=ORIENTED_EDGE('',*,*,#797,.T.);
#1099=ORIENTED_EDGE('',*,*,#798,.T.);
#1100=ORIENTED_EDGE('',*,*,#795,.T.);
#1101=ORIENTED_EDGE('',*,*,#792,.T.);
#1102=ORIENTED_EDGE('',*,*,#681,.F.);
#1103=ORIENTED_EDGE('',*,*,#799,.F.);
#1104=ORIENTED_EDGE('',*,*,#797,.F.);
#1105=ORIENTED_EDGE('',*,*,#800,.F.);
#1106=ORIENTED_EDGE('',*,*,#801,.F.);
#1107=ORIENTED_EDGE('',*,*,#769,.T.);
#1108=ORIENTED_EDGE('',*,*,#777,.F.);
#1109=ORIENTED_EDGE('',*,*,#802,.F.);
#1110=ORIENTED_EDGE('',*,*,#800,.T.);
#1111=ORIENTED_EDGE('',*,*,#803,.F.);
#1112=ORIENTED_EDGE('',*,*,#804,.F.);
#1113=ORIENTED_EDGE('',*,*,#805,.F.);
#1114=ORIENTED_EDGE('',*,*,#802,.T.);
#1115=ORIENTED_EDGE('',*,*,#776,.T.);
#1116=ORIENTED_EDGE('',*,*,#806,.F.);
#1117=ORIENTED_EDGE('',*,*,#803,.T.);
#1118=ORIENTED_EDGE('',*,*,#807,.T.);
#1119=ORIENTED_EDGE('',*,*,#808,.F.);
#1120=ORIENTED_EDGE('',*,*,#809,.F.);
#1121=ORIENTED_EDGE('',*,*,#810,.F.);
#1122=ORIENTED_EDGE('',*,*,#811,.T.);
#1123=ORIENTED_EDGE('',*,*,#810,.T.);
#1124=ORIENTED_EDGE('',*,*,#812,.F.);
#1125=ORIENTED_EDGE('',*,*,#813,.F.);
#1126=ORIENTED_EDGE('',*,*,#686,.F.);
#1127=ORIENTED_EDGE('',*,*,#814,.T.);
#1128=ORIENTED_EDGE('',*,*,#815,.T.);
#1129=ORIENTED_EDGE('',*,*,#816,.T.);
#1130=ORIENTED_EDGE('',*,*,#685,.F.);
#1131=ORIENTED_EDGE('',*,*,#817,.T.);
#1132=ORIENTED_EDGE('',*,*,#807,.F.);
#1133=ORIENTED_EDGE('',*,*,#811,.F.);
#1134=ORIENTED_EDGE('',*,*,#818,.T.);
#1135=ORIENTED_EDGE('',*,*,#814,.F.);
#1136=ORIENTED_EDGE('',*,*,#683,.F.);
#1137=ORIENTED_EDGE('',*,*,#816,.F.);
#1138=ORIENTED_EDGE('',*,*,#819,.F.);
#1139=ORIENTED_EDGE('',*,*,#812,.T.);
#1140=ORIENTED_EDGE('',*,*,#809,.T.);
#1141=ORIENTED_EDGE('',*,*,#820,.T.);
#1142=ORIENTED_EDGE('',*,*,#819,.T.);
#1143=ORIENTED_EDGE('',*,*,#815,.F.);
#1144=ORIENTED_EDGE('',*,*,#818,.F.);
#1145=ORIENTED_EDGE('',*,*,#813,.T.);
#1146=ORIENTED_EDGE('',*,*,#808,.T.);
#1147=ORIENTED_EDGE('',*,*,#817,.F.);
#1148=ORIENTED_EDGE('',*,*,#684,.F.);
#1149=ORIENTED_EDGE('',*,*,#820,.F.);
#1150=ORIENTED_EDGE('',*,*,#707,.F.);
#1151=ORIENTED_EDGE('',*,*,#821,.T.);
#1152=ORIENTED_EDGE('',*,*,#822,.T.);
#1153=ORIENTED_EDGE('',*,*,#749,.F.);
#1154=ORIENTED_EDGE('',*,*,#823,.T.);
#1155=ORIENTED_EDGE('',*,*,#790,.T.);
#1156=ORIENTED_EDGE('',*,*,#751,.F.);
#1157=ORIENTED_EDGE('',*,*,#824,.F.);
#1158=ORIENTED_EDGE('',*,*,#825,.T.);
#1159=ORIENTED_EDGE('',*,*,#824,.T.);
#1160=ORIENTED_EDGE('',*,*,#750,.F.);
#1161=ORIENTED_EDGE('',*,*,#822,.F.);
#1162=ORIENTED_EDGE('',*,*,#796,.F.);
#1163=ORIENTED_EDGE('',*,*,#798,.F.);
#1164=ORIENTED_EDGE('',*,*,#799,.T.);
#1165=ORIENTED_EDGE('',*,*,#680,.F.);
#1166=ORIENTED_EDGE('',*,*,#826,.F.);
#1167=ORIENTED_EDGE('',*,*,#804,.T.);
#1168=ORIENTED_EDGE('',*,*,#806,.T.);
#1169=ORIENTED_EDGE('',*,*,#775,.T.);
#1170=ORIENTED_EDGE('',*,*,#715,.F.);
#1171=ORIENTED_EDGE('',*,*,#827,.F.);
#1172=ORIENTED_EDGE('',*,*,#828,.F.);
#1173=ORIENTED_EDGE('',*,*,#756,.F.);
#1174=ORIENTED_EDGE('',*,*,#741,.T.);
#1175=ORIENTED_EDGE('',*,*,#755,.T.);
#1176=ORIENTED_EDGE('',*,*,#829,.T.);
#1177=ORIENTED_EDGE('',*,*,#830,.T.);
#1178=ORIENTED_EDGE('',*,*,#827,.T.);
#1179=ORIENTED_EDGE('',*,*,#714,.T.);
#1180=ORIENTED_EDGE('',*,*,#757,.F.);
#1181=ORIENTED_EDGE('',*,*,#828,.T.);
#1182=ORIENTED_EDGE('',*,*,#830,.F.);
#1183=ORIENTED_EDGE('',*,*,#831,.F.);
#1184=ORIENTED_EDGE('',*,*,#758,.F.);
#1185=ORIENTED_EDGE('',*,*,#831,.T.);
#1186=ORIENTED_EDGE('',*,*,#829,.F.);
#1187=ORIENTED_EDGE('',*,*,#754,.F.);
#1188=ORIENTED_EDGE('',*,*,#801,.T.);
#1189=ORIENTED_EDGE('',*,*,#805,.T.);
#1190=ORIENTED_EDGE('',*,*,#826,.T.);
#1191=ORIENTED_EDGE('',*,*,#679,.F.);
#1192=ORIENTED_EDGE('',*,*,#764,.T.);
#1193=ORIENTED_EDGE('',*,*,#733,.T.);
#1194=ORIENTED_EDGE('',*,*,#742,.T.);
#1195=ORIENTED_EDGE('',*,*,#739,.T.);
#1196=ORIENTED_EDGE('',*,*,#767,.T.);
#1197=ORIENTED_EDGE('',*,*,#736,.T.);
#1198=ORIENTED_EDGE('',*,*,#729,.T.);
#1199=ORIENTED_EDGE('',*,*,#724,.T.);
#1200=ORIENTED_EDGE('',*,*,#726,.T.);
#1201=ORIENTED_EDGE('',*,*,#791,.F.);
#1202=ORIENTED_EDGE('',*,*,#823,.F.);
#1203=ORIENTED_EDGE('',*,*,#825,.F.);
#1204=ORIENTED_EDGE('',*,*,#821,.F.);
#1205=ORIENTED_EDGE('',*,*,#706,.T.);
#1206=PLANE('',#1352);
#1207=PLANE('',#1353);
#1208=PLANE('',#1354);
#1209=PLANE('',#1355);
#1210=PLANE('',#1356);
#1211=PLANE('',#1357);
#1212=PLANE('',#1358);
#1213=PLANE('',#1359);
#1214=PLANE('',#1360);
#1215=PLANE('',#1361);
#1216=PLANE('',#1362);
#1217=PLANE('',#1363);
#1218=PLANE('',#1364);
#1219=PLANE('',#1365);
#1220=PLANE('',#1366);
#1221=PLANE('',#1367);
#1222=PLANE('',#1368);
#1223=PLANE('',#1369);
#1224=PLANE('',#1370);
#1225=PLANE('',#1371);
#1226=PLANE('',#1372);
#1227=PLANE('',#1373);
#1228=PLANE('',#1374);
#1229=PLANE('',#1375);
#1230=PLANE('',#1376);
#1231=PLANE('',#1377);
#1232=PLANE('',#1378);
#1233=PLANE('',#1379);
#1234=PLANE('',#1380);
#1235=PLANE('',#1381);
#1236=PLANE('',#1382);
#1237=PLANE('',#1383);
#1238=PLANE('',#1384);
#1239=PLANE('',#1385);
#1240=PLANE('',#1386);
#1241=PLANE('',#1387);
#1242=PLANE('',#1388);
#1243=PLANE('',#1389);
#1244=PLANE('',#1390);
#1245=PLANE('',#1391);
#1246=PLANE('',#1392);
#1247=PLANE('',#1393);
#1248=PLANE('',#1394);
#1249=PLANE('',#1395);
#1250=PLANE('',#1396);
#1251=PLANE('',#1397);
#1252=PLANE('',#1398);
#1253=PLANE('',#1399);
#1254=PLANE('',#1400);
#1255=PLANE('',#1401);
#1256=PLANE('',#1402);
#1257=PLANE('',#1403);
#1258=PLANE('',#1404);
#1259=PLANE('',#1405);
#1260=PLANE('',#1406);
#1261=PLANE('',#1407);
#1262=PLANE('',#1408);
#1263=PLANE('',#1409);
#1264=PLANE('',#1410);
#1265=PLANE('',#1411);
#1266=PLANE('',#1412);
#1267=PLANE('',#1413);
#1268=PLANE('',#1414);
#1269=PLANE('',#1415);
#1270=PLANE('',#1416);
#1271=PLANE('',#1417);
#1272=ADVANCED_FACE('',(#16),#1206,.F.);
#1273=ADVANCED_FACE('',(#17),#1207,.T.);
#1274=ADVANCED_FACE('',(#18),#1208,.T.);
#1275=ADVANCED_FACE('',(#19),#1209,.T.);
#1276=ADVANCED_FACE('',(#20),#1210,.T.);
#1277=ADVANCED_FACE('',(#21),#1211,.F.);
#1278=ADVANCED_FACE('',(#22),#1212,.T.);
#1279=ADVANCED_FACE('',(#23,#15),#1213,.F.);
#1280=ADVANCED_FACE('',(#24),#1214,.T.);
#1281=ADVANCED_FACE('',(#25),#1215,.F.);
#1282=ADVANCED_FACE('',(#26),#1216,.F.);
#1283=ADVANCED_FACE('',(#27),#1217,.T.);
#1284=ADVANCED_FACE('',(#28),#1218,.T.);
#1285=ADVANCED_FACE('',(#29),#1219,.F.);
#1286=ADVANCED_FACE('',(#30),#1220,.T.);
#1287=ADVANCED_FACE('',(#31),#1221,.T.);
#1288=ADVANCED_FACE('',(#32),#1222,.T.);
#1289=ADVANCED_FACE('',(#33),#1223,.T.);
#1290=ADVANCED_FACE('',(#34),#1224,.T.);
#1291=ADVANCED_FACE('',(#35),#1225,.T.);
#1292=ADVANCED_FACE('',(#36),#1226,.F.);
#1293=ADVANCED_FACE('',(#37),#1227,.T.);
#1294=ADVANCED_FACE('',(#38),#1228,.T.);
#1295=ADVANCED_FACE('',(#39),#1229,.T.);
#1296=ADVANCED_FACE('',(#40),#1230,.F.);
#1297=ADVANCED_FACE('',(#41),#1231,.T.);
#1298=ADVANCED_FACE('',(#42),#1232,.T.);
#1299=ADVANCED_FACE('',(#43),#1233,.T.);
#1300=ADVANCED_FACE('',(#44),#1234,.T.);
#1301=ADVANCED_FACE('',(#45),#1235,.T.);
#1302=ADVANCED_FACE('',(#46),#1236,.T.);
#1303=ADVANCED_FACE('',(#47),#1237,.F.);
#1304=ADVANCED_FACE('',(#48),#1238,.T.);
#1305=ADVANCED_FACE('',(#49),#1239,.T.);
#1306=ADVANCED_FACE('',(#50),#1240,.T.);
#1307=ADVANCED_FACE('',(#51),#1241,.T.);
#1308=ADVANCED_FACE('',(#52),#1242,.T.);
#1309=ADVANCED_FACE('',(#53),#1243,.T.);
#1310=ADVANCED_FACE('',(#54),#1244,.T.);
#1311=ADVANCED_FACE('',(#55),#1245,.F.);
#1312=ADVANCED_FACE('',(#56),#1246,.T.);
#1313=ADVANCED_FACE('',(#57),#1247,.T.);
#1314=ADVANCED_FACE('',(#58),#1248,.T.);
#1315=ADVANCED_FACE('',(#59),#1249,.F.);
#1316=ADVANCED_FACE('',(#60),#1250,.T.);
#1317=ADVANCED_FACE('',(#61),#1251,.T.);
#1318=ADVANCED_FACE('',(#62),#1252,.F.);
#1319=ADVANCED_FACE('',(#63),#1253,.T.);
#1320=ADVANCED_FACE('',(#64),#1254,.T.);
#1321=ADVANCED_FACE('',(#65),#1255,.T.);
#1322=ADVANCED_FACE('',(#66),#1256,.T.);
#1323=ADVANCED_FACE('',(#67),#1257,.T.);
#1324=ADVANCED_FACE('',(#68),#1258,.T.);
#1325=ADVANCED_FACE('',(#69),#1259,.T.);
#1326=ADVANCED_FACE('',(#70),#1260,.F.);
#1327=ADVANCED_FACE('',(#71),#1261,.T.);
#1328=ADVANCED_FACE('',(#72),#1262,.T.);
#1329=ADVANCED_FACE('',(#73),#1263,.T.);
#1330=ADVANCED_FACE('',(#74),#1264,.T.);
#1331=ADVANCED_FACE('',(#75),#1265,.T.);
#1332=ADVANCED_FACE('',(#76),#1266,.T.);
#1333=ADVANCED_FACE('',(#77),#1267,.T.);
#1334=ADVANCED_FACE('',(#78),#1268,.T.);
#1335=ADVANCED_FACE('',(#79),#1269,.T.);
#1336=ADVANCED_FACE('',(#80),#1270,.T.);
#1337=ADVANCED_FACE('',(#81),#1271,.T.);
#1338=CLOSED_SHELL('',(#1272,#1273,#1274,#1275,#1276,#1277,#1278,#1279,
#1280,#1281,#1282,#1283,#1284,#1285,#1286,#1287,#1288,#1289,#1290,#1291,
#1292,#1293,#1294,#1295,#1296,#1297,#1298,#1299,#1300,#1301,#1302,#1303,
#1304,#1305,#1306,#1307,#1308,#1309,#1310,#1311,#1312,#1313,#1314,#1315,
#1316,#1317,#1318,#1319,#1320,#1321,#1322,#1323,#1324,#1325,#1326,#1327,
#1328,#1329,#1330,#1331,#1332,#1333,#1334,#1335,#1336,#1337));
#1339=DERIVED_UNIT_ELEMENT(#1341,1.);
#1340=DERIVED_UNIT_ELEMENT(#2120,-3.);
#1341=(
MASS_UNIT()
NAMED_UNIT(*)
SI_UNIT(.KILO.,.GRAM.)
);
#1342=DERIVED_UNIT((#1339,#1340));
#1343=MEASURE_REPRESENTATION_ITEM('density measure',
POSITIVE_RATIO_MEASURE(7850.),#1342);
#1344=PROPERTY_DEFINITION_REPRESENTATION(#1349,#1346);
#1345=PROPERTY_DEFINITION_REPRESENTATION(#1350,#1347);
#1346=REPRESENTATION('material name',(#1348),#2117);
#1347=REPRESENTATION('density',(#1343),#2117);
#1348=DESCRIPTIVE_REPRESENTATION_ITEM('\X2\94A2\X0\','\X2\94A2\X0\');
#1349=PROPERTY_DEFINITION('material property','material name',#2127);
#1350=PROPERTY_DEFINITION('material property','density of part',#2127);
#1351=AXIS2_PLACEMENT_3D('',#1739,#1418,#1419);
#1352=AXIS2_PLACEMENT_3D('',#1740,#1420,#1421);
#1353=AXIS2_PLACEMENT_3D('',#1749,#1426,#1427);
#1354=AXIS2_PLACEMENT_3D('',#1758,#1432,#1433);
#1355=AXIS2_PLACEMENT_3D('',#1769,#1440,#1441);
#1356=AXIS2_PLACEMENT_3D('',#1777,#1446,#1447);
#1357=AXIS2_PLACEMENT_3D('',#1796,#1458,#1459);
#1358=AXIS2_PLACEMENT_3D('',#1802,#1463,#1464);
#1359=AXIS2_PLACEMENT_3D('',#1806,#1467,#1468);
#1360=AXIS2_PLACEMENT_3D('',#1824,#1478,#1479);
#1361=AXIS2_PLACEMENT_3D('',#1830,#1483,#1484);
#1362=AXIS2_PLACEMENT_3D('',#1834,#1487,#1488);
#1363=AXIS2_PLACEMENT_3D('',#1846,#1495,#1496);
#1364=AXIS2_PLACEMENT_3D('',#1852,#1500,#1501);
#1365=AXIS2_PLACEMENT_3D('',#1858,#1505,#1506);
#1366=AXIS2_PLACEMENT_3D('',#1892,#1525,#1526);
#1367=AXIS2_PLACEMENT_3D('',#1902,#1532,#1533);
#1368=AXIS2_PLACEMENT_3D('',#1909,#1538,#1539);
#1369=AXIS2_PLACEMENT_3D('',#1919,#1545,#1546);
#1370=AXIS2_PLACEMENT_3D('',#1923,#1549,#1550);
#1371=AXIS2_PLACEMENT_3D('',#1929,#1554,#1555);
#1372=AXIS2_PLACEMENT_3D('',#1934,#1559,#1560);
#1373=AXIS2_PLACEMENT_3D('',#1944,#1566,#1567);
#1374=AXIS2_PLACEMENT_3D('',#1952,#1572,#1573);
#1375=AXIS2_PLACEMENT_3D('',#1958,#1577,#1578);
#1376=AXIS2_PLACEMENT_3D('',#1964,#1582,#1583);
#1377=AXIS2_PLACEMENT_3D('',#1967,#1586,#1587);
#1378=AXIS2_PLACEMENT_3D('',#1973,#1591,#1592);
#1379=AXIS2_PLACEMENT_3D('',#1974,#1593,#1594);
#1380=AXIS2_PLACEMENT_3D('',#1979,#1598,#1599);
#1381=AXIS2_PLACEMENT_3D('',#1981,#1601,#1602);
#1382=AXIS2_PLACEMENT_3D('',#1985,#1605,#1606);
#1383=AXIS2_PLACEMENT_3D('',#1991,#1610,#1611);
#1384=AXIS2_PLACEMENT_3D('',#2001,#1617,#1618);
#1385=AXIS2_PLACEMENT_3D('',#2005,#1621,#1622);
#1386=AXIS2_PLACEMENT_3D('',#2011,#1626,#1627);
#1387=AXIS2_PLACEMENT_3D('',#2017,#1631,#1632);
#1388=AXIS2_PLACEMENT_3D('',#2020,#1635,#1636);
#1389=AXIS2_PLACEMENT_3D('',#2022,#1638,#1639);
#1390=AXIS2_PLACEMENT_3D('',#2023,#1640,#1641);
#1391=AXIS2_PLACEMENT_3D('',#2025,#1643,#1644);
#1392=AXIS2_PLACEMENT_3D('',#2026,#1645,#1646);
#1393=AXIS2_PLACEMENT_3D('',#2030,#1649,#1650);
#1394=AXIS2_PLACEMENT_3D('',#2036,#1654,#1655);
#1395=AXIS2_PLACEMENT_3D('',#2040,#1658,#1659);
#1396=AXIS2_PLACEMENT_3D('',#2044,#1662,#1663);
#1397=AXIS2_PLACEMENT_3D('',#2046,#1665,#1666);
#1398=AXIS2_PLACEMENT_3D('',#2052,#1670,#1671);
#1399=AXIS2_PLACEMENT_3D('',#2058,#1675,#1676);
#1400=AXIS2_PLACEMENT_3D('',#2060,#1678,#1679);
#1401=AXIS2_PLACEMENT_3D('',#2069,#1684,#1685);
#1402=AXIS2_PLACEMENT_3D('',#2075,#1689,#1690);
#1403=AXIS2_PLACEMENT_3D('',#2081,#1694,#1695);
#1404=AXIS2_PLACEMENT_3D('',#2084,#1698,#1699);
#1405=AXIS2_PLACEMENT_3D('',#2087,#1702,#1703);
#1406=AXIS2_PLACEMENT_3D('',#2088,#1704,#1705);
#1407=AXIS2_PLACEMENT_3D('',#2089,#1706,#1707);
#1408=AXIS2_PLACEMENT_3D('',#2093,#1710,#1711);
#1409=AXIS2_PLACEMENT_3D('',#2097,#1714,#1715);
#1410=AXIS2_PLACEMENT_3D('',#2099,#1717,#1718);
#1411=AXIS2_PLACEMENT_3D('',#2101,#1720,#1721);
#1412=AXIS2_PLACEMENT_3D('',#2105,#1724,#1725);
#1413=AXIS2_PLACEMENT_3D('',#2109,#1728,#1729);
#1414=AXIS2_PLACEMENT_3D('',#2111,#1731,#1732);
#1415=AXIS2_PLACEMENT_3D('',#2112,#1733,#1734);
#1416=AXIS2_PLACEMENT_3D('',#2113,#1735,#1736);
#1417=AXIS2_PLACEMENT_3D('',#2114,#1737,#1738);
#1418=DIRECTION('axis',(0.,0.,1.));
#1419=DIRECTION('refdir',(1.,0.,0.));
#1420=DIRECTION('center_axis',(0.,0.,1.));
#1421=DIRECTION('ref_axis',(1.,0.,0.));
#1422=DIRECTION('',(0.,1.,0.));
#1423=DIRECTION('',(1.,0.,0.));
#1424=DIRECTION('',(0.,-1.,0.));
#1425=DIRECTION('',(-1.,0.,0.));
#1426=DIRECTION('center_axis',(0.,0.,1.));
#1427=DIRECTION('ref_axis',(1.,0.,0.));
#1428=DIRECTION('',(-1.,0.,0.));
#1429=DIRECTION('',(0.,-1.,0.));
#1430=DIRECTION('',(1.,0.,0.));
#1431=DIRECTION('',(0.,1.,0.));
#1432=DIRECTION('center_axis',(-1.,0.,0.));
#1433=DIRECTION('ref_axis',(0.,-1.,0.));
#1434=DIRECTION('',(0.,-0.516534444377697,0.856266411680047));
#1435=DIRECTION('',(0.,-0.884582190392879,0.466384335542841));
#1436=DIRECTION('',(0.,0.,1.));
#1437=DIRECTION('',(0.,-1.,0.));
#1438=DIRECTION('',(0.,0.,1.));
#1439=DIRECTION('',(0.,0.,1.));
#1440=DIRECTION('center_axis',(0.,1.,0.));
#1441=DIRECTION('ref_axis',(-1.,0.,0.));
#1442=DIRECTION('',(1.,0.,0.));
#1443=DIRECTION('',(0.,0.,1.));
#1444=DIRECTION('',(-1.,0.,0.));
#1445=DIRECTION('',(0.,0.,1.));
#1446=DIRECTION('center_axis',(1.,0.,0.));
#1447=DIRECTION('ref_axis',(0.,1.,0.));
#1448=DIRECTION('',(0.,-1.,0.));
#1449=DIRECTION('',(0.,1.,0.));
#1450=DIRECTION('',(0.,0.,-1.));
#1451=DIRECTION('',(0.,-1.,0.));
#1452=DIRECTION('',(0.,0.,-1.));
#1453=DIRECTION('',(0.,0.884582190392879,-0.46638433554284));
#1454=DIRECTION('',(0.,0.516534444377697,-0.856266411680047));
#1455=DIRECTION('',(0.,0.,1.));
#1456=DIRECTION('',(0.,-1.,0.));
#1457=DIRECTION('',(0.,0.,1.));
#1458=DIRECTION('center_axis',(0.,-1.,0.));
#1459=DIRECTION('ref_axis',(0.,0.,-1.));
#1460=DIRECTION('',(-1.,0.,0.));
#1461=DIRECTION('',(0.,0.,1.));
#1462=DIRECTION('',(1.,0.,0.));
#1463=DIRECTION('center_axis',(0.,0.,1.));
#1464=DIRECTION('ref_axis',(1.,0.,0.));
#1465=DIRECTION('',(-1.,0.,0.));
#1466=DIRECTION('',(0.,-1.,0.));
#1467=DIRECTION('center_axis',(0.,1.,0.));
#1468=DIRECTION('ref_axis',(1.,0.,0.));
#1469=DIRECTION('',(0.,0.,-1.));
#1470=DIRECTION('',(0.,0.,-1.));
#1471=DIRECTION('',(1.,0.,0.));
#1472=DIRECTION('',(0.,0.,1.));
#1473=DIRECTION('',(0.,0.,1.));
#1474=DIRECTION('',(0.,0.,-1.));
#1475=DIRECTION('',(-1.,0.,0.));
#1476=DIRECTION('',(0.,0.,1.));
#1477=DIRECTION('',(1.,0.,0.));
#1478=DIRECTION('center_axis',(0.,0.,1.));
#1479=DIRECTION('ref_axis',(1.,0.,0.));
#1480=DIRECTION('',(1.,0.,0.));
#1481=DIRECTION('',(0.,1.,0.));
#1482=DIRECTION('',(1.,0.,0.));
#1483=DIRECTION('center_axis',(0.,1.,0.));
#1484=DIRECTION('ref_axis',(-1.,0.,0.));
#1485=DIRECTION('',(1.,0.,0.));
#1486=DIRECTION('',(0.,0.,-1.));
#1487=DIRECTION('center_axis',(0.,0.,1.));
#1488=DIRECTION('ref_axis',(0.,-1.,0.));
#1489=DIRECTION('',(1.,0.,0.));
#1490=DIRECTION('',(0.,-1.,0.));
#1491=DIRECTION('',(1.,0.,0.));
#1492=DIRECTION('',(0.,1.,0.));
#1493=DIRECTION('',(1.,0.,0.));
#1494=DIRECTION('',(0.,1.,0.));
#1495=DIRECTION('center_axis',(0.,-0.856266411680047,-0.516534444377697));
#1496=DIRECTION('ref_axis',(-1.,0.,0.));
#1497=DIRECTION('',(-1.,0.,0.));
#1498=DIRECTION('',(-0.4589273254678,0.458927325467805,-0.760770280622173));
#1499=DIRECTION('',(1.,0.,0.));
#1500=DIRECTION('center_axis',(0.,-0.46638433554284,-0.884582190392879));
#1501=DIRECTION('ref_axis',(0.,0.884582190392879,-0.46638433554284));
#1502=DIRECTION('',(0.662559934178397,-0.662559934178397,0.349326018560081));
#1503=DIRECTION('',(0.,0.884582190392879,-0.46638433554284));
#1504=DIRECTION('',(1.,0.,0.));
#1505=DIRECTION('center_axis',(0.,1.,0.));
#1506=DIRECTION('ref_axis',(1.,0.,0.));
#1507=DIRECTION('',(0.,0.,1.));
#1508=DIRECTION('',(0.707106781186547,0.,0.707106781186548));
#1509=DIRECTION('',(1.,0.,0.));
#1510=DIRECTION('',(0.,0.,1.));
#1511=DIRECTION('',(-1.,0.,0.));
#1512=DIRECTION('',(0.,0.,1.));
#1513=DIRECTION('',(-0.707106781186547,0.,0.707106781186547));
#1514=DIRECTION('',(-1.,0.,0.));
#1515=DIRECTION('',(-0.707106781186548,0.,-0.707106781186547));
#1516=DIRECTION('',(0.,0.,-1.));
#1517=DIRECTION('',(-1.,0.,0.));
#1518=DIRECTION('',(0.,0.,-1.));
#1519=DIRECTION('',(1.,0.,0.));
#1520=DIRECTION('',(0.707106781186548,0.,-0.707106781186548));
#1521=DIRECTION('',(0.,0.,1.));
#1522=DIRECTION('',(1.,0.,0.));
#1523=DIRECTION('',(0.,0.,-1.));
#1524=DIRECTION('',(1.,0.,0.));
#1525=DIRECTION('center_axis',(0.707106781186548,0.,-0.707106781186547));
#1526=DIRECTION('ref_axis',(-0.707106781186547,0.,-0.707106781186548));
#1527=DIRECTION('',(-0.577350269189625,0.577350269189627,-0.577350269189625));
#1528=DIRECTION('',(0.,1.,0.));
#1529=DIRECTION('',(-0.707106781186547,0.,-0.707106781186548));
#1530=DIRECTION('',(0.,1.,0.));
#1531=DIRECTION('',(0.,1.,0.));
#1532=DIRECTION('center_axis',(1.,0.,0.));
#1533=DIRECTION('ref_axis',(0.,0.,-1.));
#1534=DIRECTION('',(0.,-1.,0.));
#1535=DIRECTION('',(0.,0.,1.));
#1536=DIRECTION('',(0.,0.,-1.));
#1537=DIRECTION('',(0.,1.,0.));
#1538=DIRECTION('center_axis',(-0.707106781186548,0.,-0.707106781186548));
#1539=DIRECTION('ref_axis',(-0.707106781186548,0.,0.707106781186548));
#1540=DIRECTION('',(0.,-1.,0.));
#1541=DIRECTION('',(0.,1.,0.));
#1542=DIRECTION('',(-0.707106781186547,0.,0.707106781186547));
#1543=DIRECTION('',(0.,1.,0.));
#1544=DIRECTION('',(-0.577350269189625,-0.577350269189627,0.577350269189625));
#1545=DIRECTION('center_axis',(0.707106781186548,0.,0.707106781186548));
#1546=DIRECTION('ref_axis',(0.707106781186548,0.,-0.707106781186548));
#1547=DIRECTION('',(0.707106781186547,0.,-0.707106781186547));
#1548=DIRECTION('',(0.,1.,0.));
#1549=DIRECTION('center_axis',(-0.707106781186547,0.,0.707106781186548));
#1550=DIRECTION('ref_axis',(0.707106781186548,0.,0.707106781186547));
#1551=DIRECTION('',(0.,1.,0.));
#1552=DIRECTION('',(0.707106781186548,0.,0.707106781186547));
#1553=DIRECTION('',(0.,1.,0.));
#1554=DIRECTION('center_axis',(-1.,0.,0.));
#1555=DIRECTION('ref_axis',(0.,0.,1.));
#1556=DIRECTION('',(0.,1.,0.));
#1557=DIRECTION('',(0.,0.,1.));
#1558=DIRECTION('',(0.,0.,-1.));
#1559=DIRECTION('center_axis',(0.,0.707106781186546,0.707106781186549));
#1560=DIRECTION('ref_axis',(0.,-0.707106781186549,0.707106781186546));
#1561=DIRECTION('',(0.,-0.707106781186549,0.707106781186546));
#1562=DIRECTION('',(1.,0.,0.));
#1563=DIRECTION('',(0.,0.707106781186549,-0.707106781186546));
#1564=DIRECTION('',(-1.,0.,0.));
#1565=DIRECTION('',(-1.,0.,0.));
#1566=DIRECTION('center_axis',(0.,0.,1.));
#1567=DIRECTION('ref_axis',(1.,0.,0.));
#1568=DIRECTION('',(0.,-1.,0.));
#1569=DIRECTION('',(1.,0.,0.));
#1570=DIRECTION('',(0.,1.,0.));
#1571=DIRECTION('',(-0.707106781186545,0.70710678118655,0.));
#1572=DIRECTION('center_axis',(-0.70710678118655,0.707106781186545,0.));
#1573=DIRECTION('ref_axis',(-0.707106781186545,-0.70710678118655,0.));
#1574=DIRECTION('',(0.707106781186545,0.70710678118655,0.));
#1575=DIRECTION('',(0.,0.,1.));
#1576=DIRECTION('',(-0.707106781186545,-0.70710678118655,0.));
#1577=DIRECTION('center_axis',(0.,0.,-1.));
#1578=DIRECTION('ref_axis',(-1.,0.,0.));
#1579=DIRECTION('',(0.,-1.,0.));
#1580=DIRECTION('',(-1.,0.,0.));
#1581=DIRECTION('',(0.,1.,0.));
#1582=DIRECTION('center_axis',(0.,0.,-1.));
#1583=DIRECTION('ref_axis',(0.,1.,0.));
#1584=DIRECTION('',(0.,-1.,0.));
#1585=DIRECTION('',(0.,1.,0.));
#1586=DIRECTION('center_axis',(1.,0.,0.));
#1587=DIRECTION('ref_axis',(0.,0.,-1.));
#1588=DIRECTION('',(0.,-1.,0.));
#1589=DIRECTION('',(0.,0.705508805869378,0.708701153407248));
#1590=DIRECTION('',(0.,-1.,0.));
#1591=DIRECTION('center_axis',(1.,0.,0.));
#1592=DIRECTION('ref_axis',(0.,0.,-1.));
#1593=DIRECTION('center_axis',(0.,0.,-1.));
#1594=DIRECTION('ref_axis',(-1.,0.,0.));
#1595=DIRECTION('',(-1.,0.,0.));
#1596=DIRECTION('',(1.,0.,0.));
#1597=DIRECTION('',(0.,1.,0.));
#1598=DIRECTION('center_axis',(0.,0.,1.));
#1599=DIRECTION('ref_axis',(1.,0.,0.));
#1600=DIRECTION('',(1.,0.,0.));
#1601=DIRECTION('center_axis',(-1.,0.,0.));
#1602=DIRECTION('ref_axis',(0.,0.,1.));
#1603=DIRECTION('',(0.,0.705508805869378,0.708701153407248));
#1604=DIRECTION('',(0.,1.,0.));
#1605=DIRECTION('center_axis',(0.,-0.46638433554284,-0.884582190392879));
#1606=DIRECTION('ref_axis',(0.,0.884582190392879,-0.46638433554284));
#1607=DIRECTION('',(0.,0.884582190392879,-0.46638433554284));
#1608=DIRECTION('',(0.662559934178396,0.662559934178397,-0.349326018560081));
#1609=DIRECTION('',(1.,0.,0.));
#1610=DIRECTION('center_axis',(0.,-0.708701153407248,0.705508805869378));
#1611=DIRECTION('ref_axis',(0.,-0.705508805869378,-0.708701153407248));
#1612=DIRECTION('',(1.,0.,0.));
#1613=DIRECTION('',(-0.451644182449559,0.629453648873394,0.632301855429382));
#1614=DIRECTION('',(1.,0.,0.));
#1615=DIRECTION('',(-0.451644182449558,-0.629453648873395,-0.632301855429383));
#1616=DIRECTION('',(1.,0.,0.));
#1617=DIRECTION('center_axis',(0.,-0.856266411680047,-0.516534444377697));
#1618=DIRECTION('ref_axis',(-1.,0.,0.));
#1619=DIRECTION('',(-0.458927325467797,-0.458927325467806,0.760770280622174));
#1620=DIRECTION('',(-1.,0.,0.));
#1621=DIRECTION('center_axis',(-0.707106781186548,-0.707106781186548,0.));
#1622=DIRECTION('ref_axis',(0.,0.,1.));
#1623=DIRECTION('',(0.,0.,-1.));
#1624=DIRECTION('',(0.,0.,1.));
#1625=DIRECTION('',(-0.577350269189626,0.577350269189626,0.577350269189626));
#1626=DIRECTION('center_axis',(0.707106781186548,-0.707106781186547,0.));
#1627=DIRECTION('ref_axis',(0.,0.,-1.));
#1628=DIRECTION('',(0.,0.,-1.));
#1629=DIRECTION('',(0.,0.,1.));
#1630=DIRECTION('',(0.577350269189625,0.577350269189626,0.577350269189626));
#1631=DIRECTION('center_axis',(0.,-0.707106781186548,0.707106781186548));
#1632=DIRECTION('ref_axis',(1.,0.,0.));
#1633=DIRECTION('',(-1.,0.,0.));
#1634=DIRECTION('',(1.,0.,0.));
#1635=DIRECTION('center_axis',(1.,0.,0.));
#1636=DIRECTION('ref_axis',(0.,0.,-1.));
#1637=DIRECTION('',(0.,-1.,0.));
#1638=DIRECTION('center_axis',(0.,-1.,0.));
#1639=DIRECTION('ref_axis',(0.,0.,-1.));
#1640=DIRECTION('center_axis',(0.,0.,1.));
#1641=DIRECTION('ref_axis',(0.,-1.,0.));
#1642=DIRECTION('',(0.,-1.,0.));
#1643=DIRECTION('center_axis',(1.,0.,0.));
#1644=DIRECTION('ref_axis',(0.,0.,-1.));
#1645=DIRECTION('center_axis',(0.70710678118655,0.707106781186545,0.));
#1646=DIRECTION('ref_axis',(-0.707106781186545,0.70710678118655,0.));
#1647=DIRECTION('',(0.,0.,1.));
#1648=DIRECTION('',(-0.707106781186545,0.70710678118655,0.));
#1649=DIRECTION('center_axis',(0.,0.,1.));
#1650=DIRECTION('ref_axis',(1.,0.,0.));
#1651=DIRECTION('',(0.,1.,0.));
#1652=DIRECTION('',(-1.,0.,0.));
#1653=DIRECTION('',(0.,-1.,0.));
#1654=DIRECTION('center_axis',(0.813733471206735,0.,0.581238193719096));
#1655=DIRECTION('ref_axis',(0.581238193719096,0.,-0.813733471206735));
#1656=DIRECTION('',(-0.581238193719096,0.,0.813733471206735));
#1657=DIRECTION('',(0.,1.,0.));
#1658=DIRECTION('center_axis',(0.,1.,0.));
#1659=DIRECTION('ref_axis',(1.,0.,0.));
#1660=DIRECTION('',(0.,0.,-1.));
#1661=DIRECTION('',(1.,0.,0.));
#1662=DIRECTION('center_axis',(-1.,0.,0.));
#1663=DIRECTION('ref_axis',(0.,0.,1.));
#1664=DIRECTION('',(0.,1.,0.));
#1665=DIRECTION('center_axis',(0.,0.,1.));
#1666=DIRECTION('ref_axis',(1.,0.,0.));
#1667=DIRECTION('',(-1.,0.,0.));
#1668=DIRECTION('',(0.,-1.,0.));
#1669=DIRECTION('',(0.,1.,0.));
#1670=DIRECTION('center_axis',(0.,1.,0.));
#1671=DIRECTION('ref_axis',(1.,0.,0.));
#1672=DIRECTION('',(0.581238193719095,0.,0.813733471206736));
#1673=DIRECTION('',(-1.,0.,0.));
#1674=DIRECTION('',(0.,0.,-1.));
#1675=DIRECTION('center_axis',(-0.813733471206736,0.,0.581238193719095));
#1676=DIRECTION('ref_axis',(0.581238193719095,0.,0.813733471206736));
#1677=DIRECTION('',(0.,1.,0.));
#1678=DIRECTION('center_axis',(0.,0.707106781186548,-0.707106781186548));
#1679=DIRECTION('ref_axis',(0.,0.707106781186548,0.707106781186548));
#1680=DIRECTION('',(0.,0.707106781186547,0.707106781186547));
#1681=DIRECTION('',(-1.,0.,0.));
#1682=DIRECTION('',(0.,0.707106781186547,0.707106781186547));
#1683=DIRECTION('',(1.,0.,0.));
#1684=DIRECTION('center_axis',(0.,0.,-1.));
#1685=DIRECTION('ref_axis',(0.,1.,0.));
#1686=DIRECTION('',(0.,1.,0.));
#1687=DIRECTION('',(0.,1.,0.));
#1688=DIRECTION('',(1.,0.,0.));
#1689=DIRECTION('center_axis',(0.,0.,1.));
#1690=DIRECTION('ref_axis',(1.,0.,0.));
#1691=DIRECTION('',(0.,-1.,0.));
#1692=DIRECTION('',(1.,0.,0.));
#1693=DIRECTION('',(0.,1.,0.));
#1694=DIRECTION('center_axis',(-1.,0.,0.));
#1695=DIRECTION('ref_axis',(0.,-1.,0.));
#1696=DIRECTION('',(0.,-1.,0.));
#1697=DIRECTION('',(0.,0.,1.));
#1698=DIRECTION('center_axis',(1.,0.,0.));
#1699=DIRECTION('ref_axis',(0.,1.,0.));
#1700=DIRECTION('',(0.,0.,1.));
#1701=DIRECTION('',(0.,1.,0.));
#1702=DIRECTION('center_axis',(0.,-1.,0.));
#1703=DIRECTION('ref_axis',(1.,0.,0.));
#1704=DIRECTION('center_axis',(0.,0.,1.));
#1705=DIRECTION('ref_axis',(1.,0.,0.));
#1706=DIRECTION('center_axis',(-1.,0.,0.));
#1707=DIRECTION('ref_axis',(0.,-1.,0.));
#1708=DIRECTION('',(0.,-1.,0.));
#1709=DIRECTION('',(0.,0.,1.));
#1710=DIRECTION('center_axis',(1.,0.,0.));
#1711=DIRECTION('ref_axis',(0.,1.,0.));
#1712=DIRECTION('',(0.,1.,0.));
#1713=DIRECTION('',(0.,0.,1.));
#1714=DIRECTION('center_axis',(0.,-1.,0.));
#1715=DIRECTION('ref_axis',(1.,0.,0.));
#1716=DIRECTION('',(1.,0.,0.));
#1717=DIRECTION('center_axis',(0.,0.,-1.));
#1718=DIRECTION('ref_axis',(-1.,0.,0.));
#1719=DIRECTION('',(0.,1.,0.));
#1720=DIRECTION('center_axis',(1.,0.,0.));
#1721=DIRECTION('ref_axis',(0.,1.,0.));
#1722=DIRECTION('',(0.,1.,0.));
#1723=DIRECTION('',(0.,0.,1.));
#1724=DIRECTION('center_axis',(0.,0.,1.));
#1725=DIRECTION('ref_axis',(1.,0.,0.));
#1726=DIRECTION('',(0.,-1.,0.));
#1727=DIRECTION('',(1.,0.,0.));
#1728=DIRECTION('center_axis',(0.,-1.,0.));
#1729=DIRECTION('ref_axis',(1.,0.,0.));
#1730=DIRECTION('',(0.,0.,1.));
#1731=DIRECTION('center_axis',(-1.,0.,0.));
#1732=DIRECTION('ref_axis',(0.,-1.,0.));
#1733=DIRECTION('center_axis',(1.,0.,0.));
#1734=DIRECTION('ref_axis',(0.,0.,-1.));
#1735=DIRECTION('center_axis',(0.,1.,0.));
#1736=DIRECTION('ref_axis',(0.,0.,1.));
#1737=DIRECTION('center_axis',(0.,0.,-1.));
#1738=DIRECTION('ref_axis',(-1.,0.,0.));
#1739=CARTESIAN_POINT('',(0.,0.,0.));
#1740=CARTESIAN_POINT('Origin',(-6.4958590479,32.7,-8.1));
#1741=CARTESIAN_POINT('',(-7.795844,31.9,-8.1));
#1742=CARTESIAN_POINT('',(-7.795844,33.5,-8.1));
#1743=CARTESIAN_POINT('',(-7.795844,32.3,-8.1));
#1744=CARTESIAN_POINT('',(-7.7958590479,31.9,-8.1));
#1745=CARTESIAN_POINT('',(-7.7958590479,31.9,-8.1));
#1746=CARTESIAN_POINT('',(-7.7958590479,33.5,-8.1));
#1747=CARTESIAN_POINT('',(-7.7958590479,33.5,-8.1));
#1748=CARTESIAN_POINT('',(-5.1958590479,33.5,-8.1));
#1749=CARTESIAN_POINT('Origin',(-6.4958590479,32.7,-6.3));
#1750=CARTESIAN_POINT('',(-5.1958590479,31.9826554016,-6.3));
#1751=CARTESIAN_POINT('',(-7.7958590479,31.9826554016,-6.3));
#1752=CARTESIAN_POINT('',(-8.4958590479,31.9826554016,-6.3));
#1753=CARTESIAN_POINT('',(-7.7958590479,31.9,-6.3));
#1754=CARTESIAN_POINT('',(-7.7958590479,33.5,-6.3));
#1755=CARTESIAN_POINT('',(-5.1958590479,31.9,-6.3));
#1756=CARTESIAN_POINT('',(-7.7958590479,31.9,-6.3));
#1757=CARTESIAN_POINT('',(-5.1958590479,31.9,-6.3));
#1758=CARTESIAN_POINT('Origin',(-7.7958590479,33.5,-8.1));
#1759=CARTESIAN_POINT('',(-7.7958590479,32.1595718396786,-6.59327686710857));
#1760=CARTESIAN_POINT('',(-7.7958590479,32.6273662083179,-7.36874616987979));
#1761=CARTESIAN_POINT('',(-7.7958590479,32.4,-6.72003945515875));
#1762=CARTESIAN_POINT('',(-7.7958590479,32.9063498116398,-6.98700573937589));
#1763=CARTESIAN_POINT('',(-7.7958590479,32.4,-7.4));
#1764=CARTESIAN_POINT('',(-7.7958590479,32.4,-6.675));
#1765=CARTESIAN_POINT('',(-7.7958590479,33.5,-7.4));
#1766=CARTESIAN_POINT('',(-7.7958590479,33.595,-7.4));
#1767=CARTESIAN_POINT('',(-7.7958590479,33.5,-8.1));
#1768=CARTESIAN_POINT('',(-7.7958590479,31.9,-8.1));
#1769=CARTESIAN_POINT('Origin',(-5.1958590479,33.5,-8.1));
#1770=CARTESIAN_POINT('',(-7.795844,33.5,-7.71));
#1771=CARTESIAN_POINT('',(-5.1958590479,33.5,-7.71));
#1772=CARTESIAN_POINT('',(-7.5958590479,33.5,-7.71));
#1773=CARTESIAN_POINT('',(-7.795844,33.5,-8.1));
#1774=CARTESIAN_POINT('',(-5.1958590479,33.5,-7.4));
#1775=CARTESIAN_POINT('',(-7.5958590479,33.5,-7.4));
#1776=CARTESIAN_POINT('',(-5.1958590479,33.5,-8.1));
#1777=CARTESIAN_POINT('Origin',(-5.1958590479,31.9,-8.1));
#1778=CARTESIAN_POINT('',(-5.1958590479,32.39,-7.71));
#1779=CARTESIAN_POINT('',(-5.1958590479,32.145,-7.71));
#1780=CARTESIAN_POINT('',(-5.1958590479,32.39,-7.4));
#1781=CARTESIAN_POINT('',(-5.1958590479,32.795,-7.4));
#1782=CARTESIAN_POINT('',(-5.1958590479,32.39,-7.25));
#1783=CARTESIAN_POINT('',(-5.1958590479,32.39,-7.8));
#1784=CARTESIAN_POINT('',(-5.1958590479,32.4,-7.25));
#1785=CARTESIAN_POINT('',(-5.1958590479,31.9,-7.25));
#1786=CARTESIAN_POINT('',(-5.1958590479,32.4,-6.72003945515875));
#1787=CARTESIAN_POINT('',(-5.1958590479,32.4,-6.675));
#1788=CARTESIAN_POINT('',(-5.1958590479,32.1595718396786,-6.59327686710857));
#1789=CARTESIAN_POINT('',(-5.1958590479,32.2803612903916,-6.65696151769636));
#1790=CARTESIAN_POINT('',(-5.1958590479,32.413919942535,-7.01491329372264));
#1791=CARTESIAN_POINT('',(-5.1958590479,31.9,-7.5));
#1792=CARTESIAN_POINT('',(-5.1958590479,31.9,-8.1));
#1793=CARTESIAN_POINT('',(-5.1958590479,32.39,-7.5));
#1794=CARTESIAN_POINT('',(-5.1958590479,32.02,-7.5));
#1795=CARTESIAN_POINT('',(-5.1958590479,32.39,-7.75));
#1796=CARTESIAN_POINT('Origin',(-9.9958590479,32.39,-7.4));
#1797=CARTESIAN_POINT('',(-5.195844,32.39,-7.5));
#1798=CARTESIAN_POINT('',(-5.185844,32.39,-7.5));
#1799=CARTESIAN_POINT('',(-5.195844,32.39,-7.71));
#1800=CARTESIAN_POINT('',(-5.195844,32.39,-7.325));
#1801=CARTESIAN_POINT('',(-9.9958590479,32.39,-7.71));
#1802=CARTESIAN_POINT('Origin',(-6.495844,32.14,-7.5));
#1803=CARTESIAN_POINT('',(-5.195844,31.9,-7.5));
#1804=CARTESIAN_POINT('',(-6.495844,31.9,-7.5));
#1805=CARTESIAN_POINT('',(-5.195844,32.02,-7.5));
#1806=CARTESIAN_POINT('Origin',(-6.495844,31.9,-8.375));
#1807=CARTESIAN_POINT('',(-7.795844,31.9,-8.2));
#1808=CARTESIAN_POINT('',(-7.795844,31.9,-7.25));
#1809=CARTESIAN_POINT('',(-7.795844,31.9,-9.5));
#1810=CARTESIAN_POINT('',(-7.795844,31.9,-8.2375));
#1811=CARTESIAN_POINT('',(-5.195844,31.9,-9.5));
#1812=CARTESIAN_POINT('',(-9.295844,31.9,-9.5));
#1813=CARTESIAN_POINT('',(-5.195844,31.9,-8.2));
#1814=CARTESIAN_POINT('',(-5.195844,31.9,-8.9375));
#1815=CARTESIAN_POINT('',(-5.195844,31.9,-8.1));
#1816=CARTESIAN_POINT('',(-5.645844,31.9,-8.1));
#1817=CARTESIAN_POINT('',(-5.645844,31.9,-9.1));
#1818=CARTESIAN_POINT('',(-5.645844,31.9,-8.7375));
#1819=CARTESIAN_POINT('',(-7.345844,31.9,-9.1));
#1820=CARTESIAN_POINT('',(-6.495844,31.9,-9.1));
#1821=CARTESIAN_POINT('',(-7.345844,31.9,-8.1));
#1822=CARTESIAN_POINT('',(-7.345844,31.9,-8.7375));
#1823=CARTESIAN_POINT('',(-6.495844,31.9,-8.1));
#1824=CARTESIAN_POINT('Origin',(-7.795844,31.9,-7.25));
#1825=CARTESIAN_POINT('',(-5.195844,32.39,-7.25));
#1826=CARTESIAN_POINT('',(-6.490844,32.39,-7.25));
#1827=CARTESIAN_POINT('',(-5.195844,32.4,-7.25));
#1828=CARTESIAN_POINT('',(-5.195844,31.9,-7.25));
#1829=CARTESIAN_POINT('',(-7.145844,32.4,-7.25));
#1830=CARTESIAN_POINT('Origin',(-5.185844,32.39,-7.5));
#1831=CARTESIAN_POINT('',(-5.195844,32.39,-7.4));
#1832=CARTESIAN_POINT('',(-7.59085152395,32.39,-7.4));
#1833=CARTESIAN_POINT('',(-5.195844,32.39,-7.375));
#1834=CARTESIAN_POINT('Origin',(-9.9958590479,33.69,-7.4));
#1835=CARTESIAN_POINT('',(-9.8958590479,32.4,-7.4));
#1836=CARTESIAN_POINT('',(-8.29585152395,32.4,-7.4));
#1837=CARTESIAN_POINT('',(-9.8958590479,33.69,-7.4));
#1838=CARTESIAN_POINT('',(-9.8958590479,33.045,-7.4));
#1839=CARTESIAN_POINT('',(-3.0958590479,33.69,-7.4));
#1840=CARTESIAN_POINT('',(-10.0958590479,33.69,-7.4));
#1841=CARTESIAN_POINT('',(-3.0958590479,32.4,-7.4));
#1842=CARTESIAN_POINT('',(-3.0958590479,33.045,-7.4));
#1843=CARTESIAN_POINT('',(-5.195844,32.4,-7.4));
#1844=CARTESIAN_POINT('',(-8.29585152395,32.4,-7.4));
#1845=CARTESIAN_POINT('',(-5.195844,32.795,-7.4));
#1846=CARTESIAN_POINT('Origin',(-8.4958590479,32.0711136206393,-6.44663843355428));
#1847=CARTESIAN_POINT('',(-8.2958590479,31.9826554016,-6.3));
#1848=CARTESIAN_POINT('',(-8.4958590479,31.9826554016,-6.3));
#1849=CARTESIAN_POINT('',(-8.47277548597857,32.1595718396786,-6.59327686710857));
#1850=CARTESIAN_POINT('',(-8.2958590479,31.9826554016,-6.3));
#1851=CARTESIAN_POINT('',(-8.4958590479,32.1595718396786,-6.59327686710857));
#1852=CARTESIAN_POINT('Origin',(-8.4958590479,31.9826554016,-6.5));
#1853=CARTESIAN_POINT('',(-8.4958590479,32.1826554016,-6.60544737178932));
#1854=CARTESIAN_POINT('',(-8.23321405566411,31.9200104093641,-6.46697125106482));
#1855=CARTESIAN_POINT('',(-8.4958590479,32.4,-6.72003945515875));
#1856=CARTESIAN_POINT('',(-8.4958590479,31.9826554016,-6.5));
#1857=CARTESIAN_POINT('',(-7.4958590479,32.4,-6.72003945515875));
#1858=CARTESIAN_POINT('Origin',(-6.495844,32.4,-5.25));
#1859=CARTESIAN_POINT('',(-5.195844,32.4,-6.25));
#1860=CARTESIAN_POINT('',(-2.9958590479,32.4,-7.3));
#1861=CARTESIAN_POINT('',(-3.3958590479,32.4,-7.7));
#1862=CARTESIAN_POINT('',(-3.895844,32.4,-7.3));
#1863=CARTESIAN_POINT('',(-5.14585152395,32.4,-7.3));
#1864=CARTESIAN_POINT('',(-3.895844,32.4,-6.3));
#1865=CARTESIAN_POINT('',(-3.895844,32.4,-6.275));
#1866=CARTESIAN_POINT('',(-2.9958590479,32.4,-6.3));
#1867=CARTESIAN_POINT('',(-4.87085152395,32.4,-6.3));
#1868=CARTESIAN_POINT('',(-2.9958590479,32.4,-3.2));
#1869=CARTESIAN_POINT('',(-2.9958590479,32.4,-7.3));
#1870=CARTESIAN_POINT('',(-3.3958590479,32.4,-2.8));
#1871=CARTESIAN_POINT('',(-2.9958590479,32.4,-3.2));
#1872=CARTESIAN_POINT('',(-9.5958590479,32.4,-2.8));
#1873=CARTESIAN_POINT('',(-3.3958590479,32.4,-2.8));
#1874=CARTESIAN_POINT('',(-9.9958590479,32.4,-3.2));
#1875=CARTESIAN_POINT('',(-9.5958590479,32.4,-2.8));
#1876=CARTESIAN_POINT('',(-9.9958590479,32.4,-6.3));
#1877=CARTESIAN_POINT('',(-9.9958590479,32.4,-3.2));
#1878=CARTESIAN_POINT('',(-9.095844,32.4,-6.3));
#1879=CARTESIAN_POINT('',(-8.12085152395,32.4,-6.3));
#1880=CARTESIAN_POINT('',(-9.095844,32.4,-7.3));
#1881=CARTESIAN_POINT('',(-9.095844,32.4,-6.275));
#1882=CARTESIAN_POINT('',(-9.9958590479,32.4,-7.3));
#1883=CARTESIAN_POINT('',(-5.14585152395,32.4,-7.3));
#1884=CARTESIAN_POINT('',(-9.9958590479,32.4,-7.3));
#1885=CARTESIAN_POINT('',(-8.4958590479,32.4,-4.5));
#1886=CARTESIAN_POINT('',(-8.4958590479,32.4,-5.575));
#1887=CARTESIAN_POINT('',(-4.4958590479,32.4,-4.5));
#1888=CARTESIAN_POINT('',(-7.49585152395,32.4,-4.5));
#1889=CARTESIAN_POINT('',(-4.4958590479,32.4,-6.72003945515875));
#1890=CARTESIAN_POINT('',(-4.4958590479,32.4,-5.575));
#1891=CARTESIAN_POINT('',(-7.4958590479,32.4,-6.72003945515875));
#1892=CARTESIAN_POINT('Origin',(-2.9958590479,32.4,-7.3));
#1893=CARTESIAN_POINT('',(-3.3958590479,33.99,-7.7));
#1894=CARTESIAN_POINT('',(-4.11752571456666,34.7116666666667,-8.42166666666666));
#1895=CARTESIAN_POINT('',(-3.3958590479,34.6,-7.7));
#1896=CARTESIAN_POINT('',(-3.3958590479,32.4,-7.7));
#1897=CARTESIAN_POINT('',(-2.9958590479,34.6,-7.3));
#1898=CARTESIAN_POINT('',(-3.3958590479,34.6,-7.7));
#1899=CARTESIAN_POINT('',(-2.9958590479,32.7000150479,-7.3));
#1900=CARTESIAN_POINT('',(-2.9958590479,32.4,-7.3));
#1901=CARTESIAN_POINT('',(-2.9958590479,32.4,-7.3));
#1902=CARTESIAN_POINT('Origin',(-2.9958590479,32.4,-3.2));
#1903=CARTESIAN_POINT('',(-2.9958590479,32.7000150479,-6.3));
#1904=CARTESIAN_POINT('',(-2.9958590479,32.375,-6.3));
#1905=CARTESIAN_POINT('',(-2.9958590479,32.7000150479,-5.25));
#1906=CARTESIAN_POINT('',(-2.9958590479,34.6,-3.2));
#1907=CARTESIAN_POINT('',(-2.9958590479,34.6,-7.3));
#1908=CARTESIAN_POINT('',(-2.9958590479,32.4,-3.2));
#1909=CARTESIAN_POINT('Origin',(-9.5958590479,32.4,-7.7));
#1910=CARTESIAN_POINT('',(-9.9958590479,32.6999849521,-7.3));
#1911=CARTESIAN_POINT('',(-9.9958590479,32.4,-7.3));
#1912=CARTESIAN_POINT('',(-9.9958590479,34.6,-7.3));
#1913=CARTESIAN_POINT('',(-9.9958590479,32.4,-7.3));
#1914=CARTESIAN_POINT('',(-9.5958590479,34.6,-7.7));
#1915=CARTESIAN_POINT('',(-9.9958590479,34.6,-7.3));
#1916=CARTESIAN_POINT('',(-9.5958590479,33.99,-7.7));
#1917=CARTESIAN_POINT('',(-9.5958590479,32.4,-7.7));
#1918=CARTESIAN_POINT('',(-9.9408590479,33.645,-7.355));
#1919=CARTESIAN_POINT('Origin',(-3.3958590479,32.4,-2.8));
#1920=CARTESIAN_POINT('',(-3.3958590479,34.6,-2.8));
#1921=CARTESIAN_POINT('',(-2.9958590479,34.6,-3.2));
#1922=CARTESIAN_POINT('',(-3.3958590479,32.4,-2.8));
#1923=CARTESIAN_POINT('Origin',(-9.9958590479,32.4,-3.2));
#1924=CARTESIAN_POINT('',(-9.5958590479,34.6,-2.8));
#1925=CARTESIAN_POINT('',(-9.5958590479,32.4,-2.8));
#1926=CARTESIAN_POINT('',(-9.9958590479,34.6,-3.2));
#1927=CARTESIAN_POINT('',(-9.5958590479,34.6,-2.8));
#1928=CARTESIAN_POINT('',(-9.9958590479,32.4,-3.2));
#1929=CARTESIAN_POINT('Origin',(-9.9958590479,32.4,-7.3));
#1930=CARTESIAN_POINT('',(-9.9958590479,32.6999849521,-6.3));
#1931=CARTESIAN_POINT('',(-9.9958590479,32.375,-6.3));
#1932=CARTESIAN_POINT('',(-9.9958590479,34.6,-3.2));
#1933=CARTESIAN_POINT('',(-9.9958590479,32.6999849521,-7.3));
#1934=CARTESIAN_POINT('Origin',(-9.9958590479,34.,-7.71));
#1935=CARTESIAN_POINT('',(-7.795844,34.,-7.71));
#1936=CARTESIAN_POINT('',(-7.795844,33.99,-7.7));
#1937=CARTESIAN_POINT('',(-7.795844,33.5725,-7.2825));
#1938=CARTESIAN_POINT('',(-5.195844,34.,-7.71));
#1939=CARTESIAN_POINT('',(-9.9958590479,34.,-7.71));
#1940=CARTESIAN_POINT('',(-5.195844,33.99,-7.7));
#1941=CARTESIAN_POINT('',(-5.195844,33.36,-7.07));
#1942=CARTESIAN_POINT('',(-6.7958590479,33.99,-7.7));
#1943=CARTESIAN_POINT('',(-6.7958590479,33.99,-7.7));
#1944=CARTESIAN_POINT('Origin',(-3.245844,32.35,-6.3));
#1945=CARTESIAN_POINT('',(-3.895844,31.5,-6.3));
#1946=CARTESIAN_POINT('',(-3.895844,33.2,-6.3));
#1947=CARTESIAN_POINT('',(-2.595844,31.5,-6.3));
#1948=CARTESIAN_POINT('',(-3.895844,31.5,-6.3));
#1949=CARTESIAN_POINT('',(-2.595844,32.3,-6.3));
#1950=CARTESIAN_POINT('',(-2.595844,31.5,-6.3));
#1951=CARTESIAN_POINT('',(-2.595844,32.3,-6.3));
#1952=CARTESIAN_POINT('Origin',(-9.495844,33.2,-7.3));
#1953=CARTESIAN_POINT('',(-10.395844,32.3,-7.3));
#1954=CARTESIAN_POINT('',(-10.395844,32.3,-7.3));
#1955=CARTESIAN_POINT('',(-10.395844,32.3,-6.3));
#1956=CARTESIAN_POINT('',(-10.395844,32.3,-7.3));
#1957=CARTESIAN_POINT('',(-10.395844,32.3,-6.3));
#1958=CARTESIAN_POINT('Origin',(-3.795844,32.4,-7.3));
#1959=CARTESIAN_POINT('',(-9.095844,31.5,-7.3));
#1960=CARTESIAN_POINT('',(-9.095844,33.2,-7.3));
#1961=CARTESIAN_POINT('',(-10.395844,31.5,-7.3));
#1962=CARTESIAN_POINT('',(-9.095844,31.5,-7.3));
#1963=CARTESIAN_POINT('',(-10.395844,31.5,-7.3));
#1964=CARTESIAN_POINT('Origin',(-9.9958590479,32.39,-7.71));
#1965=CARTESIAN_POINT('',(-5.195844,32.145,-7.71));
#1966=CARTESIAN_POINT('',(-7.795844,32.145,-7.71));
#1967=CARTESIAN_POINT('Origin',(-5.195844,31.9,-7.25));
#1968=CARTESIAN_POINT('',(-5.195844,33.7040990990991,-8.2));
#1969=CARTESIAN_POINT('',(-5.195844,34.39,-8.2));
#1970=CARTESIAN_POINT('',(-5.195844,34.2018468468468,-7.7));
#1971=CARTESIAN_POINT('',(-5.195844,33.9455585732484,-7.95744794904459));
#1972=CARTESIAN_POINT('',(-5.195844,32.15,-7.7));
#1973=CARTESIAN_POINT('Origin',(-5.195844,31.9,-7.25));
#1974=CARTESIAN_POINT('Origin',(-3.4958590479,32.4,-7.7));
#1975=CARTESIAN_POINT('',(-9.5958590479,34.6,-7.7));
#1976=CARTESIAN_POINT('',(-7.795844,34.2018468468468,-7.7));
#1977=CARTESIAN_POINT('',(-6.54585152395,34.2018468468468,-7.7));
#1978=CARTESIAN_POINT('',(-7.795844,32.15,-7.7));
#1979=CARTESIAN_POINT('Origin',(-9.4958590479,32.4,-2.8));
#1980=CARTESIAN_POINT('',(-3.3958590479,34.6,-2.8));
#1981=CARTESIAN_POINT('Origin',(-7.795844,31.9,-8.1));
#1982=CARTESIAN_POINT('',(-7.795844,33.7040990990991,-8.2));
#1983=CARTESIAN_POINT('',(-7.795844,32.1874571210191,-9.72350461146497));
#1984=CARTESIAN_POINT('',(-7.795844,25.79,-8.2));
#1985=CARTESIAN_POINT('Origin',(-8.4958590479,31.9826554016,-6.5));
#1986=CARTESIAN_POINT('',(-4.4958590479,32.1826554016,-6.60544737178932));
#1987=CARTESIAN_POINT('',(-4.4958590479,31.9826554016,-6.5));
#1988=CARTESIAN_POINT('',(-4.51894260982143,32.1595718396786,-6.59327686710857));
#1989=CARTESIAN_POINT('',(-5.63647537289284,31.0420390766072,-6.00407240333689));
#1990=CARTESIAN_POINT('',(-8.4958590479,32.1595718396786,-6.59327686710857));
#1991=CARTESIAN_POINT('Origin',(-9.595844,34.61,-7.29));
#1992=CARTESIAN_POINT('',(-4.62441542857143,33.7040990990991,-8.2));
#1993=CARTESIAN_POINT('',(-6.968344,33.7040990990991,-8.2));
#1994=CARTESIAN_POINT('',(-3.695844,32.409954954955,-9.5));
#1995=CARTESIAN_POINT('',(-5.15528428575094,34.4439676775286,-7.45678359994868));
#1996=CARTESIAN_POINT('',(-9.295844,32.409954954955,-9.5));
#1997=CARTESIAN_POINT('',(-6.645844,32.409954954955,-9.5));
#1998=CARTESIAN_POINT('',(-8.36727257142857,33.7040990990991,-8.2));
#1999=CARTESIAN_POINT('',(-8.77064341558468,33.1419236973788,-8.76471918181856));
#2000=CARTESIAN_POINT('',(-9.123344,33.7040990990991,-8.2));
#2001=CARTESIAN_POINT('Origin',(-8.4958590479,32.0711136206393,-6.44663843355428));
#2002=CARTESIAN_POINT('',(-4.6958590479,31.9826554016,-6.3));
#2003=CARTESIAN_POINT('',(-4.51894260982143,32.1595718396786,-6.59327686710857));
#2004=CARTESIAN_POINT('',(-8.4958590479,31.9826554016,-6.3));
#2005=CARTESIAN_POINT('Origin',(-8.3958590479,32.0826554016,-5.2));
#2006=CARTESIAN_POINT('',(-8.4958590479,32.1826554016,-4.5));
#2007=CARTESIAN_POINT('',(-8.4958590479,32.1826554016,-5.2));
#2008=CARTESIAN_POINT('',(-8.2958590479,31.9826554016,-4.7));
#2009=CARTESIAN_POINT('',(-8.2958590479,31.9826554016,-5.2));
#2010=CARTESIAN_POINT('',(-8.2958590479,31.9826554016,-4.7));
#2011=CARTESIAN_POINT('Origin',(-4.5958590479,32.0826554016,-5.2));
#2012=CARTESIAN_POINT('',(-4.6958590479,31.9826554016,-4.7));
#2013=CARTESIAN_POINT('',(-4.6958590479,31.9826554016,-5.2));
#2014=CARTESIAN_POINT('',(-4.4958590479,32.1826554016,-4.5));
#2015=CARTESIAN_POINT('',(-4.4958590479,32.1826554016,-5.2));
#2016=CARTESIAN_POINT('',(-4.6958590479,31.9826554016,-4.7));
#2017=CARTESIAN_POINT('Origin',(-8.4958590479,32.0826554016,-4.6));
#2018=CARTESIAN_POINT('',(-8.4958590479,32.1826554016,-4.5));
#2019=CARTESIAN_POINT('',(-8.4958590479,31.9826554016,-4.7));
#2020=CARTESIAN_POINT('Origin',(-4.4958590479,32.7413277008,-5.9));
#2021=CARTESIAN_POINT('',(-4.4958590479,33.5,-4.5));
#2022=CARTESIAN_POINT('Origin',(-8.4958590479,31.9826554016,-4.5));
#2023=CARTESIAN_POINT('Origin',(-8.4958590479,33.5,-4.5));
#2024=CARTESIAN_POINT('',(-8.4958590479,33.5,-4.5));
#2025=CARTESIAN_POINT('Origin',(-8.4958590479,32.7413277008,-5.9));
#2026=CARTESIAN_POINT('Origin',(-2.595844,32.3,-7.3));
#2027=CARTESIAN_POINT('',(-2.595844,32.3,-7.3));
#2028=CARTESIAN_POINT('',(-2.595844,32.3,-7.3));
#2029=CARTESIAN_POINT('',(-2.595844,32.3,-7.3));
#2030=CARTESIAN_POINT('Origin',(-4.340844,30.09,-8.2));
#2031=CARTESIAN_POINT('',(-5.195844,25.8,-8.2));
#2032=CARTESIAN_POINT('',(-5.195844,27.945,-8.2));
#2033=CARTESIAN_POINT('',(-4.62441542857143,25.8,-8.2));
#2034=CARTESIAN_POINT('',(-4.393344,25.8,-8.2));
#2035=CARTESIAN_POINT('',(-4.62441542857143,30.995,-8.2));
#2036=CARTESIAN_POINT('Origin',(-4.695844,31.9,-8.1));
#2037=CARTESIAN_POINT('',(-3.695844,25.8,-9.5));
#2038=CARTESIAN_POINT('',(-3.695844,25.8,-9.5));
#2039=CARTESIAN_POINT('',(-3.695844,31.9,-9.5));
#2040=CARTESIAN_POINT('Origin',(-4.445844,25.8,-8.8));
#2041=CARTESIAN_POINT('',(-5.195844,25.8,-9.5));
#2042=CARTESIAN_POINT('',(-5.195844,25.8,-8.1));
#2043=CARTESIAN_POINT('',(-5.195844,25.8,-9.5));
#2044=CARTESIAN_POINT('Origin',(-5.195844,25.8,-9.5));
#2045=CARTESIAN_POINT('',(-5.195844,25.8,-9.5));
#2046=CARTESIAN_POINT('Origin',(-8.650844,30.09,-8.2));
#2047=CARTESIAN_POINT('',(-7.795844,25.8,-8.2));
#2048=CARTESIAN_POINT('',(-8.36727257142857,25.8,-8.2));
#2049=CARTESIAN_POINT('',(-8.598344,25.8,-8.2));
#2050=CARTESIAN_POINT('',(-7.795844,27.945,-8.2));
#2051=CARTESIAN_POINT('',(-8.36727257142857,30.995,-8.2));
#2052=CARTESIAN_POINT('Origin',(-8.545844,25.8,-8.8));
#2053=CARTESIAN_POINT('',(-9.295844,25.8,-9.5));
#2054=CARTESIAN_POINT('',(-9.295844,25.8,-9.5));
#2055=CARTESIAN_POINT('',(-7.795844,25.8,-9.5));
#2056=CARTESIAN_POINT('',(-7.795844,25.8,-9.5));
#2057=CARTESIAN_POINT('',(-7.795844,25.8,-8.1));
#2058=CARTESIAN_POINT('Origin',(-9.295844,31.9,-9.5));
#2059=CARTESIAN_POINT('',(-9.295844,31.9,-9.5));
#2060=CARTESIAN_POINT('Origin',(-7.345844,26.4,-10.1));
#2061=CARTESIAN_POINT('',(-7.345844,26.4,-10.1));
#2062=CARTESIAN_POINT('',(-7.345844,27.4,-9.1));
#2063=CARTESIAN_POINT('',(-7.345844,26.4,-10.1));
#2064=CARTESIAN_POINT('',(-5.645844,27.4,-9.1));
#2065=CARTESIAN_POINT('',(-6.920844,27.4,-9.1));
#2066=CARTESIAN_POINT('',(-5.645844,26.4,-10.1));
#2067=CARTESIAN_POINT('',(-5.645844,26.4,-10.1));
#2068=CARTESIAN_POINT('',(-7.345844,26.4,-10.1));
#2069=CARTESIAN_POINT('Origin',(-7.345844,25.8,-10.1));
#2070=CARTESIAN_POINT('',(-7.345844,25.8,-10.1));
#2071=CARTESIAN_POINT('',(-7.345844,25.8,-10.1));
#2072=CARTESIAN_POINT('',(-5.645844,25.8,-10.1));
#2073=CARTESIAN_POINT('',(-5.645844,25.8,-10.1));
#2074=CARTESIAN_POINT('',(-7.345844,25.8,-10.1));
#2075=CARTESIAN_POINT('Origin',(-6.495844,28.925,-8.1));
#2076=CARTESIAN_POINT('',(-7.345844,25.8,-8.1));
#2077=CARTESIAN_POINT('',(-7.345844,32.05,-8.1));
#2078=CARTESIAN_POINT('',(-5.645844,25.8,-8.1));
#2079=CARTESIAN_POINT('',(-7.345844,25.8,-8.1));
#2080=CARTESIAN_POINT('',(-5.645844,25.8,-8.1));
#2081=CARTESIAN_POINT('Origin',(-7.345844,32.05,-9.1));
#2082=CARTESIAN_POINT('',(-7.345844,32.05,-9.1));
#2083=CARTESIAN_POINT('',(-7.345844,25.8,-9.1));
#2084=CARTESIAN_POINT('Origin',(-5.645844,25.8,-9.1));
#2085=CARTESIAN_POINT('',(-5.645844,25.8,-9.1));
#2086=CARTESIAN_POINT('',(-5.645844,25.8,-9.1));
#2087=CARTESIAN_POINT('Origin',(-7.345844,25.8,-9.1));
#2088=CARTESIAN_POINT('Origin',(-6.495844,28.925,-9.1));
#2089=CARTESIAN_POINT('Origin',(-3.895844,33.2,-7.3));
#2090=CARTESIAN_POINT('',(-3.895844,31.5,-7.3));
#2091=CARTESIAN_POINT('',(-3.895844,33.2,-7.3));
#2092=CARTESIAN_POINT('',(-3.895844,31.5,-7.3));
#2093=CARTESIAN_POINT('Origin',(-2.595844,31.5,-7.3));
#2094=CARTESIAN_POINT('',(-2.595844,31.5,-7.3));
#2095=CARTESIAN_POINT('',(-2.595844,31.5,-7.3));
#2096=CARTESIAN_POINT('',(-2.595844,31.5,-7.3));
#2097=CARTESIAN_POINT('Origin',(-3.895844,31.5,-7.3));
#2098=CARTESIAN_POINT('',(-3.895844,31.5,-7.3));
#2099=CARTESIAN_POINT('Origin',(-3.695844,31.9,-9.5));
#2100=CARTESIAN_POINT('',(-7.795844,25.8,-9.5));
#2101=CARTESIAN_POINT('Origin',(-9.095844,31.5,-7.3));
#2102=CARTESIAN_POINT('',(-9.095844,31.5,-6.3));
#2103=CARTESIAN_POINT('',(-9.095844,33.2,-6.3));
#2104=CARTESIAN_POINT('',(-9.095844,31.5,-7.3));
#2105=CARTESIAN_POINT('Origin',(-9.745844,32.35,-6.3));
#2106=CARTESIAN_POINT('',(-10.395844,31.5,-6.3));
#2107=CARTESIAN_POINT('',(-10.395844,31.5,-6.3));
#2108=CARTESIAN_POINT('',(-9.095844,31.5,-6.3));
#2109=CARTESIAN_POINT('Origin',(-10.395844,31.5,-7.3));
#2110=CARTESIAN_POINT('',(-10.395844,31.5,-7.3));
#2111=CARTESIAN_POINT('Origin',(-10.395844,32.3,-7.3));
#2112=CARTESIAN_POINT('Origin',(-7.795844,25.8,-8.1));
#2113=CARTESIAN_POINT('Origin',(-6.495844,34.6,-5.25));
#2114=CARTESIAN_POINT('Origin',(-3.795844,32.4,-7.3));
#2115=UNCERTAINTY_MEASURE_WITH_UNIT(LENGTH_MEASURE(0.01),#2119,
'DISTANCE_ACCURACY_VALUE',
'Maximum model space distance between geometric entities at asserted c
onnectivities');
#2116=UNCERTAINTY_MEASURE_WITH_UNIT(LENGTH_MEASURE(0.01),#2119,
'DISTANCE_ACCURACY_VALUE',
'Maximum model space distance between geometric entities at asserted c
onnectivities');
#2117=(
GEOMETRIC_REPRESENTATION_CONTEXT(3)
GLOBAL_UNCERTAINTY_ASSIGNED_CONTEXT((#2115))
GLOBAL_UNIT_ASSIGNED_CONTEXT((#2119,#2121,#2122))
REPRESENTATION_CONTEXT('','3D')
);
#2118=(
GEOMETRIC_REPRESENTATION_CONTEXT(3)
GLOBAL_UNCERTAINTY_ASSIGNED_CONTEXT((#2116))
GLOBAL_UNIT_ASSIGNED_CONTEXT((#2119,#2121,#2122))
REPRESENTATION_CONTEXT('','3D')
);
#2119=(
LENGTH_UNIT()
NAMED_UNIT(*)
SI_UNIT(.MILLI.,.METRE.)
);
#2120=(
LENGTH_UNIT()
NAMED_UNIT(*)
SI_UNIT($,.METRE.)
);
#2121=(
NAMED_UNIT(*)
PLANE_ANGLE_UNIT()
SI_UNIT($,.RADIAN.)
);
#2122=(
NAMED_UNIT(*)
SI_UNIT($,.STERADIAN.)
SOLID_ANGLE_UNIT()
);
#2123=SHAPE_DEFINITION_REPRESENTATION(#2124,#2125);
#2124=PRODUCT_DEFINITION_SHAPE('',$,#2127);
#2125=SHAPE_REPRESENTATION('',(#1351),#2117);
#2126=PRODUCT_DEFINITION_CONTEXT('part definition',#2131,'design');
#2127=PRODUCT_DEFINITION('2026-10-05-03-56-06-328','R9 G20 button 1',#2128,
#2126);
#2128=PRODUCT_DEFINITION_FORMATION('',$,#2133);
#2129=PRODUCT_RELATED_PRODUCT_CATEGORY('R9 G20 button 1',
'R9 G20 button 1',(#2133));
#2130=APPLICATION_PROTOCOL_DEFINITION('international standard',
'automotive_design',2009,#2131);
#2131=APPLICATION_CONTEXT(
'Core Data for Automotive Mechanical Design Process');
#2132=PRODUCT_CONTEXT('part definition',#2131,'mechanical');
#2133=PRODUCT('2026-10-05-03-56-06-328','R9 G20 button 1',$,(#2132));
#2134=PRESENTATION_STYLE_ASSIGNMENT((#2135));
#2135=SURFACE_STYLE_USAGE(.BOTH.,#2136);
#2136=SURFACE_SIDE_STYLE('',(#2137));
#2137=SURFACE_STYLE_FILL_AREA(#2138);
#2138=FILL_AREA_STYLE('\X2\94A2\X0\ - \X2\7F0E5149\X0\',(#2139));
#2139=FILL_AREA_STYLE_COLOUR('\X2\94A2\X0\ - \X2\7F0E5149\X0\',#2140);
#2140=COLOUR_RGB('\X2\94A2\X0\ - \X2\7F0E5149\X0\',0.627450980392157,0.627450980392157,
0.627450980392157);
ENDSEC;
END-ISO-10303-21;
